<svg version="1.1" viewBox="0.0 0.0 894.0 552.0" fill="none" stroke="none" stroke-linecap="square" stroke-miterlimit="10" width="894" height="552" xmlns:xlink="http://www.w3.org/1999/xlink" xmlns="http://www.w3.org/2000/svg"><path fill="#ffffff" d="M0 0L894.0 0L894.0 552.0L0 552.0L0 0Z" fill-rule="nonzero"/><path fill="#ffffff" d="M0 0L894.0 0L894.0 552.0L0 552.0L0 0Z" fill-rule="nonzero"/><path stroke="#333333" stroke-width="1.0" stroke-linecap="butt" d="M63.5 427.5L866.5 427.5" fill-rule="nonzero"/><path stroke="#cccccc" stroke-width="1.0" stroke-linecap="butt" d="M63.5 329.5L866.5 329.5" fill-rule="nonzero"/><path stroke="#cccccc" stroke-width="1.0" stroke-linecap="butt" d="M63.5 231.5L866.5 231.5" fill-rule="nonzero"/><path stroke="#cccccc" stroke-width="1.0" stroke-linecap="butt" d="M63.5 133.5L866.5 133.5" fill-rule="nonzero"/><path stroke="#cccccc" stroke-width="1.0" stroke-linecap="butt" d="M63.5 35.5L866.5 35.5" fill-rule="nonzero"/><clipPath id="id_0"><path d="M63.6 35.1L866.4 35.1L866.4 427.53677L63.6 427.53677L63.6 35.1Z" clip-rule="nonzero"/></clipPath><path stroke="#000000" stroke-width="0.0" stroke-linecap="butt" stroke-opacity="0.0" clip-path="url(#id_0)" d="M141.0 428.0L91.0 428.0L91.0 233.0C91.0 231.89543 91.89543 231.0 93.0 231.0L139.0 231.0C140.10457 231.0 141.0 231.89543 141.0 233.0Z" fill-rule="nonzero"/><path fill="#4285f4" clip-path="url(#id_0)" d="M141.0 428.0L91.0 428.0L91.0 233.0C91.0 231.89543 91.89543 231.0 93.0 231.0L139.0 231.0C140.10457 231.0 141.0 231.89543 141.0 233.0Z" fill-rule="nonzero"/><path stroke="#000000" stroke-width="0.0" stroke-linecap="butt" stroke-opacity="0.0" clip-path="url(#id_0)" d="M219.0 428.0L169.0 428.0L169.0 45.0C169.0 43.89543 169.89543 43.0 171.0 43.0L217.0 43.0C218.10457 43.0 219.0 43.89543 219.0 45.0Z" fill-rule="nonzero"/><path fill="#4285f4" clip-path="url(#id_0)" d="M219.0 428.0L169.0 428.0L169.0 45.0C169.0 43.89543 169.89543 43.0 171.0 43.0L217.0 43.0C218.10457 43.0 219.0 43.89543 219.0 45.0Z" fill-rule="nonzero"/><path stroke="#000000" stroke-width="0.0" stroke-linecap="butt" stroke-opacity="0.0" clip-path="url(#id_0)" d="M296.0 428.0L246.0 428.0L246.0 160.0C246.0 158.89543 246.89543 158.0 248.0 158.0L294.0 158.0C295.10458 158.0 296.0 158.89543 296.0 160.0Z" fill-rule="nonzero"/><path fill="#4285f4" clip-path="url(#id_0)" d="M296.0 428.0L246.0 428.0L246.0 160.0C246.0 158.89543 246.89543 158.0 248.0 158.0L294.0 158.0C295.10458 158.0 296.0 158.89543 296.0 160.0Z" fill-rule="nonzero"/><path stroke="#000000" stroke-width="0.0" stroke-linecap="butt" stroke-opacity="0.0" clip-path="url(#id_0)" d="M374.0 428.0L324.0 428.0L324.0 229.0C324.0 227.89543 324.89542 227.0 326.0 227.0L372.0 227.0C373.10458 227.0 374.0 227.89543 374.0 229.0Z" fill-rule="nonzero"/><path fill="#4285f4" clip-path="url(#id_0)" d="M374.0 428.0L324.0 428.0L324.0 229.0C324.0 227.89543 324.89542 227.0 326.0 227.0L372.0 227.0C373.10458 227.0 374.0 227.89543 374.0 229.0Z" fill-rule="nonzero"/><path stroke="#000000" stroke-width="0.0" stroke-linecap="butt" stroke-opacity="0.0" clip-path="url(#id_0)" d="M451.0 428.0L401.0 428.0L401.0 213.0C401.0 211.89543 401.89542 211.0 403.0 211.0L449.0 211.0C450.10458 211.0 451.0 211.89543 451.0 213.0Z" fill-rule="nonzero"/><path fill="#4285f4" clip-path="url(#id_0)" d="M451.0 428.0L401.0 428.0L401.0 213.0C401.0 211.89543 401.89542 211.0 403.0 211.0L449.0 211.0C450.10458 211.0 451.0 211.89543 451.0 213.0Z" fill-rule="nonzero"/><path stroke="#000000" stroke-width="0.0" stroke-linecap="butt" stroke-opacity="0.0" clip-path="url(#id_0)" d="M529.0 428.0L479.0 428.0L479.0 69.0C479.0 67.89543 479.89542 67.0 481.0 67.0L527.0 67.0C528.10455 67.0 529.0 67.89543 529.0 69.0Z" fill-rule="nonzero"/><path fill="#4285f4" clip-path="url(#id_0)" d="M529.0 428.0L479.0 428.0L479.0 69.0C479.0 67.89543 479.89542 67.0 481.0 67.0L527.0 67.0C528.10455 67.0 529.0 67.89543 529.0 69.0Z" fill-rule="nonzero"/><path stroke="#000000" stroke-width="0.0" stroke-linecap="butt" stroke-opacity="0.0" clip-path="url(#id_0)" d="M606.0 428.0L556.0 428.0L556.0 212.0C556.0 210.89543 556.89545 210.0 558.0 210.0L604.0 210.0C605.10455 210.0 606.0 210.89543 606.0 212.0Z" fill-rule="nonzero"/><path fill="#4285f4" clip-path="url(#id_0)" d="M606.0 428.0L556.0 428.0L556.0 212.0C556.0 210.89543 556.89545 210.0 558.0 210.0L604.0 210.0C605.10455 210.0 606.0 210.89543 606.0 212.0Z" fill-rule="nonzero"/><path stroke="#000000" stroke-width="0.0" stroke-linecap="butt" stroke-opacity="0.0" clip-path="url(#id_0)" d="M684.0 428.0L634.0 428.0L634.0 136.0C634.0 134.89543 634.89545 134.0 636.0 134.0L682.0 134.0C683.10455 134.0 684.0 134.89543 684.0 136.0Z" fill-rule="nonzero"/><path fill="#4285f4" clip-path="url(#id_0)" d="M684.0 428.0L634.0 428.0L634.0 136.0C634.0 134.89543 634.89545 134.0 636.0 134.0L682.0 134.0C683.10455 134.0 684.0 134.89543 684.0 136.0Z" fill-rule="nonzero"/><path stroke="#000000" stroke-width="0.0" stroke-linecap="butt" stroke-opacity="0.0" clip-path="url(#id_0)" d="M761.0 428.0L711.0 428.0L711.0 228.0C711.0 226.89543 711.89545 226.0 713.0 226.0L759.0 226.0C760.10455 226.0 761.0 226.89543 761.0 228.0Z" fill-rule="nonzero"/><path fill="#4285f4" clip-path="url(#id_0)" d="M761.0 428.0L711.0 428.0L711.0 228.0C711.0 226.89543 711.89545 226.0 713.0 226.0L759.0 226.0C760.10455 226.0 761.0 226.89543 761.0 228.0Z" fill-rule="nonzero"/><path stroke="#000000" stroke-width="0.0" stroke-linecap="butt" stroke-opacity="0.0" clip-path="url(#id_0)" d="M839.0 428.0L789.0 428.0L789.0 233.0C789.0 231.89543 789.89545 231.0 791.0 231.0L837.0 231.0C838.10455 231.0 839.0 231.89543 839.0 233.0Z" fill-rule="nonzero"/><path fill="#4285f4" clip-path="url(#id_0)" d="M839.0 428.0L789.0 428.0L789.0 233.0C789.0 231.89543 789.89545 231.0 791.0 231.0L837.0 231.0C838.10455 231.0 839.0 231.89543 839.0 233.0Z" fill-rule="nonzero"/><path fill="#757575" d="M47.6625 428.39615Q47.6625 430.3024 47.00625 431.2399Q46.365623 432.16177 44.975 432.16177Q43.615623 432.16177 42.959373 431.25552Q42.303123 430.34927 42.271873 428.53677L42.271873 427.09927Q42.271873 425.20865 42.9125 424.3024Q43.56875 423.38052 44.959373 423.38052Q46.334373 423.38052 46.990623 424.27115Q47.646873 425.14615 47.6625 426.9899L47.6625 428.39615ZM46.56875 426.91177Q46.56875 425.53677 46.178123 424.91177Q45.803123 424.27115 44.959373 424.27115Q44.13125 424.27115 43.740623 424.91177Q43.365623 425.53677 43.365623 426.83365L43.365623 428.56802Q43.365623 429.94302 43.75625 430.6149Q44.1625 431.27115 44.975 431.27115Q45.771873 431.27115 46.1625 430.64615Q46.553123 430.02115 46.56875 428.69302L46.56875 426.91177ZM49.209373 425.14615Q49.209373 424.38052 49.69375 423.88052Q50.19375 423.38052 50.959373 423.38052Q51.740623 423.38052 52.225 423.88052Q52.709373 424.38052 52.709373 425.1774L52.709373 425.59927Q52.709373 426.3649 52.209373 426.8649Q51.725 427.34927 50.975 427.34927Q50.209373 427.34927 49.709373 426.8649Q49.209373 426.3649 49.209373 425.5524L49.209373 425.14615ZM50.021873 425.59927Q50.021873 426.0524 50.271873 426.34927Q50.5375 426.64615 50.975 426.64615Q51.396873 426.64615 51.646873 426.3649Q51.896873 426.06802 51.896873 425.56802L51.896873 425.14615Q51.896873 424.69302 51.646873 424.39615Q51.396873 424.08365 50.959373 424.08365Q50.521873 424.08365 50.271873 424.39615Q50.021873 424.69302 50.021873 425.16177L50.021873 425.59927ZM53.365623 429.94302Q53.365623 429.1774 53.85 428.69302Q54.35 428.19302 55.115623 428.19302Q55.88125 428.19302 56.365623 428.69302Q56.865623 429.1774 56.865623 429.9899L56.865623 430.39615Q56.865623 431.16177 56.38125 431.66177Q55.896873 432.16177 55.13125 432.16177Q54.365623 432.16177 53.865623 431.6774Q53.365623 431.1774 53.365623 430.3649L53.365623 429.94302ZM54.178123 430.39615Q54.178123 430.8649 54.428123 431.16177Q54.69375 431.45865 55.13125 431.45865Q55.553123 431.45865 55.803123 431.1774Q56.053123 430.88052 56.053123 430.38052L56.053123 429.94302Q56.053123 429.47427 55.7875 429.19302Q55.5375 428.89615 55.115623 428.89615Q54.69375 428.89615 54.428123 429.19302Q54.178123 429.47427 54.178123 429.97427L54.178123 430.39615ZM51.225 431.39615L50.6 431.00552L54.771873 424.33365L55.38125 424.72427L51.225 431.39615Z" fill-rule="nonzero"/><path fill="#757575" d="M35.803123 329.64633L36.240623 325.39633L40.615623 325.39633L40.615623 326.39633L37.1625 326.39633L36.896873 328.72446Q37.5375 328.34946 38.334373 328.34946Q39.490623 328.34946 40.178123 329.1307Q40.865623 329.89633 40.865623 331.20883Q40.865623 332.52133 40.146873 333.28696Q39.44375 334.05258 38.1625 334.05258Q37.0375 334.05258 36.31875 333.42758Q35.6 332.78696 35.50625 331.67758L36.521873 331.67758Q36.63125 332.41196 37.053123 332.78696Q37.475 333.16196 38.1625 333.16196Q38.9125 333.16196 39.35 332.64633Q39.7875 332.1307 39.7875 331.22446Q39.7875 330.36508 39.31875 329.84946Q38.85 329.33383 38.06875 329.33383Q37.365623 329.33383 36.959373 329.6307L36.678123 329.86508L35.803123 329.64633ZM47.6625 330.28696Q47.6625 332.1932 47.00625 333.1307Q46.365623 334.05258 44.975 334.05258Q43.615623 334.05258 42.959373 333.14633Q42.303123 332.24008 42.271873 330.42758L42.271873 328.99008Q42.271873 327.09946 42.9125 326.1932Q43.56875 325.27133 44.959373 325.27133Q46.334373 325.27133 46.990623 326.16196Q47.646873 327.03696 47.6625 328.8807L47.6625 330.28696ZM46.56875 328.80258Q46.56875 327.42758 46.178123 326.80258Q45.803123 326.16196 44.959373 326.16196Q44.13125 326.16196 43.740623 326.80258Q43.365623 327.42758 43.365623 328.72446L43.365623 330.45883Q43.365623 331.83383 43.75625 332.5057Q44.1625 333.16196 44.975 333.16196Q45.771873 333.16196 46.1625 332.53696Q46.553123 331.91196 46.56875 330.58383L46.56875 328.80258ZM49.209373 327.03696Q49.209373 326.27133 49.69375 325.77133Q50.19375 325.27133 50.959373 325.27133Q51.740623 325.27133 52.225 325.77133Q52.709373 326.27133 52.709373 327.0682L52.709373 327.49008Q52.709373 328.2557 52.209373 328.7557Q51.725 329.24008 50.975 329.24008Q50.209373 329.24008 49.709373 328.7557Q49.209373 328.2557 49.209373 327.4432L49.209373 327.03696ZM50.021873 327.49008Q50.021873 327.9432 50.271873 328.24008Q50.5375 328.53696 50.975 328.53696Q51.396873 328.53696 51.646873 328.2557Q51.896873 327.95883 51.896873 327.45883L51.896873 327.03696Q51.896873 326.58383 51.646873 326.28696Q51.396873 325.97446 50.959373 325.97446Q50.521873 325.97446 50.271873 326.28696Q50.021873 326.58383 50.021873 327.05258L50.021873 327.49008ZM53.365623 331.83383Q53.365623 331.0682 53.85 330.58383Q54.35 330.08383 55.115623 330.08383Q55.88125 330.08383 56.365623 330.58383Q56.865623 331.0682 56.865623 331.8807L56.865623 332.28696Q56.865623 333.05258 56.38125 333.55258Q55.896873 334.05258 55.13125 334.05258Q54.365623 334.05258 53.865623 333.5682Q53.365623 333.0682 53.365623 332.2557L53.365623 331.83383ZM54.178123 332.28696Q54.178123 332.7557 54.428123 333.05258Q54.69375 333.34946 55.13125 333.34946Q55.553123 333.34946 55.803123 333.0682Q56.053123 332.77133 56.053123 332.27133L56.053123 331.83383Q56.053123 331.36508 55.7875 331.08383Q55.5375 330.78696 55.115623 330.78696Q54.69375 330.78696 54.428123 331.08383Q54.178123 331.36508 54.178123 331.86508L54.178123 332.28696ZM51.225 333.28696L50.6 332.89633L54.771873 326.22446L55.38125 326.61508L51.225 333.28696Z" fill-rule="nonzero"/><path fill="#757575" d="M31.865625 235.81839L30.7875 235.81839L30.7875 228.59964L28.6 229.39651L28.6 228.41214L31.709375 227.24026L31.865625 227.24026L31.865625 235.81839ZM40.6625 232.17776Q40.6625 234.08401 40.00625 235.02151Q39.365623 235.94339 37.975 235.94339Q36.615623 235.94339 35.959373 235.03714Q35.303123 234.13089 35.271873 232.31839L35.271873 230.88089Q35.271873 228.99026 35.9125 228.08401Q36.56875 227.16214 37.959373 227.16214Q39.334373 227.16214 39.990623 228.05276Q40.646873 228.92776 40.6625 230.77151L40.6625 232.17776ZM39.56875 230.69339Q39.56875 229.31839 39.178123 228.69339Q38.803123 228.05276 37.959373 228.05276Q37.13125 228.05276 36.740623 228.69339Q36.365623 229.31839 36.365623 230.61526L36.365623 232.34964Q36.365623 233.72464 36.75625 234.39651Q37.1625 235.05276 37.975 235.05276Q38.771873 235.05276 39.1625 234.42776Q39.553123 233.80276 39.56875 232.47464L39.56875 230.69339ZM47.6625 232.17776Q47.6625 234.08401 47.00625 235.02151Q46.365623 235.94339 44.975 235.94339Q43.615623 235.94339 42.959373 235.03714Q42.303123 234.13089 42.271873 232.31839L42.271873 230.88089Q42.271873 228.99026 42.9125 228.08401Q43.56875 227.16214 44.959373 227.16214Q46.334373 227.16214 46.990623 228.05276Q47.646873 228.92776 47.6625 230.77151L47.6625 232.17776ZM46.56875 230.69339Q46.56875 229.31839 46.178123 228.69339Q45.803123 228.05276 44.959373 228.05276Q44.13125 228.05276 43.740623 228.69339Q43.365623 229.31839 43.365623 230.61526L43.365623 232.34964Q43.365623 233.72464 43.75625 234.39651Q44.1625 235.05276 44.975 235.05276Q45.771873 235.05276 46.1625 234.42776Q46.553123 233.80276 46.56875 232.47464L46.56875 230.69339ZM49.209373 228.92776Q49.209373 228.16214 49.69375 227.66214Q50.19375 227.16214 50.959373 227.16214Q51.740623 227.16214 52.225 227.66214Q52.709373 228.16214 52.709373 228.95901L52.709373 229.38089Q52.709373 230.14651 52.209373 230.64651Q51.725 231.13089 50.975 231.13089Q50.209373 231.13089 49.709373 230.64651Q49.209373 230.14651 49.209373 229.33401L49.209373 228.92776ZM50.021873 229.38089Q50.021873 229.83401 50.271873 230.13089Q50.5375 230.42776 50.975 230.42776Q51.396873 230.42776 51.646873 230.14651Q51.896873 229.84964 51.896873 229.34964L51.896873 228.92776Q51.896873 228.47464 51.646873 228.17776Q51.396873 227.86526 50.959373 227.86526Q50.521873 227.86526 50.271873 228.17776Q50.021873 228.47464 50.021873 228.94339L50.021873 229.38089ZM53.365623 233.72464Q53.365623 232.95901 53.85 232.47464Q54.35 231.97464 55.115623 231.97464Q55.88125 231.97464 56.365623 232.47464Q56.865623 232.95901 56.865623 233.77151L56.865623 234.17776Q56.865623 234.94339 56.38125 235.44339Q55.896873 235.94339 55.13125 235.94339Q54.365623 235.94339 53.865623 235.45901Q53.365623 234.95901 53.365623 234.14651L53.365623 233.72464ZM54.178123 234.17776Q54.178123 234.64651 54.428123 234.94339Q54.69375 235.24026 55.13125 235.24026Q55.553123 235.24026 55.803123 234.95901Q56.053123 234.66214 56.053123 234.16214L56.053123 233.72464Q56.053123 233.25589 55.7875 232.97464Q55.5375 232.67776 55.115623 232.67776Q54.69375 232.67776 54.428123 232.97464Q54.178123 233.25589 54.178123 233.75589L54.178123 234.17776ZM51.225 235.17776L50.6 234.78714L54.771873 228.11526L55.38125 228.50589L51.225 235.17776Z" fill-rule="nonzero"/><path fill="#757575" d="M31.865625 137.7092L30.7875 137.7092L30.7875 130.49045L28.6 131.28732L28.6 130.30295L31.709375 129.13107L31.865625 129.13107L31.865625 137.7092ZM35.803123 133.42795L36.240623 129.17795L40.615623 129.17795L40.615623 130.17795L37.1625 130.17795L36.896873 132.50607Q37.5375 132.13107 38.334373 132.13107Q39.490623 132.13107 40.178123 132.91232Q40.865623 133.67795 40.865623 134.99045Q40.865623 136.30295 40.146873 137.06857Q39.44375 137.8342 38.1625 137.8342Q37.0375 137.8342 36.31875 137.2092Q35.6 136.56857 35.50625 135.4592L36.521873 135.4592Q36.63125 136.19357 37.053123 136.56857Q37.475 136.94357 38.1625 136.94357Q38.9125 136.94357 39.35 136.42795Q39.7875 135.91232 39.7875 135.00607Q39.7875 134.1467 39.31875 133.63107Q38.85 133.11545 38.06875 133.11545Q37.365623 133.11545 36.959373 133.41232L36.678123 133.6467L35.803123 133.42795ZM47.6625 134.06857Q47.6625 135.97482 47.00625 136.91232Q46.365623 137.8342 44.975 137.8342Q43.615623 137.8342 42.959373 136.92795Q42.303123 136.0217 42.271873 134.2092L42.271873 132.7717Q42.271873 130.88107 42.9125 129.97482Q43.56875 129.05295 44.959373 129.05295Q46.334373 129.05295 46.990623 129.94357Q47.646873 130.81857 47.6625 132.66232L47.6625 134.06857ZM46.56875 132.5842Q46.56875 131.2092 46.178123 130.5842Q45.803123 129.94357 44.959373 129.94357Q44.13125 129.94357 43.740623 130.5842Q43.365623 131.2092 43.365623 132.50607L43.365623 134.24045Q43.365623 135.61545 43.75625 136.28732Q44.1625 136.94357 44.975 136.94357Q45.771873 136.94357 46.1625 136.31857Q46.553123 135.69357 46.56875 134.36545L46.56875 132.5842ZM49.209373 130.81857Q49.209373 130.05295 49.69375 129.55295Q50.19375 129.05295 50.959373 129.05295Q51.740623 129.05295 52.225 129.55295Q52.709373 130.05295 52.709373 130.84982L52.709373 131.2717Q52.709373 132.03732 52.209373 132.53732Q51.725 133.0217 50.975 133.0217Q50.209373 133.0217 49.709373 132.53732Q49.209373 132.03732 49.209373 131.22482L49.209373 130.81857ZM50.021873 131.2717Q50.021873 131.72482 50.271873 132.0217Q50.5375 132.31857 50.975 132.31857Q51.396873 132.31857 51.646873 132.03732Q51.896873 131.74045 51.896873 131.24045L51.896873 130.81857Q51.896873 130.36545 51.646873 130.06857Q51.396873 129.75607 50.959373 129.75607Q50.521873 129.75607 50.271873 130.06857Q50.021873 130.36545 50.021873 130.8342L50.021873 131.2717ZM53.365623 135.61545Q53.365623 134.84982 53.85 134.36545Q54.35 133.86545 55.115623 133.86545Q55.88125 133.86545 56.365623 134.36545Q56.865623 134.84982 56.865623 135.66232L56.865623 136.06857Q56.865623 136.8342 56.38125 137.3342Q55.896873 137.8342 55.13125 137.8342Q54.365623 137.8342 53.865623 137.34982Q53.365623 136.84982 53.365623 136.03732L53.365623 135.61545ZM54.178123 136.06857Q54.178123 136.53732 54.428123 136.8342Q54.69375 137.13107 55.13125 137.13107Q55.553123 137.13107 55.803123 136.84982Q56.053123 136.55295 56.053123 136.05295L56.053123 135.61545Q56.053123 135.1467 55.7875 134.86545Q55.5375 134.56857 55.115623 134.56857Q54.69375 134.56857 54.428123 134.86545Q54.178123 135.1467 54.178123 135.6467L54.178123 136.06857ZM51.225 137.06857L50.6 136.67795L54.771873 130.00607L55.38125 130.3967L51.225 137.06857Z" fill-rule="nonzero"/><path fill="#757575" d="M33.896873 39.6L28.303125 39.6L28.303125 38.81875L31.25625 35.5375Q31.9125 34.7875 32.1625 34.334373Q32.4125 33.865623 32.4125 33.365623Q32.4125 32.69375 32.00625 32.271873Q31.615625 31.834373 30.928125 31.834373Q30.13125 31.834373 29.678125 32.303123Q29.225 32.75625 29.225 33.584373L28.146875 33.584373Q28.146875 32.396873 28.896875 31.678123Q29.6625 30.943748 30.928125 30.943748Q32.13125 30.943748 32.81875 31.568748Q33.50625 32.19375 33.50625 33.240623Q33.50625 34.490623 31.896875 36.240623L29.615625 38.709373L33.896873 38.709373L33.896873 39.6ZM40.6625 35.959373Q40.6625 37.865623 40.00625 38.803123Q39.365623 39.725 37.975 39.725Q36.615623 39.725 35.959373 38.81875Q35.303123 37.9125 35.271873 36.1L35.271873 34.6625Q35.271873 32.771873 35.9125 31.865623Q36.56875 30.943748 37.959373 30.943748Q39.334373 30.943748 39.990623 31.834373Q40.646873 32.709373 40.6625 34.553123L40.6625 35.959373ZM39.56875 34.475Q39.56875 33.1 39.178123 32.475Q38.803123 31.834373 37.959373 31.834373Q37.13125 31.834373 36.740623 32.475Q36.365623 33.1 36.365623 34.396873L36.365623 36.13125Q36.365623 37.50625 36.75625 38.178123Q37.1625 38.834373 37.975 38.834373Q38.771873 38.834373 39.1625 38.209373Q39.553123 37.584373 39.56875 36.25625L39.56875 34.475ZM47.6625 35.959373Q47.6625 37.865623 47.00625 38.803123Q46.365623 39.725 44.975 39.725Q43.615623 39.725 42.959373 38.81875Q42.303123 37.9125 42.271873 36.1L42.271873 34.6625Q42.271873 32.771873 42.9125 31.865623Q43.56875 30.943748 44.959373 30.943748Q46.334373 30.943748 46.990623 31.834373Q47.646873 32.709373 47.6625 34.553123L47.6625 35.959373ZM46.56875 34.475Q46.56875 33.1 46.178123 32.475Q45.803123 31.834373 44.959373 31.834373Q44.13125 31.834373 43.740623 32.475Q43.365623 33.1 43.365623 34.396873L43.365623 36.13125Q43.365623 37.50625 43.75625 38.178123Q44.1625 38.834373 44.975 38.834373Q45.771873 38.834373 46.1625 38.209373Q46.553123 37.584373 46.56875 36.25625L46.56875 34.475ZM49.209373 32.709373Q49.209373 31.943748 49.69375 31.443748Q50.19375 30.943748 50.959373 30.943748Q51.740623 30.943748 52.225 31.443748Q52.709373 31.943748 52.709373 32.740623L52.709373 33.1625Q52.709373 33.928123 52.209373 34.428123Q51.725 34.9125 50.975 34.9125Q50.209373 34.9125 49.709373 34.428123Q49.209373 33.928123 49.209373 33.115623L49.209373 32.709373ZM50.021873 33.1625Q50.021873 33.615623 50.271873 33.9125Q50.5375 34.209373 50.975 34.209373Q51.396873 34.209373 51.646873 33.928123Q51.896873 33.63125 51.896873 33.13125L51.896873 32.709373Q51.896873 32.25625 51.646873 31.959373Q51.396873 31.646873 50.959373 31.646873Q50.521873 31.646873 50.271873 31.959373Q50.021873 32.25625 50.021873 32.725L50.021873 33.1625ZM53.365623 37.50625Q53.365623 36.740623 53.85 36.25625Q54.35 35.75625 55.115623 35.75625Q55.88125 35.75625 56.365623 36.25625Q56.865623 36.740623 56.865623 37.553123L56.865623 37.959373Q56.865623 38.725 56.38125 39.225Q55.896873 39.725 55.13125 39.725Q54.365623 39.725 53.865623 39.240623Q53.365623 38.740623 53.365623 37.928123L53.365623 37.50625ZM54.178123 37.959373Q54.178123 38.428123 54.428123 38.725Q54.69375 39.021873 55.13125 39.021873Q55.553123 39.021873 55.803123 38.740623Q56.053123 38.44375 56.053123 37.94375L56.053123 37.50625Q56.053123 37.0375 55.7875 36.75625Q55.5375 36.459373 55.115623 36.459373Q54.69375 36.459373 54.428123 36.75625Q54.178123 37.0375 54.178123 37.5375L54.178123 37.959373ZM51.225 38.959373L50.6 38.56875L54.771873 31.896873L55.38125 32.2875L51.225 38.959373Z" fill-rule="nonzero"/><path fill="#757575" d="M102.289474 459.29092L100.86421 460.7162L103.30594 463.15793L102.510445 463.9534L96.47794 457.9209L98.47773 455.9211Q99.494194 454.90466 100.49961 454.8273Q101.516075 454.73892 102.39996 455.6228Q102.96343 456.18628 103.07392 456.9155Q103.19546 457.63364 102.864 458.38495L106.83043 459.52295L106.885666 459.5782L106.03493 460.42892L102.289474 459.29092ZM100.21235 460.06433L101.438736 458.83792Q102.035355 458.2413 102.07955 457.6005Q102.12375 456.9376 101.60446 456.4183Q101.05204 455.86588 100.42227 455.89902Q99.7925 455.93216 99.15169 456.55087L97.9253 457.77728L100.21235 460.06433ZM106.86357 455.7996L107.7806 456.47354L107.22817 455.58966L104.21192 450.18692L104.88588 449.51297L110.25548 452.56235L111.150406 453.12582L110.46539 452.17566L107.28342 447.11542L108.07891 446.31995L112.65301 453.81085L111.923805 454.54004L106.278 451.3912L105.72557 451.01556L106.09017 451.57904L109.205864 457.258L108.47666 457.98718L100.98575 453.4131L101.78124 452.6176L106.86357 455.7996ZM116.72992 445.3587Q117.75744 446.38623 117.91212 447.4911Q118.066795 448.57382 117.2713 449.36932Q116.42056 450.22006 115.348854 450.07645L115.82394 450.63992L115.127884 451.33597L108.76392 444.97202L109.52627 444.20966L111.90171 446.5851Q111.79122 445.54654 112.60881 444.72894Q113.42641 443.91135 114.50916 444.06604Q115.58087 444.20966 116.66363 445.29242L116.72992 445.3587ZM115.87918 446.03268Q115.094734 445.24823 114.36553 445.13773Q113.63633 445.00516 113.07285 445.56863Q112.3105 446.331 112.6751 447.3585L114.61965 449.30304Q115.680305 449.6566 116.42056 448.91635Q116.97299 448.36392 116.851456 447.62366Q116.72992 446.88342 115.87918 446.03268ZM123.94462 442.51923L119.98924 446.4746L119.43681 445.92218L119.204796 441.51382Q119.138504 440.51944 118.99487 440.02228Q118.840195 439.51404 118.48664 439.1605Q118.01155 438.6854 117.42598 438.67435Q116.84041 438.6412 116.35427 439.12732Q115.790794 439.6908 115.80184 440.34268Q115.80184 440.9835 116.38741 441.56906L115.62507 442.33142Q114.78538 441.49173 114.80747 440.45316Q114.829575 439.3925 115.7245 438.49756Q116.57524 437.64682 117.50332 437.60263Q118.4314 437.55844 119.171646 438.2987Q120.055534 439.1826 120.15497 441.558L120.28755 444.91678L123.31485 441.88947L123.94462 442.51923Z" fill-rule="nonzero"/><path fill="#757575" d="M116.92218 522.22345L115.49692 523.6487L117.938644 526.09045L117.14315 526.8859L111.11065 520.8534L113.110435 518.85364Q114.1269 517.83716 115.13232 517.7598Q116.14878 517.67145 117.03266 518.5553Q117.59614 519.1188 117.70663 519.848Q117.82816 520.56616 117.496704 521.31744L121.46313 522.45544L121.51837 522.5107L120.66764 523.36145L116.92218 522.22345ZM114.845055 522.9968L116.07144 521.77045Q116.66807 521.1738 116.71226 520.533Q116.756454 519.8701 116.237175 519.3508Q115.684746 518.7984 115.05498 518.83154Q114.42521 518.8647 113.78439 519.4834L112.55801 520.7098L114.845055 522.9968ZM121.49628 518.7321L122.4133 519.40607L121.86088 518.52216L118.84462 513.11945L119.518585 512.4455L124.888176 515.4949L125.78311 516.05835L125.0981 515.10815L121.916115 510.04794L122.71162 509.25244L127.28571 516.74335L126.5565 517.4726L120.9107 514.3237L120.35828 513.94806L120.72288 514.51154L123.83856 520.1905L123.10936 520.91974L115.61845 516.34564L116.41394 515.5501L121.49628 518.7321ZM131.36263 508.29123Q132.39014 509.31873 132.54482 510.42358Q132.6995 511.50635 131.904 512.3018Q131.05327 513.1526 129.98155 513.009L130.45665 513.57245L129.76059 514.2685L123.39662 507.90454L124.15897 507.14218L126.53441 509.5176Q126.42393 508.47906 127.241516 507.66147Q128.05911 506.84387 129.14186 506.99854Q130.21358 507.14218 131.29633 508.22495L131.36263 508.29123ZM130.51189 508.96518Q129.72743 508.18076 128.99823 508.07025Q128.26903 507.93768 127.70555 508.50116Q126.94321 509.2635 127.30781 510.29102L129.25235 512.23553Q130.31302 512.5891 131.05327 511.84885Q131.6057 511.29642 131.48416 510.55618Q131.36263 509.81592 130.51189 508.96518ZM138.57732 505.45175L134.62195 509.40714L134.06952 508.8547L133.8375 504.44632Q133.77121 503.45197 133.62758 502.95477Q133.4729 502.44653 133.11934 502.093Q132.64426 501.61792 132.05869 501.60684Q131.47311 501.5737 130.98697 502.05984Q130.4235 502.62332 130.43454 503.27518Q130.43454 503.91602 131.02011 504.5016L130.25777 505.26392Q129.41808 504.42422 129.44017 503.38568Q129.46228 502.325 130.35721 501.43008Q131.20795 500.57935 132.13602 500.53516Q133.0641 500.49097 133.80435 501.2312Q134.68823 502.11508 134.78767 504.49054L134.92026 507.84927L137.94756 504.822L138.57732 505.45175ZM140.73178 496.82285L142.42221 495.13242L143.15141 495.8616L141.461 497.55203L143.36134 499.4524L142.599 500.21475L140.69864 498.3144L139.00821 500.00482L138.279 499.2756L139.96944 497.58517L138.21272 495.82846L138.97507 495.06613L140.73178 496.82285ZM150.71967 490.1495L148.18956 492.67963L149.20602 494.82306L148.38843 495.64066L144.65402 487.31003L145.35008 486.61398L153.69173 490.33734L152.87413 491.15494L150.71967 490.1495ZM147.78076 491.7847L149.83578 489.72968L145.99089 487.93982L147.78076 491.7847ZM152.0455 487.43158Q151.00693 486.393 150.87434 485.28815Q150.73071 484.17224 151.52621 483.37677Q152.31065 482.59232 153.30502 482.6586L150.97379 480.32736L151.73613 479.565L158.1001 485.929L157.39299 486.63608L156.8737 486.1831Q156.98419 487.22165 156.1666 488.03925Q155.3932 488.81265 154.2552 488.669Q153.12825 488.51434 152.10074 487.48682L152.0455 487.43158ZM152.89624 486.75763Q153.65858 487.51996 154.39883 487.6415Q155.15013 487.75198 155.70256 487.19955Q156.43176 486.47037 156.11136 485.46494L154.05634 483.4099Q153.08406 483.12265 152.3659 483.8408Q151.80243 484.40427 151.91292 485.15558Q152.03445 485.89584 152.89624 486.75763ZM156.99524 482.48184Q155.95668 481.44327 155.8241 480.3384Q155.68047 479.2225 156.47597 478.427Q157.2604 477.64258 158.25478 477.70886L155.92354 475.37762L156.68588 474.61526L163.04985 480.97922L162.34274 481.68634L161.82346 481.23334Q161.93394 482.2719 161.11635 483.0895Q160.34296 483.86288 159.20496 483.71927Q158.078 483.56458 157.05049 482.53708L156.99524 482.48184ZM157.84598 481.80786Q158.60834 482.57022 159.34859 482.69174Q160.09988 482.80225 160.65231 482.24982Q161.38152 481.5206 161.06111 480.5152L159.00607 478.46014Q158.03381 478.17288 157.31566 478.89105Q156.75218 479.45453 156.86266 480.20584Q156.98419 480.94608 157.84598 481.80786ZM163.92268 476.3057L164.8397 476.97964L164.28728 476.09576L161.27103 470.69302L161.94499 470.01907L167.31459 473.06848L168.20952 473.63196L167.5245 472.68176L164.34253 467.62155L165.13802 466.82605L169.71211 474.31696L168.98291 475.04617L163.33711 471.89734L162.78468 471.52167L163.14928 472.08514L166.26497 477.7641L165.53577 478.49332L158.04486 473.91922L158.84035 473.12372L163.92268 476.3057ZM173.01562 471.01343L172.25328 471.7758L167.76758 467.29007L168.52992 466.52774L173.01562 471.01343ZM166.51909 466.17416Q166.33127 465.98636 166.30916 465.7433Q166.29811 465.48917 166.51909 465.2682Q166.74007 465.04724 166.98312 465.06934Q167.23724 465.08038 167.42506 465.2682Q167.60185 465.44498 167.6129 465.6991Q167.62395 465.93112 167.40297 466.15207Q167.182 466.37305 166.93893 466.37305Q166.69586 466.35095 166.51909 466.17416ZM169.77841 463.11374L170.86116 464.1965L171.6898 463.36786L172.28642 463.96448L171.4578 464.79312L174.23097 467.56628Q174.50719 467.8425 174.75026 467.8646Q174.99332 467.8867 175.25848 467.62155Q175.39107 467.48895 175.57889 467.21274L176.19762 467.83145Q175.98769 468.21817 175.70042 468.50543Q175.1922 469.01364 174.61768 468.96945Q174.0321 468.9142 173.45758 468.3397L170.68439 465.5665L169.86679 466.3841L169.27017 465.78748L170.08777 464.96988L169.005 463.88712L169.77841 463.11374ZM173.95476 462.18567Q173.84427 461.05872 174.66187 460.24112Q176.08713 458.81586 177.70021 460.40683L180.66122 463.36786L179.88783 464.14124L176.91577 461.1692Q176.44067 460.6941 175.98769 460.68304Q175.54575 460.66095 175.08171 461.125Q174.70605 461.50064 174.61768 461.9868Q174.54033 462.46185 174.70605 462.93695L177.8991 466.12997L177.13673 466.89233L170.77278 460.52838L171.53513 459.76602L173.95476 462.18567ZM184.72708 455.4792Q185.56677 456.53986 185.50049 457.6668Q185.42314 458.7827 184.43982 459.76602Q183.36812 460.83774 181.96495 460.7162Q180.55074 460.58362 179.25806 459.29092L178.68353 458.7164Q177.84384 457.8767 177.50134 456.9376Q177.15883 455.99847 177.36876 455.10355Q177.57867 454.20862 178.29683 453.49045Q179.25806 452.52924 180.37396 452.4961Q181.50092 452.45187 182.53947 453.29156L181.74399 454.08707Q180.91534 453.4794 180.25243 453.5015Q179.58951 453.5236 178.95975 454.15335Q178.1974 454.9157 178.32999 455.9101Q178.46257 456.90445 179.50113 457.94302L180.0867 458.5286Q181.07002 459.5119 182.06439 459.6887Q183.04771 459.8544 183.78796 459.11417Q184.45087 458.45123 184.50612 457.79938Q184.55031 457.13647 183.9316 456.2747L184.72708 455.4792ZM190.50548 453.5236Q190.3066 453.4573 189.9199 453.159Q189.95305 454.2528 189.2128 454.99304Q188.54988 455.65598 187.74335 455.7112Q186.94785 455.7554 186.36227 455.16983Q185.66621 454.4738 185.80984 453.55673Q185.95348 452.6397 186.92575 451.66745L187.666 450.9272L187.31245 450.57364Q186.9147 450.17587 186.4396 450.18695Q185.96452 450.17587 185.48944 450.65097Q185.08064 451.05978 185.01434 451.5459Q184.93701 452.021 185.23532 452.3193L184.46193 453.0927Q184.11942 452.75018 184.04208 452.20883Q183.97578 451.6564 184.20781 451.07083Q184.42877 450.4742 184.91492 449.98807Q185.69936 449.2036 186.51695 449.15942Q187.3456 449.1042 188.04166 449.75604L190.10773 451.8221Q190.72644 452.44083 191.24573 452.65076L191.31203 452.71704L190.50548 453.5236ZM188.64932 454.20862Q189.01392 453.844 189.1465 453.3358Q189.27908 452.82755 189.1244 452.3856L188.20738 451.46857L187.61076 452.0652Q186.19655 453.4794 187.02519 454.30804Q187.37874 454.6616 187.83173 454.62845Q188.27367 454.58426 188.64932 454.20862ZM191.0579 445.36978Q190.85902 445.52444 190.66016 445.72333Q189.89781 446.4857 190.27345 447.39166L193.45544 450.57364L192.69308 451.336L188.20738 446.85028L188.94763 446.11002L189.47797 446.61826Q189.25699 445.646 189.95305 444.94992Q190.17403 444.72894 190.3508 444.66266L191.0579 445.36978ZM193.88634 442.54135Q193.68745 442.696 193.48859 442.8949Q192.72623 443.65726 193.10188 444.56323L196.28386 447.7452L195.52151 448.50757L191.03581 444.02185L191.77606 443.2816L192.30638 443.78983Q192.08542 442.81757 192.78148 442.1215Q193.00244 441.90054 193.17923 441.83423L193.88634 442.54135ZM198.6814 443.09378L196.37225 438.6854L197.18985 437.8678L200.5707 444.8505Q201.26675 446.38623 200.36078 447.2922L200.19505 447.43585L199.86359 447.65683L199.24487 447.0381L199.4548 446.85028Q199.85254 446.4525 199.90779 446.08792Q199.97408 445.71228 199.69786 445.1488L199.39955 444.51904L193.36705 441.6906L194.20674 440.85092L198.6814 443.09378Z" fill-rule="nonzero"/><path fill="#757575" d="M227.72142 488.9894L226.29616 490.41467L228.73788 492.8564L227.9424 493.6519L221.90988 487.6194L223.90967 485.6196Q224.92615 484.60315 225.93156 484.5258Q226.94803 484.4374 227.83191 485.3213Q228.39539 485.88477 228.50587 486.61398Q228.6274 487.33212 228.29594 488.08344L232.26237 489.22144L232.31761 489.27667L231.46687 490.1274L227.72142 488.9894ZM225.6443 489.76282L226.87068 488.5364Q227.4673 487.9398 227.5115 487.29898Q227.5557 486.63608 227.0364 486.1168Q226.48398 485.56436 225.85422 485.5975Q225.22446 485.63065 224.58363 486.24936L223.35725 487.47577L225.6443 489.76282ZM232.2955 485.49808L233.21254 486.17203L232.66011 485.28815L229.64386 479.8854L230.31783 479.21146L235.68741 482.26086L236.58234 482.82434L235.89734 481.87415L232.71535 476.81393L233.51085 476.01843L238.08495 483.50934L237.35574 484.23856L231.70993 481.08972L231.1575 480.71405L231.52211 481.27753L234.6378 486.95648L233.9086 487.68567L226.4177 483.11157L227.2132 482.3161L232.2955 485.49808ZM242.16187 475.05722Q243.18938 476.08472 243.34406 477.18958Q243.49873 478.27234 242.70323 479.06784Q241.8525 479.91858 240.78079 479.77493L241.25587 480.3384L240.55981 481.0345L234.19586 474.6705L234.9582 473.90817L237.33365 476.2836Q237.22316 475.24503 238.04076 474.42743Q238.85834 473.60986 239.9411 473.76453Q241.0128 473.90817 242.09557 474.9909L242.16187 475.05722ZM241.31113 475.73117Q240.52667 474.94672 239.79747 474.83624Q239.06827 474.70364 238.50479 475.26712Q237.74245 476.02948 238.10704 477.057L240.05159 479.00153Q241.11224 479.3551 241.8525 478.61484Q242.40492 478.0624 242.28339 477.32217Q242.16187 476.5819 241.31113 475.73117ZM249.37656 472.21774L245.42117 476.17313L244.86874 475.6207L244.63673 471.2123Q244.57043 470.21796 244.4268 469.72076Q244.27213 469.21252 243.91858 468.85898Q243.44348 468.38388 242.85791 468.37283Q242.27234 468.3397 241.78621 468.82584Q241.22273 469.3893 241.23378 470.04117Q241.23378 470.68198 241.81935 471.26755L241.057 472.0299Q240.21732 471.19022 240.23941 470.15164Q240.2615 469.091 241.15643 468.19608Q242.00717 467.34534 242.93526 467.30112Q243.86333 467.25693 244.60359 467.9972Q245.48747 468.88107 245.58691 471.2565L245.71948 474.61526L248.7468 471.58795L249.37656 472.21774ZM251.53102 463.5888L253.22145 461.8984L253.95065 462.6276L252.26022 464.31802L254.16058 466.21838L253.39822 466.9807L251.49788 465.08038L249.80745 466.7708L249.07825 466.0416L250.76868 464.35117L249.01195 462.59445L249.7743 461.8321L251.53102 463.5888ZM254.7572 454.7721L261.6515 457.711L258.70154 450.82776L259.74008 449.78918L265.77258 455.8217L264.9771 456.6172L262.62375 454.26385L260.171 451.6564L263.0657 458.5286L262.45804 459.13626L255.60794 456.24155L258.20435 458.68326L260.55768 461.03662L259.76218 461.8321L253.72969 455.7996L254.7572 454.7721ZM264.2258 452.7944Q263.57394 452.14252 263.29773 451.3581Q263.03256 450.5626 263.22037 449.82233Q263.39716 449.07104 263.98273 448.48547Q264.89975 447.56842 266.09302 447.63474Q267.2973 447.68997 268.35794 448.75064L268.4132 448.80588Q269.06506 449.45773 269.33023 450.23114Q269.5954 451.00452 269.42966 451.76688Q269.2529 452.5182 268.6452 453.12585Q267.73923 454.03183 266.53494 453.9766Q265.33066 453.89926 264.28104 452.84964L264.2258 452.7944ZM265.09863 452.12042Q265.8389 452.8607 266.63437 452.97116Q267.44092 453.07062 268.01544 452.4961Q268.601 451.91052 268.49054 451.11502Q268.369 450.30847 267.54037 449.47983Q266.81116 448.75064 266.0046 448.65118Q265.19806 448.52966 264.6125 449.11523Q264.049 449.6787 264.14847 450.48526Q264.2479 451.26968 265.09863 452.12042ZM272.10342 447.41376L269.77216 442.8507L270.5566 442.06625L273.42923 448.16504L272.84366 448.75064L266.73383 445.88907L267.51828 445.1046L272.10342 447.41376ZM277.8597 443.91138Q276.9427 444.8284 275.7715 444.8063Q274.60037 444.76212 273.59497 443.75668L273.46237 443.6241Q272.78842 442.95013 272.52325 442.17676Q272.24704 441.3923 272.41278 440.65204Q272.5785 439.8897 273.10883 439.35938Q273.98166 438.48654 275.04233 438.57492Q276.103 438.6633 277.17468 439.73502L277.4951 440.05542L274.45676 443.09378Q275.14175 443.7346 275.91516 443.77878Q276.69962 443.81192 277.27414 443.2374Q277.67188 442.83966 277.78235 442.3977Q277.9039 441.94473 277.84866 441.44754L278.6773 441.3481Q278.98666 442.78442 277.8597 443.91138ZM273.7386 439.98914Q273.27457 440.45316 273.29666 441.1161Q273.31876 441.7569 273.86014 442.43085L276.103 440.18802L276.04773 440.13275Q275.42902 439.58032 274.82135 439.54718Q274.22473 439.503 273.7386 439.98914Z" fill-rule="nonzero"/><path fill="#757575" d="M277.00235 517.2737L275.5771 518.699L278.01883 521.1407L277.22333 521.93616L271.19083 515.9037L273.1906 513.9039Q274.20706 512.88745 275.2125 512.81006Q276.22897 512.7217 277.11285 513.6056Q277.67633 514.16907 277.7868 514.89825Q277.90833 515.6164 277.57687 516.36774L281.5433 517.50574L281.59854 517.561L280.7478 518.4117L277.00235 517.2737ZM274.92523 518.0471L276.1516 516.8207Q276.74823 516.22406 276.79242 515.58325Q276.83664 514.92035 276.31735 514.40106Q275.76492 513.84863 275.13516 513.8818Q274.50537 513.9149 273.86456 514.5336L272.63818 515.7601L274.92523 518.0471ZM281.57645 513.78235L282.49347 514.4563L281.94107 513.57245L278.9248 508.1697L279.59875 507.49573L284.96835 510.54514L285.86328 511.1086L285.17828 510.15842L281.9963 505.0982L282.79178 504.3027L287.3659 511.7936L286.6367 512.5228L280.99088 509.374L280.43845 508.99832L280.80307 509.5618L283.91873 515.2408L283.18954 515.97L275.69864 511.39587L276.4941 510.60037L281.57645 513.78235ZM291.4428 503.3415Q292.4703 504.369 292.625 505.47385Q292.77966 506.5566 291.9842 507.3521Q291.13345 508.20285 290.06174 508.0592L290.53683 508.62268L289.84076 509.31876L283.4768 502.95477L284.23917 502.19244L286.6146 504.56787Q286.5041 503.5293 287.3217 502.7117Q288.13928 501.89413 289.22205 502.0488Q290.29376 502.19244 291.37653 503.27518L291.4428 503.3415ZM290.59207 504.01544Q289.80762 503.231 289.0784 503.1205Q288.3492 502.9879 287.78574 503.5514Q287.02338 504.31375 287.388 505.34128L289.33252 507.2858Q290.3932 507.63937 291.13345 506.8991Q291.68588 506.34668 291.56433 505.60645Q291.4428 504.86618 290.59207 504.01544ZM298.6575 500.502L294.70212 504.4574L294.1497 503.90497L293.91766 499.49658Q293.85138 498.50223 293.70776 498.00504Q293.55307 497.4968 293.19952 497.14325Q292.72443 496.66815 292.13885 496.6571Q291.55328 496.62396 291.06714 497.1101Q290.50366 497.67358 290.51474 498.32544Q290.51474 498.96625 291.1003 499.55182L290.33795 500.31418Q289.49826 499.4745 289.52036 498.4359Q289.54245 497.37527 290.43738 496.48035Q291.28812 495.6296 292.2162 495.5854Q293.1443 495.5412 293.88452 496.28146Q294.7684 497.16534 294.86786 499.54077L295.00043 502.89954L298.02774 499.87222L298.6575 500.502ZM300.81198 491.87308L302.50238 490.18268L303.2316 490.91187L301.54117 492.6023L303.44153 494.50266L302.67917 495.26498L300.7788 493.36465L299.0884 495.05508L298.3592 494.32587L300.04962 492.63544L298.2929 490.87872L299.05524 490.11636L300.81198 491.87308ZM309.04312 490.11636L303.01062 484.08386L304.9883 482.10617Q305.97165 481.12286 306.86658 481.04553Q307.7615 480.94608 308.557 481.74158Q308.98788 482.1725 309.07626 482.747Q309.16467 483.2994 308.9216 483.89606Q309.55136 483.53143 310.21426 483.64194Q310.8772 483.73032 311.40753 484.26065Q312.22513 485.07825 312.1588 486.0726Q312.10358 487.05594 311.14236 488.01715L309.04312 490.11636ZM307.02124 486.5035L309.18677 488.669L310.50153 487.35425Q311.065 486.79077 311.09818 486.1831Q311.13132 485.5754 310.62308 485.0672Q309.5403 483.98444 308.34708 485.17767L307.02124 486.5035ZM306.38043 485.86267L307.58472 484.6584Q308.104 484.1391 308.15924 483.57562Q308.21448 482.99005 307.7615 482.53708Q307.2643 482.0399 306.75607 482.10617Q306.23682 482.1614 305.64017 482.75806L304.45798 483.94025L306.38043 485.86267ZM312.24722 479.3109Q312.04834 479.46558 311.84946 479.66446Q311.08713 480.4268 311.46277 481.3328L314.64474 484.51477L313.8824 485.2771L309.3967 480.7914L310.13693 480.05115L310.66727 480.5594Q310.4463 479.5871 311.14236 478.89105Q311.36334 478.67007 311.5401 478.6038L312.24722 479.3109ZM319.47296 479.68655Q319.27408 479.62027 318.8874 479.32196Q318.92053 480.41574 318.18027 481.156Q317.51736 481.8189 316.71082 481.87415Q315.9153 481.91837 315.32974 481.3328Q314.6337 480.63672 314.7773 479.7197Q314.92096 478.80267 315.89322 477.83038L316.63348 477.09015L316.27994 476.7366Q315.88217 476.33884 315.4071 476.34988Q314.932 476.33884 314.4569 476.81393Q314.04813 477.22272 313.98184 477.70886Q313.90448 478.18396 314.2028 478.48227L313.4294 479.25565Q313.0869 478.91315 313.00955 478.37177Q312.94327 477.81934 313.1753 477.23376Q313.39627 476.63715 313.8824 476.151Q314.66684 475.36658 315.48444 475.3224Q316.31308 475.26712 317.00912 475.919L319.0752 477.98508Q319.69394 478.6038 320.2132 478.81372L320.2795 478.88L319.47296 479.68655ZM317.6168 480.37155Q317.9814 480.00696 318.11398 479.49872Q318.24658 478.99048 318.0919 478.54855L317.17487 477.63153L316.57825 478.22815Q315.16403 479.64236 315.99268 480.471Q316.34622 480.82455 316.79922 480.7914Q317.24115 480.74722 317.6168 480.37155ZM317.893 472.29507L318.47858 472.83646Q318.35706 471.67636 319.1857 470.84772Q320.61096 469.42245 322.22406 471.01343L325.18506 473.97446L324.41165 474.74786L321.4396 471.7758Q320.9645 471.3007 320.51154 471.28964Q320.06958 471.26755 319.60553 471.7316Q319.2299 472.10724 319.1415 472.59338Q319.06415 473.06848 319.2299 473.54355L322.4229 476.7366L321.66058 477.49893L317.17487 473.0132L317.893 472.29507ZM327.8588 470.21796Q328.2676 469.80914 328.3339 469.2567Q328.38913 468.69324 328.04663 468.28445L328.77582 467.55524Q329.14044 467.96405 329.23987 468.57172Q329.3393 469.1573 329.14044 469.776Q328.9526 470.38367 328.48856 470.84772Q327.57153 471.76474 326.4225 471.69846Q325.27344 471.61008 324.21277 470.5494L324.0802 470.4168Q323.42834 469.76495 323.15213 469.02472Q322.88696 468.2734 323.05267 467.55524Q323.2184 466.815 323.83713 466.1963Q324.58844 465.44498 325.5386 465.4008Q326.48877 465.3345 327.25113 466.03055L326.52194 466.75977Q326.04684 466.35095 325.47232 466.37305Q324.8978 466.39514 324.4669 466.82605Q323.88132 467.41162 323.98077 468.15186Q324.0802 468.89212 324.8757 469.68762L325.01932 469.83124Q325.79272 470.60464 326.533 470.70407Q327.27322 470.80353 327.8588 470.21796ZM327.671 463.59988Q327.5605 462.47293 328.37808 461.65533Q329.80334 460.23007 331.41644 461.82104L334.37744 464.78207L333.60403 465.55545L330.632 462.5834Q330.1569 462.1083 329.70392 462.09726Q329.26196 462.07516 328.79794 462.5392Q328.42227 462.91486 328.3339 463.401Q328.25656 463.87607 328.42227 464.35117L331.6153 467.5442L330.85297 468.30655L324.48898 461.9426L325.25134 461.18024L327.671 463.59988ZM336.77496 462.38452L335.9795 463.18002L329.947 457.14752L330.74246 456.35202L336.77496 462.38452ZM338.29968 460.85983L334.41058 456.97073L333.7035 457.67786L333.10687 457.08124L333.81396 456.3741L333.36096 455.92114Q332.63177 455.19193 332.62073 454.42957Q332.60968 453.64514 333.31677 452.93802Q333.58194 452.67285 333.9134 452.474L334.49896 453.14795Q334.25592 453.3026 334.046 453.51254Q333.67035 453.8882 333.6814 454.3191Q333.7035 454.73895 334.10123 455.1367L334.57632 455.6118L335.53754 454.65054L336.13416 455.24716L335.17294 456.2084L339.062 460.09747L338.29968 460.85983ZM340.8077 457.0481L344.2659 453.58987L344.91776 454.24176L340.52045 458.63907L339.9238 458.04245L338.45435 449.94388L335.19504 453.2032L334.54318 452.55133L338.75266 448.34183L339.33823 448.9274L340.8077 457.0481ZM347.64673 451.68954Q346.7297 452.60657 345.55856 452.58447Q344.38742 452.54028 343.38202 451.53485L343.24942 451.40228Q342.57547 450.7283 342.3103 449.95493Q342.0341 449.17047 342.1998 448.4302Q342.36554 447.66788 342.89587 447.13754Q343.7687 446.2647 344.82938 446.3531Q345.89 446.44147 346.96173 447.51318L347.28214 447.8336L344.2438 450.87195Q344.9288 451.51276 345.7022 451.55695Q346.48663 451.5901 347.06116 451.01556Q347.45892 450.61783 347.5694 450.1759Q347.69095 449.7229 347.63568 449.2257L348.46432 449.12628Q348.77368 450.5626 347.64673 451.68954ZM343.52563 447.7673Q343.06158 448.23135 343.0837 448.89426Q343.1058 449.53506 343.6472 450.20905L345.89 447.9662L345.83478 447.91095Q345.21606 447.35852 344.6084 447.32538Q344.01178 447.28116 343.52563 447.7673ZM348.30966 443.24844Q348.11078 443.40314 347.9119 443.60202Q347.14957 444.36435 347.5252 445.27032L350.70718 448.45233L349.94485 449.21466L345.45914 444.72894L346.19937 443.9887L346.7297 444.49695Q346.50876 443.52466 347.2048 442.8286Q347.42578 442.60764 347.60254 442.54135L348.30966 443.24844ZM350.2763 444.3091Q349.62442 443.65726 349.3482 442.8728Q349.08307 442.0773 349.27087 441.33707Q349.44766 440.58575 350.03323 440.00018Q350.95026 439.08316 352.1435 439.14944Q353.34778 439.20468 354.40845 440.26535L354.46368 440.3206Q355.11557 440.97244 355.38074 441.74585Q355.64587 442.51926 355.48016 443.2816Q355.30338 444.0329 354.6957 444.64056Q353.78973 445.54654 352.58545 445.4913Q351.38116 445.41397 350.33154 444.36435L350.2763 444.3091ZM351.14914 443.63516Q351.88937 444.3754 352.68488 444.4859Q353.49142 444.58533 354.06595 444.0108Q354.65152 443.42523 354.54105 442.62973Q354.4195 441.82318 353.59085 440.99454Q352.86166 440.26535 352.0551 440.1659Q351.24857 440.04437 350.663 440.62994Q350.09952 441.19342 350.19894 441.99997Q350.2984 442.78442 351.14914 443.63516Z" fill-rule="nonzero"/><path fill="#757575" d="M384.97318 486.8681L383.5479 488.29337L385.98962 490.7351L385.19412 491.53058L379.16162 485.49808L381.1614 483.4983Q382.1779 482.48184 383.1833 482.40448Q384.19977 482.3161 385.08365 483.19998Q385.64713 483.76346 385.7576 484.49268Q385.87915 485.21082 385.5477 485.96213L389.51413 487.10013L389.56937 487.15536L388.71863 488.0061L384.97318 486.8681ZM382.89603 487.6415L384.12244 486.4151Q384.71906 485.81848 384.76324 485.17767Q384.80743 484.51477 384.28815 483.99548Q383.73572 483.44305 383.10596 483.4762Q382.4762 483.50934 381.8354 484.12805L380.60898 485.35446L382.89603 487.6415ZM389.54727 483.37677L390.4643 484.05072L389.91187 483.16684L386.8956 477.7641L387.56958 477.09015L392.93918 480.13953L393.8341 480.703L393.14908 479.75284L389.9671 474.6926L390.7626 473.89713L395.3367 481.38803L394.60748 482.11722L388.9617 478.96838L388.40927 478.59274L388.77386 479.15622L391.88956 484.83517L391.16034 485.56436L383.66943 480.99026L384.46494 480.1948L389.54727 483.37677ZM399.4136 472.93588Q400.44113 473.9634 400.5958 475.06827Q400.7505 476.151 399.955 476.9465Q399.10425 477.79724 398.03253 477.65363L398.50763 478.2171L397.81158 478.91315L391.4476 472.5492L392.20996 471.78683L394.5854 474.1623Q394.4749 473.12372 395.2925 472.30612Q396.1101 471.48853 397.19284 471.64322Q398.26456 471.78683 399.34732 472.8696L399.4136 472.93588ZM398.56287 473.60986Q397.7784 472.8254 397.04922 472.7149Q396.32 472.58234 395.75653 473.1458Q394.9942 473.90817 395.3588 474.93567L397.30334 476.88022Q398.364 477.23376 399.10425 476.49353Q399.65668 475.9411 399.53516 475.20084Q399.4136 474.4606 398.56287 473.60986ZM406.6283 470.0964L402.67294 474.0518L402.1205 473.49936L401.8885 469.091Q401.8222 468.09662 401.67856 467.59946Q401.5239 467.09122 401.17032 466.73767Q400.69525 466.26257 400.10968 466.25153Q399.5241 466.21838 399.03796 466.7045Q398.4745 467.26797 398.48553 467.91986Q398.48553 468.56067 399.0711 469.14624L398.30875 469.9086Q397.46906 469.0689 397.49115 468.03033Q397.51328 466.96967 398.4082 466.07474Q399.25894 465.224 400.187 465.1798Q401.11508 465.13562 401.85535 465.8759Q402.73923 466.75977 402.83865 469.1352L402.97125 472.49396L405.99854 469.46664L406.6283 470.0964ZM408.78278 461.4675L410.4732 459.77707L411.2024 460.5063L409.512 462.19672L411.41232 464.09705L410.65 464.8594L408.74963 462.95905L407.0592 464.64948L406.33 463.9203L408.02042 462.22986L406.2637 460.47314L407.02606 459.7108L408.78278 461.4675ZM415.44504 456.5509L417.80945 458.91528L417.01395 459.7108L410.98145 453.67828L413.21326 451.44647Q414.19656 450.46317 415.26828 450.4079Q416.32892 450.3416 417.1686 451.1813Q418.04144 452.05414 417.9641 453.08167Q417.89783 454.0981 416.8703 455.12564L415.44504 456.5509ZM414.79318 455.89905L416.2295 454.46274Q416.8703 453.8219 416.90344 453.19214Q416.94766 452.55133 416.3842 451.98785Q415.8428 451.44647 415.17987 451.46857Q414.51697 451.46857 413.9093 452.05414L412.4288 453.53464L414.79318 455.89905ZM424.50485 452.39664Q423.58783 453.3137 422.4167 453.29156Q421.24554 453.24738 420.2401 452.24197L420.10754 452.10938Q419.43356 451.43542 419.1684 450.66202Q418.89218 449.8776 419.05792 449.13733Q419.22366 448.37497 419.75397 447.84464Q420.6268 446.9718 421.68747 447.0602Q422.74814 447.1486 423.81985 448.2203L424.14026 448.5407L421.1019 451.57904Q421.78693 452.21988 422.5603 452.26407Q423.34476 452.2972 423.91928 451.7227Q424.31702 451.32495 424.42752 450.883Q424.54904 450.43 424.4938 449.93283L425.32245 449.83337Q425.6318 451.26968 424.50485 452.39664ZM420.38376 448.47443Q419.9197 448.93845 419.9418 449.60138Q419.9639 450.2422 420.50528 450.91614L422.74814 448.67328L422.6929 448.61804Q422.0742 448.0656 421.4665 448.03247Q420.86987 447.98828 420.38376 448.47443ZM428.7475 448.154Q427.83047 449.07104 426.65933 449.04895Q425.48816 449.00473 424.48276 447.99933L424.35016 447.86673Q423.6762 447.19278 423.41104 446.41937Q423.13483 445.63495 423.30057 444.89468Q423.46628 444.13232 423.9966 443.60202Q424.86945 442.7292 425.9301 442.81757Q426.99078 442.90594 428.06247 443.97766L428.3829 444.29807L425.34454 447.33643Q426.02954 447.97723 426.80295 448.02142Q427.5874 448.05457 428.16193 447.48004Q428.55966 447.0823 428.67017 446.64035Q428.7917 446.18738 428.73645 445.6902L429.5651 445.59076Q429.87445 447.02707 428.7475 448.154ZM424.62637 444.23178Q424.16235 444.6958 424.18445 445.35873Q424.20654 445.99954 424.74792 446.6735L426.99078 444.43063L426.93555 444.3754Q426.3168 443.82297 425.70914 443.78983Q425.11252 443.74564 424.62637 444.23178ZM430.21695 442.35352L430.228 443.33685L431.80795 444.91678L431.0456 445.67914L424.68164 439.3152L425.44397 438.55283L429.28888 442.3977L429.21155 441.50278L429.1342 438.6191L430.06226 437.69104L430.19485 441.31497L434.7579 441.96683L433.85193 442.8728L430.21695 442.35352Z" fill-rule="nonzero"/><path fill="#757575" d="M433.547 515.8595L432.12173 517.2847L434.56348 519.7265L433.76797 520.522L427.73547 514.48944L429.73526 512.4897Q430.7517 511.4732 431.75714 511.39587Q432.7736 511.3075 433.6575 512.19135Q434.22098 512.7548 434.33145 513.4841Q434.45297 514.2022 434.12152 514.9535L438.08795 516.0915L438.1432 516.1467L437.29245 516.9975L433.547 515.8595ZM431.46988 516.6329L432.69626 515.4065Q433.29288 514.8099 433.33707 514.16907Q433.3813 513.50616 432.862 512.9869Q432.30957 512.43445 431.6798 512.4676Q431.05002 512.50073 430.4092 513.11945L429.18283 514.3458L431.46988 516.6329ZM438.1211 512.36816L439.03812 513.0421L438.4857 512.1582L435.46945 506.7555L436.1434 506.0815L441.513 509.13092L442.40793 509.6944L441.72293 508.74423L438.54095 503.684L439.33643 502.8885L443.91052 510.3794L443.18134 511.1086L437.53552 507.95978L436.9831 507.58414L437.34772 508.1476L440.46338 513.82654L439.7342 514.5557L432.2433 509.98166L433.03876 509.18616L438.1211 512.36816ZM447.98746 501.92728Q449.01495 502.95477 449.16965 504.05963Q449.3243 505.1424 448.52884 505.9379Q447.6781 506.78864 446.60638 506.645L447.08148 507.20847L446.3854 507.90454L440.02145 501.54056L440.7838 500.77823L443.15924 503.15366Q443.04874 502.11508 443.86633 501.29752Q444.68393 500.47992 445.7667 500.63458Q446.8384 500.77823 447.92117 501.861L447.98746 501.92728ZM447.13672 502.60123Q446.35226 501.81677 445.62305 501.7063Q444.89386 501.5737 444.33038 502.13718Q443.56802 502.89954 443.93265 503.92706L445.87717 505.8716Q446.93784 506.22516 447.6781 505.4849Q448.23053 504.93246 448.10898 504.19223Q447.98746 503.45197 447.13672 502.60123ZM455.20215 499.0878L451.24677 503.04318L450.69434 502.49075L450.4623 498.08237Q450.39603 497.088 450.2524 496.59082Q450.09772 496.08258 449.74417 495.72903Q449.26907 495.25394 448.6835 495.2429Q448.09793 495.20975 447.6118 495.6959Q447.0483 496.25937 447.0594 496.91122Q447.0594 497.55203 447.64496 498.1376L446.8826 498.89996Q446.0429 498.06027 446.065 497.02173Q446.0871 495.96106 446.98203 495.06613Q447.83276 494.2154 448.76083 494.1712Q449.68893 494.12698 450.42917 494.86725Q451.31305 495.75113 451.4125 498.12656L451.54507 501.48532L454.5724 498.45804L455.20215 499.0878ZM457.35663 490.4589L459.04703 488.76846L459.77625 489.49765L458.08582 491.18808L459.98618 493.08844L459.22382 493.85077L457.32346 491.95044L455.63306 493.64087L454.90384 492.91165L456.59427 491.22122L454.83755 489.4645L455.59988 488.70215L457.35663 490.4589ZM467.3445 483.78555L464.8144 486.31567L465.83084 488.4591L465.01324 489.27667L461.27884 480.94608L461.9749 480.25003L470.31656 483.9734L469.49896 484.791L467.3445 483.78555ZM464.40558 485.42075L466.4606 483.36572L462.61572 481.57587L464.40558 485.42075ZM468.67032 481.06763Q467.63177 480.02905 467.49918 478.9242Q467.35556 477.8083 468.15103 477.01282Q468.9355 476.22836 469.92987 476.29465L467.5986 473.9634L468.36096 473.20105L474.7249 479.565L474.01782 480.27213L473.49854 479.81912Q473.609 480.8577 472.79144 481.6753Q472.01804 482.4487 470.88004 482.30505Q469.75308 482.1504 468.72556 481.12286L468.67032 481.06763ZM469.52106 480.39365Q470.28342 481.156 471.02365 481.27753Q471.77496 481.38803 472.3274 480.8356Q473.05658 480.10638 472.73618 479.10098L470.68115 477.04596Q469.7089 476.7587 468.99072 477.47684Q468.42725 478.0403 468.53775 478.79163Q468.65927 479.53186 469.52106 480.39365ZM473.62006 476.11786Q472.5815 475.0793 472.4489 473.97446Q472.3053 472.85855 473.1008 472.06305Q473.88522 471.2786 474.8796 471.3449L472.54837 469.01367L473.3107 468.2513L479.67468 474.61526L478.96756 475.3224L478.44827 474.8694Q478.55878 475.90796 477.74118 476.72556Q476.96777 477.49893 475.82977 477.35532Q474.70282 477.20062 473.67532 476.17313L473.62006 476.11786ZM474.4708 475.4439Q475.23315 476.20627 475.97342 476.3278Q476.7247 476.4383 477.27713 475.88586Q478.00635 475.15665 477.68594 474.15125L475.63092 472.0962Q474.65863 471.80893 473.9405 472.5271Q473.377 473.09058 473.4875 473.84186Q473.609 474.58212 474.4708 475.4439ZM479.57523 469.98593L481.93964 472.3503L481.14413 473.1458L475.11163 467.1133L477.34344 464.88147Q478.32678 463.89816 479.39847 463.84293Q480.45914 463.7766 481.29883 464.6163Q482.17166 465.48914 482.09433 466.51666Q482.02805 467.53314 481.00052 468.56064L479.57523 469.98593ZM478.92337 469.33408L480.3597 467.89774Q481.00052 467.25693 481.03366 466.62714Q481.07785 465.98633 480.51437 465.42285Q479.973 464.88147 479.3101 464.90356Q478.6472 464.90356 478.03952 465.48914L476.559 466.96967L478.92337 469.33408ZM484.19354 465.5223Q483.5417 464.87042 483.26547 464.086Q483.0003 463.2905 483.18814 462.55023Q483.3649 461.79895 483.95047 461.21338Q484.86752 460.29633 486.06076 460.36264Q487.26505 460.41788 488.3257 461.47852L488.38095 461.53378Q489.0328 462.18564 489.29797 462.95905Q489.56314 463.73242 489.3974 464.49478Q489.22064 465.2461 488.61298 465.85376Q487.70697 466.75974 486.5027 466.7045Q485.2984 466.62714 484.24878 465.57755L484.19354 465.5223ZM485.06638 464.84833Q485.80664 465.5886 486.60214 465.69907Q487.40866 465.79852 487.9832 465.224Q488.5688 464.63843 488.45828 463.84293Q488.33676 463.03638 487.50812 462.20773Q486.7789 461.47852 485.97235 461.3791Q485.16583 461.25757 484.58026 461.84314Q484.01678 462.40662 484.1162 463.21317Q484.21564 463.9976 485.06638 464.84833ZM492.4689 461.82104L491.70654 462.58337L487.22086 458.0977L487.9832 457.33533L492.4689 461.82104ZM485.97235 456.98178Q485.78455 456.79395 485.76245 456.55087Q485.7514 456.29675 485.97235 456.0758Q486.19333 455.85483 486.4364 455.87692Q486.69052 455.88797 486.87836 456.0758Q487.0551 456.25256 487.06616 456.50668Q487.0772 456.7387 486.85626 456.9597Q486.63528 457.18063 486.3922 457.18063Q486.14914 457.15854 485.97235 456.98178ZM489.99402 455.3245L490.57962 455.86588Q490.45807 454.70578 491.2867 453.87714Q492.71198 452.45187 494.32507 454.04285L497.28607 457.00388L496.51266 457.77725L493.54062 454.8052Q493.06552 454.3301 492.61255 454.31906Q492.1706 454.29697 491.70654 454.76102Q491.3309 455.13666 491.24252 455.6228Q491.1652 456.0979 491.3309 456.57297L494.52393 459.766L493.7616 460.52835L489.27588 456.04263L489.99402 455.3245ZM494.18143 448.9716L495.2642 450.05432L496.09283 449.2257L496.68945 449.82233L495.8608 450.65097L498.634 453.42413Q498.91022 453.70035 499.1533 453.72244Q499.39633 453.74454 499.6615 453.47937Q499.7941 453.3468 499.9819 453.0706L500.60065 453.6893Q500.39072 454.07602 500.10345 454.36328Q499.5952 454.8715 499.0207 454.8273Q498.43512 454.77206 497.8606 454.19754L495.0874 451.42435L494.2698 452.24194L493.6732 451.64532L494.49078 450.82773L493.40802 449.74496L494.18143 448.9716ZM503.4843 450.98242Q502.56726 451.89944 501.39612 451.87735Q500.22498 451.83316 499.21957 450.82773L499.08698 450.69516Q498.41302 450.02118 498.14786 449.2478Q497.87164 448.46335 498.03738 447.72308Q498.2031 446.96075 498.73343 446.43042Q499.60626 445.5576 500.66693 445.64597Q501.7276 445.73434 502.7993 446.80606L503.1197 447.12646L500.08136 450.16483Q500.76636 450.80563 501.53976 450.84982Q502.32422 450.88297 502.89874 450.30844Q503.29648 449.9107 503.40695 449.46875Q503.5285 449.01578 503.47327 448.5186L504.3019 448.41916Q504.61127 449.85547 503.4843 450.98242ZM499.3632 447.06018Q498.89917 447.52423 498.92126 448.18713Q498.94336 448.82794 499.48474 449.50192L501.7276 447.25906L501.67233 447.2038Q501.05362 446.6514 500.44595 446.61823Q499.84933 446.57404 499.3632 447.06018ZM504.14722 442.54132Q503.94833 442.696 503.74948 442.89487Q502.98712 443.65723 503.36276 444.5632L506.54474 447.74518L505.7824 448.50754L501.2967 444.02182L502.03696 443.2816L502.56726 443.78983Q502.3463 442.81754 503.04236 442.1215Q503.26334 441.9005 503.44012 441.83423L504.14722 442.54132ZM510.02505 441.87842Q509.7157 441.56906 509.3069 441.6464Q508.8981 441.70163 508.19098 442.16568Q507.49493 442.61865 506.97565 442.7844Q506.45636 442.95013 506.05862 442.88382Q505.66086 442.79544 505.3294 442.464Q504.77698 441.91156 504.8654 441.07187Q504.94272 440.22113 505.6719 439.4919Q506.43427 438.72958 507.29605 438.6633Q508.15784 438.5749 508.7655 439.18256L508.00317 439.94492Q507.6938 439.63556 507.19662 439.6908Q506.69943 439.72394 506.3017 440.1217Q505.88184 440.54153 505.8266 440.97244Q505.77136 441.38123 506.05862 441.6685Q506.33484 441.9447 506.69943 441.86737Q507.06403 441.79004 507.77115 441.34808Q508.4672 440.89508 508.99753 440.71832Q509.52786 440.54153 509.9477 440.6299Q510.3786 440.70728 510.73215 441.06082Q511.3398 441.6685 511.2183 442.51923Q511.1078 443.35892 510.34546 444.12128Q509.80408 444.66266 509.1964 444.89465Q508.58875 445.10458 508.01422 444.9941Q507.4397 444.8836 507.04193 444.48587L507.8043 443.7235Q508.21307 444.08813 508.73236 444.03287Q509.2406 443.96658 509.7157 443.4915Q510.14658 443.0606 510.23495 442.61865Q510.32336 442.17673 510.02505 441.87842Z" fill-rule="nonzero"/><path fill="#757575" d="M510.40512 516.5666L508.97986 517.9918L511.42157 520.4336L510.6261 521.22906L504.59357 515.1966L506.59335 513.1968Q507.60983 512.1803 508.61523 512.10297Q509.6317 512.0146 510.5156 512.8985Q511.07907 513.462 511.18954 514.19116Q511.3111 514.9093 510.97964 515.6606L514.94604 516.7986L515.0013 516.8539L514.1506 517.7046L510.40512 516.5666ZM508.32797 517.33997L509.55438 516.1136Q510.151 515.51697 510.1952 514.87616Q510.23938 514.21326 509.7201 513.694Q509.16766 513.14154 508.5379 513.1747Q507.90814 513.2078 507.26733 513.82654L506.04092 515.0529L508.32797 517.33997ZM514.9792 513.07526L515.89624 513.7492L515.3438 512.86536L512.3276 507.4626L513.0015 506.78864L518.3711 509.838L519.26605 510.4015L518.58105 509.45132L515.39905 504.39108L516.1946 503.5956L520.7687 511.08652L520.0394 511.8157L514.3936 508.66687L513.8412 508.29123L514.2058 508.8547L517.3215 514.5336L516.5923 515.2629L509.10138 510.68875L509.89688 509.89328L514.9792 513.07526ZM524.8456 502.63437Q525.87305 503.6619 526.0278 504.76675Q526.18243 505.8495 525.38696 506.645Q524.5362 507.49573 523.4645 507.3521L523.9396 507.9156L523.2435 508.61163L516.8796 502.24768L517.6419 501.48532L520.01733 503.86078Q519.90686 502.8222 520.7244 502.0046Q521.54205 501.187 522.6248 501.3417Q523.69653 501.48532 524.7793 502.56808L524.8456 502.63437ZM523.9948 503.30835Q523.2104 502.5239 522.4812 502.4134Q521.75195 502.28082 521.1885 502.8443Q520.42615 503.60666 520.7908 504.63416L522.7353 506.5787Q523.79596 506.93225 524.5362 506.19202Q525.0886 505.6396 524.9671 504.89932Q524.8456 504.1591 523.9948 503.30835ZM532.06024 499.7949L528.10486 503.75027L527.5524 503.19785L527.32043 498.7895Q527.25415 497.7951 527.11053 497.29794Q526.9558 496.7897 526.6023 496.43616Q526.1272 495.96106 525.5416 495.95Q524.95605 495.91687 524.4699 496.40298Q523.90643 496.96646 523.9175 497.61835Q523.9175 498.25916 524.50305 498.84473L523.7407 499.6071Q522.901 498.7674 522.9231 497.72882Q522.9452 496.66815 523.84015 495.77322Q524.69086 494.9225 525.61896 494.8783Q526.54706 494.8341 527.2873 495.57437Q528.17114 496.45825 528.2706 498.83368L528.4032 502.19244L531.4305 499.16513L532.06024 499.7949ZM534.2147 491.166L535.90515 489.47556L536.63434 490.20477L534.9439 491.8952L536.8443 493.79553L536.0819 494.5579L534.1816 492.65753L532.49115 494.34796L531.76196 493.61877L533.4524 491.92834L531.6957 490.17163L532.458 489.40927L534.2147 491.166ZM537.4409 482.34924L544.3352 485.28818L541.38525 478.4049L542.42377 477.36636L548.4563 483.39886L547.6608 484.19437L545.30743 481.841L542.8547 479.23355L545.7494 486.10574L545.1417 486.71344L538.2916 483.8187L540.88806 486.26044L543.2414 488.61377L542.44586 489.40927L536.4134 483.37677L537.4409 482.34924ZM546.9095 480.37155Q546.2576 479.7197 545.98145 478.93524Q545.71625 478.13977 545.90405 477.3995Q546.0809 476.6482 546.66644 476.06262Q547.58344 475.1456 548.77673 475.21188Q549.981 475.26712 551.0416 476.3278L551.0969 476.38303Q551.7488 477.0349 552.0139 477.8083Q552.2791 478.5817 552.11334 479.34406Q551.9366 480.09534 551.3289 480.703Q550.4229 481.609 549.2186 481.55374Q548.01434 481.4764 546.9647 480.42682L546.9095 480.37155ZM547.78235 479.6976Q548.5226 480.43787 549.31805 480.54834Q550.12463 480.64777 550.69916 480.07324Q551.2847 479.48767 551.17426 478.69217Q551.05273 477.88565 550.22406 477.057Q549.4949 476.3278 548.6883 476.22836Q547.8818 476.1068 547.2962 476.69238Q546.7327 477.25586 546.83215 478.0624Q546.9316 478.84686 547.78235 479.6976ZM554.7871 474.9909L552.4559 470.4279L553.2403 469.64343L556.1129 475.74222L555.52734 476.3278L549.41754 473.46622L550.20197 472.68176L554.7871 474.9909ZM560.5434 471.48853Q559.6264 472.40555 558.4552 472.38345Q557.28406 472.33926 556.2787 471.33386L556.14606 471.20126Q555.4721 470.5273 555.207 469.7539Q554.9307 468.96945 555.0965 468.22922Q555.2622 467.46686 555.79254 466.93652Q556.66534 466.0637 557.726 466.1521Q558.7867 466.24048 559.8584 467.3122L560.1788 467.6326L557.14044 470.67093Q557.82544 471.31177 558.5989 471.35596Q559.3833 471.3891 559.9578 470.81458Q560.3556 470.4168 560.46606 469.97488Q560.5876 469.52188 560.53235 469.02472L561.361 468.92526Q561.67035 470.36157 560.5434 471.48853ZM556.4223 467.56628Q555.95825 468.03033 555.98035 468.69324Q556.00244 469.33408 556.5438 470.00803L558.7867 467.76517L558.73145 467.70993Q558.11273 467.1575 557.50507 467.12436Q556.90845 467.08017 556.4223 467.56628ZM561.3831 465.7433L563.7475 468.10767L562.95197 468.90317L556.9195 462.87067L559.1513 460.63885Q560.1346 459.65555 561.2063 459.6003Q562.26697 459.534 563.1067 460.3737Q563.9795 461.24652 563.90216 462.27405Q563.8359 463.29053 562.80835 464.31802L561.3831 465.7433ZM560.7312 465.09143L562.16754 463.65512Q562.80835 463.0143 562.8415 462.38452Q562.8857 461.7437 562.3222 461.18024Q561.7808 460.63885 561.1179 460.66095Q560.455 460.66095 559.84735 461.24652L558.3668 462.72705L560.7312 465.09143ZM566.0014 461.27966Q565.34955 460.6278 565.0733 459.84335Q564.80817 459.04788 564.996 458.30762Q565.1727 457.5563 565.7583 456.97073Q566.67535 456.0537 567.8686 456.12Q569.0729 456.17526 570.13354 457.2359L570.1888 457.29117Q570.84064 457.94302 571.10583 458.71643Q571.371 459.4898 571.20526 460.25217Q571.02844 461.00348 570.4208 461.61115Q569.51483 462.51712 568.31055 462.46188Q567.10626 462.38452 566.05664 461.33493L566.0014 461.27966ZM566.8742 460.6057Q567.61444 461.34598 568.41 461.45645Q569.2165 461.55588 569.791 460.98135Q570.3766 460.39578 570.2661 459.6003Q570.1446 458.79376 569.3159 457.96512Q568.58673 457.2359 567.7802 457.13647Q566.97363 457.01495 566.38806 457.60052Q565.8246 458.164 565.9241 458.97052Q566.0235 459.75497 566.8742 460.6057ZM574.27673 457.57843L573.5144 458.34076L569.0287 453.85507L569.791 453.0927L574.27673 457.57843ZM567.7802 452.73917Q567.59235 452.55133 567.57025 452.30826Q567.5592 452.05414 567.7802 451.83316Q568.00116 451.6122 568.24426 451.6343Q568.49835 451.64536 568.68616 451.83316Q568.863 452.00995 568.874 452.26407Q568.8851 452.4961 568.66406 452.71707Q568.4431 452.93802 568.2001 452.93802Q567.957 452.91592 567.7802 452.73917ZM571.8019 451.08188L572.38745 451.62326Q572.2659 450.46317 573.09454 449.63452Q574.51984 448.20926 576.1329 449.80023L579.09393 452.76126L578.3205 453.53464L575.34845 450.5626Q574.87335 450.0875 574.42035 450.07645Q573.97845 450.05435 573.5144 450.5184Q573.13873 450.89404 573.05035 451.3802Q572.973 451.8553 573.13873 452.33035L576.3318 455.52338L575.5694 456.28574L571.08374 451.80002L571.8019 451.08188ZM575.98926 444.72897L577.072 445.8117L577.90063 444.98306L578.4973 445.5797L577.66864 446.40833L580.44183 449.18152Q580.718 449.45773 580.9611 449.47983Q581.20416 449.50192 581.46936 449.23676Q581.6019 449.1042 581.78973 448.82797L582.40845 449.4467Q582.19855 449.83337 581.9113 450.12064Q581.4031 450.62888 580.82855 450.5847Q580.243 450.52945 579.66846 449.95493L576.89526 447.18173L576.07764 447.99933L575.481 447.4027L576.29865 446.5851L575.2159 445.50235L575.98926 444.72897ZM585.2921 446.7398Q584.3751 447.65683 583.204 447.63474Q582.03284 447.59055 581.0274 446.5851L580.89484 446.45255Q580.2209 445.77856 579.9557 445.0052Q579.6795 444.22073 579.8452 443.48047Q580.0109 442.71814 580.54126 442.1878Q581.4141 441.31497 582.4748 441.40335Q583.5354 441.49173 584.6071 442.56345L584.92755 442.88385L581.88916 445.9222Q582.5742 446.56302 583.3476 446.6072Q584.132 446.64035 584.70654 446.06583Q585.1043 445.6681 585.2148 445.22614Q585.33636 444.77316 585.28107 444.27597L586.10974 444.17654Q586.41907 445.61285 585.2921 446.7398ZM581.171 442.81757Q580.707 443.2816 580.72906 443.94452Q580.75116 444.58533 581.29254 445.25928L583.5354 443.01645L583.48016 442.96118Q582.86145 442.40875 582.2538 442.3756Q581.65717 442.33142 581.171 442.81757ZM585.9551 438.2987Q585.75616 438.4534 585.5573 438.65225Q584.795 439.4146 585.1706 440.3206L588.3526 443.50256L587.5902 444.26492L583.10455 439.7792L583.8448 439.03897L584.3751 439.54718Q584.1541 438.57492 584.8502 437.87888Q585.07117 437.6579 585.2479 437.5916L585.9551 438.2987Z" fill-rule="nonzero"/><path fill="#757575" d="M620.49725 484.03964L619.072 485.4649L621.51373 487.90665L620.71826 488.70215L614.6857 482.66965L616.6855 480.66986Q617.70197 479.65338 618.7074 479.57605Q619.7239 479.48767 620.6077 480.37155Q621.1712 480.93503 621.28174 481.6642Q621.40326 482.3824 621.0718 483.13367L625.0382 484.27167L625.09344 484.3269L624.24274 485.17764L620.49725 484.03964ZM618.42017 484.81305L619.64655 483.58667Q620.24316 482.99005 620.28735 482.34924Q620.33154 481.6863 619.81226 481.16702Q619.2598 480.6146 618.63007 480.64777Q618.0003 480.6809 617.3595 481.29962L616.1331 482.526L618.42017 484.81305ZM625.07135 480.5483L625.9884 481.2223L625.436 480.3384L622.41974 474.93567L623.0937 474.2617L628.46326 477.3111L629.3582 477.87457L628.67316 476.9244L625.4912 471.86417L626.2867 471.06866L630.8608 478.55957L630.1316 479.2888L624.4858 476.13995L623.93335 475.7643L624.298 476.32776L627.41364 482.0067L626.68445 482.73593L619.19354 478.16183L619.989 477.36633L625.07135 480.5483ZM634.9377 470.10745Q635.9652 471.13495 636.1199 472.2398Q636.2746 473.32257 635.47906 474.11807Q634.62836 474.9688 633.55664 474.82516L634.03174 475.38864L633.3357 476.08472L626.9717 469.72073L627.7341 468.9584L630.1095 471.33383Q629.999 470.29526 630.8166 469.4777Q631.6342 468.6601 632.717 468.81476Q633.78864 468.9584 634.8714 470.04114L634.9377 470.10745ZM634.087 470.7814Q633.30255 469.99695 632.5733 469.88647Q631.8441 469.75388 631.28064 470.31735Q630.5183 471.0797 630.8829 472.10724L632.82745 474.0518Q633.8881 474.40533 634.62836 473.66507Q635.1808 473.11264 635.05927 472.3724Q634.9377 471.63214 634.087 470.7814ZM642.1524 467.26797L638.197 471.22336L637.6446 470.67093L637.4126 466.26254Q637.3463 465.2682 637.20264 464.771Q637.048 464.26276 636.69446 463.9092Q636.21936 463.4341 635.6338 463.42307Q635.0482 463.38992 634.5621 463.87607Q633.9986 464.43954 634.00964 465.0914Q634.00964 465.7322 634.5952 466.31778L633.8328 467.08014Q632.99316 466.24045 633.01526 465.2019Q633.03735 464.14124 633.9323 463.2463Q634.783 462.39557 635.7111 462.35138Q636.63916 462.30716 637.37946 463.04742Q638.2633 463.9313 638.36273 466.30673L638.49536 469.6655L641.52264 466.6382L642.1524 467.26797ZM644.3069 458.63907L645.9973 456.94864L646.7265 457.67783L645.0361 459.36826L646.9364 461.26862L646.1741 462.03094L644.27374 460.1306L642.5833 461.82104L641.8541 461.09183L643.5445 459.4014L641.7878 457.64468L642.5502 456.88232L644.3069 458.63907ZM654.29474 451.96573L651.76465 454.49585L652.7811 456.63928L651.9635 457.45685L648.2291 449.12625L648.9252 448.4302L657.26685 452.15356L656.4492 452.97116L654.29474 451.96573ZM651.35583 453.60092L653.4109 451.5459L649.566 449.756L651.35583 453.60092ZM655.6206 449.2478Q654.58203 448.20923 654.44946 447.10437Q654.3058 445.98846 655.1013 445.193Q655.88574 444.40854 656.8801 444.47482L654.5489 442.1436L655.3112 441.38123L661.6752 447.74518L660.9681 448.4523L660.4488 447.9993Q660.55927 449.03787 659.7417 449.85547Q658.96826 450.62888 657.83026 450.48523Q656.70337 450.33054 655.67584 449.30304L655.6206 449.2478ZM656.4713 448.57382Q657.23364 449.33618 657.97394 449.4577Q658.7252 449.5682 659.27765 449.01578Q660.00684 448.28656 659.68646 447.28116L657.6314 445.22614Q656.6591 444.93887 655.941 445.657Q655.3775 446.2205 655.488 446.9718Q655.60956 447.71204 656.4713 448.57382ZM660.5703 444.29803Q659.53174 443.2595 659.3992 442.15463Q659.25555 441.03873 660.051 440.24323Q660.8355 439.45877 661.82983 439.5251L659.4986 437.19385L660.261 436.4315L666.62494 442.79544L665.91785 443.50256L665.39856 443.04956Q665.50903 444.08813 664.69147 444.90573Q663.918 445.6791 662.78 445.5355Q661.6531 445.3808 660.62555 444.3533L660.5703 444.29803ZM661.4211 443.62408Q662.1834 444.38644 662.92365 444.50797Q663.675 444.61844 664.2274 444.06604Q664.9566 443.33682 664.63617 442.3314L662.5812 440.27637Q661.6089 439.9891 660.89075 440.70728Q660.3273 441.27075 660.43774 442.02203Q660.55927 442.7623 661.4211 443.62408Z" fill-rule="nonzero"/><path fill="#757575" d="M694.5269 487.57523L693.1017 489.0005L695.5434 491.4422L694.7479 492.2377L688.7154 486.2052L690.71515 484.2054Q691.7316 483.18893 692.73706 483.1116Q693.75354 483.02322 694.6374 483.9071Q695.20087 484.47058 695.31134 485.19977Q695.4329 485.91794 695.10144 486.66922L699.0679 487.80722L699.1231 487.8625L698.2724 488.71323L694.5269 487.57523ZM692.44977 488.3486L693.6762 487.12222Q694.2728 486.5256 694.317 485.8848Q694.3612 485.22186 693.8419 484.7026Q693.2895 484.15018 692.6597 484.18332Q692.02997 484.21646 691.38916 484.83517L690.1627 486.06155L692.44977 488.3486ZM699.101 484.08386L700.01807 484.75784L699.46564 483.87396L696.44934 478.47122L697.12335 477.79724L702.4929 480.84665L703.3879 481.41013L702.7028 480.45996L699.5209 475.39972L700.31635 474.60422L704.89044 482.09512L704.16125 482.82434L698.51544 479.6755L697.963 479.29987L698.32764 479.86334L701.4433 485.54227L700.7141 486.27148L693.2232 481.6974L694.0187 480.9019L699.101 484.08386ZM708.96735 473.643Q709.9949 474.6705 710.14954 475.77536Q710.30426 476.85812 709.5087 477.65363Q708.658 478.50436 707.5863 478.36072L708.0614 478.9242L707.36536 479.62027L701.00134 473.2563L701.76373 472.49396L704.13916 474.8694Q704.0287 473.8308 704.84625 473.01324Q705.6639 472.19565 706.74664 472.3503Q707.8183 472.49396 708.90106 473.57672L708.96735 473.643ZM708.11664 474.31696Q707.3322 473.5325 706.60297 473.42203Q705.8738 473.28946 705.3103 473.85294Q704.548 474.61526 704.91254 475.6428L706.8571 477.58734Q707.9178 477.9409 708.658 477.20062Q709.21045 476.6482 709.0889 475.90796Q708.96735 475.1677 708.11664 474.31696ZM716.18207 470.80353L712.2267 474.7589L711.67426 474.20648L711.44226 469.7981Q711.376 468.80374 711.2323 468.30655Q711.07764 467.7983 710.72406 467.44476Q710.249 466.96967 709.66345 466.95862Q709.0779 466.92548 708.59174 467.41162Q708.02826 467.9751 708.0393 468.62695Q708.0393 469.2678 708.6249 469.85336L707.8625 470.6157Q707.0228 469.776 707.0449 468.73746Q707.067 467.6768 707.962 466.78186Q708.8127 465.93112 709.7408 465.88693Q710.6688 465.84274 711.4091 466.58298Q712.29297 467.46686 712.3924 469.84232L712.525 473.20105L715.5523 470.17377L716.18207 470.80353ZM718.33655 462.17462L720.027 460.4842L720.75616 461.21338L719.06573 462.9038L720.96606 464.80417L720.20374 465.56653L718.3034 463.66617L716.613 465.3566L715.8837 464.62738L717.57416 462.93695L715.81744 461.18024L716.57983 460.4179L718.33655 462.17462ZM724.9988 457.258L727.3632 459.6224L726.5677 460.4179L720.5352 454.38538L722.767 452.1536Q723.7503 451.17026 724.822 451.11502Q725.8827 451.04874 726.72235 451.88843Q727.5952 452.76126 727.5179 453.78876Q727.4516 454.80524 726.4241 455.83273L724.9988 457.258ZM724.3469 456.60614L725.78326 455.16983Q726.4241 454.52902 726.4572 453.89926Q726.5014 453.25842 725.9379 452.69498Q725.39655 452.1536 724.73364 452.1757Q724.07074 452.1757 723.4631 452.76126L721.98254 454.24176L724.3469 456.60614ZM729.6171 452.7944Q728.9652 452.14255 728.689 451.3581Q728.4238 450.5626 728.6117 449.82233Q728.78845 449.07104 729.374 448.48547Q730.2911 447.56845 731.4843 447.63474Q732.6886 447.68997 733.74927 448.75064L733.8045 448.80588Q734.45636 449.45773 734.7215 450.23114Q734.9867 451.00455 734.821 451.76688Q734.64417 452.5182 734.0365 453.12585Q733.13055 454.03183 731.9263 453.9766Q730.7219 453.89926 729.67236 452.84964L729.6171 452.7944ZM730.4899 452.12042Q731.23016 452.8607 732.0257 452.97116Q732.8322 453.07062 733.40674 452.4961Q733.9923 451.91052 733.88184 451.11502Q733.7603 450.30847 732.93164 449.47983Q732.20245 448.75064 731.39594 448.65118Q730.58936 448.52966 730.0038 449.11523Q729.4403 449.6787 729.53973 450.48526Q729.6392 451.2697 730.4899 452.12042ZM736.23517 446.59616L736.2462 447.5795L737.8262 449.15942L737.06384 449.92178L730.6998 443.55783L731.4622 442.79547L735.30707 446.64035L735.22974 445.74542L735.1524 442.86176L736.0805 441.9337L736.2131 445.55762L740.7761 446.20947L739.8701 447.11545L736.23517 446.59616ZM743.251 443.91138Q742.334 444.8284 741.16284 444.8063Q739.9917 444.76212 738.98627 443.75668L738.8537 443.6241Q738.17975 442.95013 737.91455 442.17676Q737.63837 441.3923 737.8041 440.65204Q737.9698 439.8897 738.5001 439.35938Q739.373 438.48654 740.4336 438.57492Q741.49426 438.6633 742.566 439.73502L742.8864 440.05542L739.848 443.09378Q740.5331 443.7346 741.30646 443.77878Q742.0909 443.81192 742.6654 443.2374Q743.0632 442.83966 743.17365 442.3977Q743.29517 441.94473 743.2399 441.44754L744.0686 441.3481Q744.3779 442.78442 743.251 443.91138ZM739.1299 439.98914Q738.66583 440.4532 738.6879 441.1161Q738.71 441.7569 739.2514 442.43088L741.49426 440.18802L741.439 440.13278Q740.8203 439.58035 740.21265 439.54718Q739.616 439.503 739.1299 439.98914Z" fill-rule="nonzero"/><path fill="#757575" d="M738.15106 521.5163L736.72577 522.9416L739.1675 525.3833L738.372 526.17883L732.3395 520.1463L734.3393 518.1465Q735.3558 517.13007 736.36115 517.05273Q737.3776 516.9643 738.26154 517.8482Q738.825 518.4117 738.9355 519.14087Q739.057 519.859 738.7256 520.61035L742.692 521.74835L742.74725 521.8036L741.8965 522.6543L738.15106 521.5163ZM736.0739 522.28973L737.3003 521.06335Q737.8969 520.46674 737.9411 519.82587Q737.9853 519.16296 737.466 518.6437Q736.9136 518.09125 736.2838 518.1244Q735.65405 518.15753 735.01324 518.7763L733.78687 520.0027L736.0739 522.28973ZM742.72516 518.02496L743.64215 518.6989L743.0897 517.81506L740.0735 512.4123L740.74744 511.73834L746.11707 514.7878L747.01196 515.35126L746.32697 514.40106L743.14496 509.34082L743.9405 508.54532L748.5146 516.03625L747.78534 516.76544L742.1396 513.61664L741.58716 513.24097L741.9517 513.80444L745.06744 519.4834L744.3382 520.2126L736.8473 515.6385L737.6428 514.843L742.72516 518.02496ZM752.5915 507.5841Q753.619 508.61163 753.7737 509.71646Q753.92834 510.79922 753.1329 511.59473Q752.2821 512.44543 751.2104 512.3018L751.6855 512.8653L750.98944 513.56134L744.6255 507.19742L745.3878 506.43506L747.76324 508.8105Q747.6528 507.77194 748.4704 506.95435Q749.28796 506.13675 750.3707 506.2914Q751.44244 506.43506 752.5252 507.51782L752.5915 507.5841ZM751.7407 508.25806Q750.9563 507.47363 750.2271 507.36313Q749.49786 507.23056 748.9344 507.79404Q748.17206 508.55637 748.5367 509.5839L750.4812 511.52844Q751.5419 511.882 752.2821 511.14172Q752.83453 510.5893 752.713 509.84906Q752.5915 509.1088 751.7407 508.25806ZM759.80615 504.74463L755.8508 508.7L755.2984 508.14758L755.06635 503.7392Q755.00006 502.74484 754.85645 502.24765Q754.7018 501.7394 754.3482 501.38586Q753.8731 500.9108 753.28754 500.89975Q752.70197 500.86658 752.2158 501.35272Q751.65234 501.9162 751.6634 502.56805Q751.6634 503.2089 752.24896 503.79446L751.48663 504.5568Q750.6469 503.7171 750.669 502.67856Q750.69116 501.6179 751.58606 500.72296Q752.4368 499.87222 753.36487 499.82803Q754.29297 499.78384 755.0332 500.52408Q755.9171 501.40796 756.01654 503.78342L756.1491 507.14215L759.1764 504.11487L759.80615 504.74463ZM761.96063 496.11572L763.65106 494.4253L764.38025 495.15448L762.6899 496.8449L764.5902 498.74527L763.8279 499.50763L761.9275 497.60727L760.23706 499.2977L759.5079 498.56848L761.1983 496.87805L759.4416 495.12134L760.2039 494.359L761.96063 496.11572ZM771.0536 493.49722L770.2581 494.2927L764.2256 488.2602L765.0211 487.46472L771.0536 493.49722ZM768.4351 487.1443L769.0207 487.68567Q768.8991 486.52557 769.7278 485.69693Q771.153 484.27167 772.7661 485.86267L775.7271 488.82367L774.95374 489.59708L771.9817 486.62503Q771.5066 486.14993 771.0536 486.1389Q770.61163 486.1168 770.14764 486.5808Q769.772 486.95648 769.6836 487.4426Q769.60626 487.9177 769.772 488.3928L772.965 491.58582L772.20264 492.34818L767.7169 487.86246L768.4351 487.1443ZM774.6886 485.31024Q773.65 484.27167 773.5174 483.1668Q773.3738 482.05093 774.1693 481.25543Q774.95374 480.47098 775.9481 480.53726L773.6169 478.20602L774.3792 477.44366L780.74316 483.80765L780.0361 484.51474L779.5168 484.06177Q779.62726 485.1003 778.8097 485.9179Q778.03625 486.6913 776.89825 486.54767Q775.7713 486.393 774.74384 485.36548L774.6886 485.31024ZM775.5393 484.6363Q776.30164 485.39862 777.04193 485.52017Q777.7932 485.63065 778.34564 485.07822Q779.0748 484.34903 778.75446 483.3436L776.6994 481.28857Q775.7271 481.0013 775.009 481.71945Q774.4455 482.28293 774.55597 483.03424Q774.67755 483.7745 775.5393 484.6363ZM782.9308 481.62003L782.16846 482.3824L777.68274 477.89667L778.44507 477.1343L782.9308 481.62003ZM776.43427 476.78076Q776.2464 476.59293 776.2243 476.34988Q776.21326 476.09576 776.43427 475.8748Q776.6552 475.6538 776.89825 475.6759Q777.1524 475.68695 777.3402 475.8748Q777.51697 476.05157 777.528 476.30566Q777.5391 476.5377 777.3181 476.75867Q777.09717 476.97964 776.85406 476.97964Q776.611 476.95755 776.43427 476.78076ZM782.58826 474.36115Q782.3894 474.5158 782.19055 474.7147Q781.42816 475.47705 781.80383 476.38303L784.98584 479.565L784.22345 480.32736L779.73773 475.84164L780.478 475.10138L781.00836 475.60962Q780.78735 474.63736 781.4834 473.94128Q781.7044 473.7203 781.88116 473.65402L782.58826 474.36115ZM788.99646 475.73114Q788.0794 476.6482 786.90826 476.6261Q785.7371 476.58188 784.7317 475.57648L784.5991 475.44388Q783.9252 474.76993 783.66 473.99652Q783.3838 473.2121 783.5495 472.47183Q783.7152 471.70947 784.24554 471.17917Q785.1184 470.3063 786.1791 470.3947Q787.2397 470.4831 788.3114 471.5548L788.63184 471.8752L785.5935 474.91357Q786.2785 475.55438 787.0519 475.59857Q787.83636 475.6317 788.4109 475.0572Q788.8086 474.65945 788.91907 474.2175Q789.04065 473.76453 788.9854 473.26733L789.814 473.16788Q790.1234 474.60422 788.99646 475.73114ZM784.8753 471.80893Q784.4113 472.27295 784.4334 472.93588Q784.4555 473.5767 784.9969 474.25064L787.2397 472.00778L787.18445 471.95255Q786.56573 471.40012 785.95807 471.36697Q785.36145 471.32278 784.8753 471.80893ZM792.543 470.92505Q792.9518 470.51624 793.0181 469.9638Q793.07336 469.40033 792.73083 468.99155L793.46 468.26233Q793.82465 468.67114 793.9241 469.2788Q794.0235 469.86438 793.82465 470.4831Q793.63684 471.09076 793.1728 471.5548Q792.25574 472.47183 791.1067 472.40555Q789.95764 472.31717 788.897 471.2565L788.7644 471.1239Q788.11255 470.47205 787.83636 469.73178Q787.57117 468.9805 787.7369 468.26233Q787.90265 467.5221 788.52136 466.90338Q789.27264 466.15207 790.22284 466.10788Q791.173 466.0416 791.93536 466.73764L791.2061 467.46686Q790.7311 467.05804 790.15656 467.08014Q789.58203 467.10223 789.1511 467.53314Q788.56555 468.1187 788.665 468.85895Q788.7644 469.5992 789.55994 470.3947L789.70355 470.53833Q790.4769 471.31174 791.21716 471.41116Q791.95746 471.51062 792.543 470.92505ZM791.00726 462.40662L792.09 463.48938L792.91864 462.66074L793.51526 463.25735L792.68665 464.086L795.45984 466.85916Q795.736 467.13538 795.9791 467.15747Q796.22217 467.1796 796.48737 466.91443Q796.61993 466.78183 796.80774 466.5056L797.42645 467.12433Q797.21655 467.51105 796.92926 467.7983Q796.4211 468.30652 795.84656 468.26233Q795.261 468.2071 794.68646 467.63257L791.91327 464.85938L791.09564 465.67697L790.499 465.08035L791.31665 464.26276L790.2339 463.18002L791.00726 462.40662ZM797.09503 455.39078L797.90155 454.58423L802.17737 458.86002Q803.0391 459.7218 803.006 460.74933Q802.97284 461.75476 802.1111 462.61655Q801.2161 463.51147 800.24384 463.55566Q799.28265 463.5888 798.454 462.76016L799.2495 461.96466Q799.76874 462.48395 800.34326 462.50604Q800.9178 462.50604 801.45917 461.96466Q801.95636 461.4675 801.9453 460.8598Q801.93427 460.23004 801.38184 459.6776L797.09503 455.39078ZM807.75684 455.91006Q807.8453 456.88232 806.9724 457.7552Q806.2543 458.47333 805.45874 458.42914Q804.66327 458.38495 803.8457 457.56735L800.92883 454.65054L801.6912 453.88818L804.58594 456.7829Q805.61346 457.81042 806.4421 456.98178Q807.326 456.0979 806.9503 455.1477L803.691 451.8884L804.4644 451.115L808.9501 455.6007L808.2209 456.32993L807.75684 455.91006ZM806.61884 448.96054L807.1381 449.4356Q807.04974 448.37497 807.88947 447.53528Q808.82855 446.59613 809.8892 446.9718Q809.7898 446.43042 809.94446 445.878Q810.1102 445.3145 810.5963 444.82837Q812.07684 443.34787 813.6568 444.8836L816.662 447.88882L815.89966 448.65118L812.9386 445.69016Q812.46356 445.2151 812.01056 445.20404Q811.5465 445.18195 811.0272 445.7012Q810.5963 446.1321 810.5632 446.6735Q810.5411 447.20383 810.9278 447.6789L813.89984 450.65097L813.1375 451.4133L810.1986 448.4744Q809.2263 447.50214 808.2651 448.46335Q807.5138 449.21466 807.8784 450.13168L811.14874 453.40204L810.37537 454.17545L805.88965 449.68973L806.61884 448.96054ZM819.75555 440.42Q820.77203 441.43646 820.93774 442.53027Q821.1035 443.62408 820.29694 444.43063Q819.4794 445.24823 818.49603 445.193L820.6505 447.34744L819.8882 448.1098L813.6789 441.9005L814.37494 441.20447L814.9053 441.6685Q814.80585 440.6189 815.63446 439.79025Q816.44104 438.9837 817.5127 439.12732Q818.59546 439.25992 819.6782 440.34268L819.75555 440.42ZM818.90485 441.09396Q818.1425 440.33163 817.3801 440.23218Q816.6178 440.11066 816.0543 440.67413Q815.3583 441.37018 815.6234 442.32037L817.76685 444.46378Q818.7281 444.74 819.4352 444.0329Q819.9876 443.48047 819.87714 442.72916Q819.7666 441.95575 818.90485 441.09396Z" fill-rule="nonzero"/></svg>