<svg version="1.1" viewBox="0.0 0.0 898.0 555.0" fill="none" stroke="none" stroke-linecap="square" stroke-miterlimit="10" width="898" height="555" xmlns:xlink="http://www.w3.org/1999/xlink" xmlns="http://www.w3.org/2000/svg"><path fill="#ffffff" d="M0 0L898.0 0L898.0 555.0L0 555.0L0 0Z" fill-rule="nonzero"/><path fill="#ffffff" d="M0 0L898.0 0L898.0 555.0L0 555.0L0 0Z" fill-rule="nonzero"/><path stroke="#333333" stroke-width="1.0" stroke-linecap="butt" d="M63.5 437.5L870.5 437.5" fill-rule="nonzero"/><path stroke="#cccccc" stroke-width="1.0" stroke-linecap="butt" d="M63.5 336.5L870.5 336.5" fill-rule="nonzero"/><path stroke="#cccccc" stroke-width="1.0" stroke-linecap="butt" d="M63.5 236.5L870.5 236.5" fill-rule="nonzero"/><path stroke="#cccccc" stroke-width="1.0" stroke-linecap="butt" d="M63.5 135.5L870.5 135.5" fill-rule="nonzero"/><path stroke="#cccccc" stroke-width="1.0" stroke-linecap="butt" d="M63.5 35.5L870.5 35.5" fill-rule="nonzero"/><clipPath id="id_0"><path d="M63.75 35.25L870.25 35.25L870.25 437.45786L63.75 437.45786L63.75 35.25Z" clip-rule="nonzero"/></clipPath><path stroke="#000000" stroke-width="0.0" stroke-linecap="butt" stroke-opacity="0.0" clip-path="url(#id_0)" d="M142.0 437.0L91.0 437.0L91.0 337.0C91.0 335.89542 91.89543 335.0 93.0 335.0L140.0 335.0C141.10457 335.0 142.0 335.89542 142.0 337.0Z" fill-rule="nonzero"/><path fill="#4285f4" clip-path="url(#id_0)" d="M142.0 437.0L91.0 437.0L91.0 337.0C91.0 335.89542 91.89543 335.0 93.0 335.0L140.0 335.0C141.10457 335.0 142.0 335.89542 142.0 337.0Z" fill-rule="nonzero"/><path stroke="#000000" stroke-width="0.0" stroke-linecap="butt" stroke-opacity="0.0" clip-path="url(#id_0)" d="M220.0 437.0L169.0 437.0L169.0 238.0C169.0 236.89543 169.89543 236.0 171.0 236.0L218.0 236.0C219.10457 236.0 220.0 236.89543 220.0 238.0Z" fill-rule="nonzero"/><path fill="#4285f4" clip-path="url(#id_0)" d="M220.0 437.0L169.0 437.0L169.0 238.0C169.0 236.89543 169.89543 236.0 171.0 236.0L218.0 236.0C219.10457 236.0 220.0 236.89543 220.0 238.0Z" fill-rule="nonzero"/><path stroke="#000000" stroke-width="0.0" stroke-linecap="butt" stroke-opacity="0.0" clip-path="url(#id_0)" d="M298.0 437.0L247.0 437.0L247.0 135.0C247.0 133.89543 247.89543 133.0 249.0 133.0L296.0 133.0C297.10458 133.0 298.0 133.89543 298.0 135.0Z" fill-rule="nonzero"/><path fill="#4285f4" clip-path="url(#id_0)" d="M298.0 437.0L247.0 437.0L247.0 135.0C247.0 133.89543 247.89543 133.0 249.0 133.0L296.0 133.0C297.10458 133.0 298.0 133.89543 298.0 135.0Z" fill-rule="nonzero"/><path stroke="#000000" stroke-width="0.0" stroke-linecap="butt" stroke-opacity="0.0" clip-path="url(#id_0)" d="M376.0 437.0L325.0 437.0L325.0 230.0C325.0 228.89543 325.89542 228.0 327.0 228.0L374.0 228.0C375.10458 228.0 376.0 228.89543 376.0 230.0Z" fill-rule="nonzero"/><path fill="#4285f4" clip-path="url(#id_0)" d="M376.0 437.0L325.0 437.0L325.0 230.0C325.0 228.89543 325.89542 228.0 327.0 228.0L374.0 228.0C375.10458 228.0 376.0 228.89543 376.0 230.0Z" fill-rule="nonzero"/><path stroke="#000000" stroke-width="0.0" stroke-linecap="butt" stroke-opacity="0.0" clip-path="url(#id_0)" d="M454.0 437.0L403.0 437.0L403.0 207.0C403.0 205.89543 403.89542 205.0 405.0 205.0L452.0 205.0C453.10458 205.0 454.0 205.89543 454.0 207.0Z" fill-rule="nonzero"/><path fill="#4285f4" clip-path="url(#id_0)" d="M454.0 437.0L403.0 437.0L403.0 207.0C403.0 205.89543 403.89542 205.0 405.0 205.0L452.0 205.0C453.10458 205.0 454.0 205.89543 454.0 207.0Z" fill-rule="nonzero"/><path stroke="#000000" stroke-width="0.0" stroke-linecap="butt" stroke-opacity="0.0" clip-path="url(#id_0)" d="M532.0 437.0L481.0 437.0L481.0 219.0C481.0 217.89543 481.89542 217.0 483.0 217.0L530.0 217.0C531.10455 217.0 532.0 217.89543 532.0 219.0Z" fill-rule="nonzero"/><path fill="#4285f4" clip-path="url(#id_0)" d="M532.0 437.0L481.0 437.0L481.0 219.0C481.0 217.89543 481.89542 217.0 483.0 217.0L530.0 217.0C531.10455 217.0 532.0 217.89543 532.0 219.0Z" fill-rule="nonzero"/><path stroke="#000000" stroke-width="0.0" stroke-linecap="butt" stroke-opacity="0.0" clip-path="url(#id_0)" d="M610.0 437.0L559.0 437.0L559.0 210.0C559.0 208.89543 559.89545 208.0 561.0 208.0L608.0 208.0C609.10455 208.0 610.0 208.89543 610.0 210.0Z" fill-rule="nonzero"/><path fill="#4285f4" clip-path="url(#id_0)" d="M610.0 437.0L559.0 437.0L559.0 210.0C559.0 208.89543 559.89545 208.0 561.0 208.0L608.0 208.0C609.10455 208.0 610.0 208.89543 610.0 210.0Z" fill-rule="nonzero"/><path stroke="#000000" stroke-width="0.0" stroke-linecap="butt" stroke-opacity="0.0" clip-path="url(#id_0)" d="M688.0 437.0L637.0 437.0L637.0 202.0C637.0 200.89543 637.89545 200.0 639.0 200.0L686.0 200.0C687.10455 200.0 688.0 200.89543 688.0 202.0Z" fill-rule="nonzero"/><path fill="#4285f4" clip-path="url(#id_0)" d="M688.0 437.0L637.0 437.0L637.0 202.0C637.0 200.89543 637.89545 200.0 639.0 200.0L686.0 200.0C687.10455 200.0 688.0 200.89543 688.0 202.0Z" fill-rule="nonzero"/><path stroke="#000000" stroke-width="0.0" stroke-linecap="butt" stroke-opacity="0.0" clip-path="url(#id_0)" d="M766.0 437.0L715.0 437.0L715.0 231.0C715.0 229.89543 715.89545 229.0 717.0 229.0L764.0 229.0C765.10455 229.0 766.0 229.89543 766.0 231.0Z" fill-rule="nonzero"/><path fill="#4285f4" clip-path="url(#id_0)" d="M766.0 437.0L715.0 437.0L715.0 231.0C715.0 229.89543 715.89545 229.0 717.0 229.0L764.0 229.0C765.10455 229.0 766.0 229.89543 766.0 231.0Z" fill-rule="nonzero"/><path stroke="#000000" stroke-width="0.0" stroke-linecap="butt" stroke-opacity="0.0" clip-path="url(#id_0)" d="M844.0 437.0L793.0 437.0L793.0 238.0C793.0 236.89543 793.89545 236.0 795.0 236.0L842.0 236.0C843.10455 236.0 844.0 236.89543 844.0 238.0Z" fill-rule="nonzero"/><path fill="#4285f4" clip-path="url(#id_0)" d="M844.0 437.0L793.0 437.0L793.0 238.0C793.0 236.89543 793.89545 236.0 795.0 236.0L842.0 236.0C843.10455 236.0 844.0 236.89543 844.0 238.0Z" fill-rule="nonzero"/><path fill="#757575" d="M47.8125 438.31723Q47.8125 440.22348 47.15625 441.16098Q46.515625 442.08286 45.125 442.08286Q43.765625 442.08286 43.109375 441.1766Q42.453125 440.27036 42.421875 438.45786L42.421875 437.02036Q42.421875 435.12973 43.0625 434.22348Q43.71875 433.3016 45.109375 433.3016Q46.484375 433.3016 47.140625 434.19223Q47.796875 435.06723 47.8125 436.91098L47.8125 438.31723ZM46.71875 436.83286Q46.71875 435.45786 46.328125 434.83286Q45.953125 434.19223 45.109375 434.19223Q44.28125 434.19223 43.890625 434.83286Q43.515625 435.45786 43.515625 436.75473L43.515625 438.4891Q43.515625 439.8641 43.90625 440.53598Q44.3125 441.19223 45.125 441.19223Q45.921875 441.19223 46.3125 440.56723Q46.703125 439.94223 46.71875 438.6141L46.71875 436.83286ZM49.359375 435.06723Q49.359375 434.3016 49.84375 433.8016Q50.34375 433.3016 51.109375 433.3016Q51.890625 433.3016 52.375 433.8016Q52.859375 434.3016 52.859375 435.09848L52.859375 435.52036Q52.859375 436.28598 52.359375 436.78598Q51.875 437.27036 51.125 437.27036Q50.359375 437.27036 49.859375 436.78598Q49.359375 436.28598 49.359375 435.47348L49.359375 435.06723ZM50.171875 435.52036Q50.171875 435.97348 50.421875 436.27036Q50.6875 436.56723 51.125 436.56723Q51.546875 436.56723 51.796875 436.28598Q52.046875 435.9891 52.046875 435.4891L52.046875 435.06723Q52.046875 434.6141 51.796875 434.31723Q51.546875 434.00473 51.109375 434.00473Q50.671875 434.00473 50.421875 434.31723Q50.171875 434.6141 50.171875 435.08286L50.171875 435.52036ZM53.515625 439.8641Q53.515625 439.09848 54.0 438.6141Q54.5 438.1141 55.265625 438.1141Q56.03125 438.1141 56.515625 438.6141Q57.015625 439.09848 57.015625 439.91098L57.015625 440.31723Q57.015625 441.08286 56.53125 441.58286Q56.046875 442.08286 55.28125 442.08286Q54.515625 442.08286 54.015625 441.59848Q53.515625 441.09848 53.515625 440.28598L53.515625 439.8641ZM54.328125 440.31723Q54.328125 440.78598 54.578125 441.08286Q54.84375 441.37973 55.28125 441.37973Q55.703125 441.37973 55.953125 441.09848Q56.203125 440.8016 56.203125 440.3016L56.203125 439.8641Q56.203125 439.39536 55.9375 439.1141Q55.6875 438.81723 55.265625 438.81723Q54.84375 438.81723 54.578125 439.1141Q54.328125 439.39536 54.328125 439.89536L54.328125 440.31723ZM51.375 441.31723L50.75 440.9266L54.921875 434.25473L55.53125 434.64536L51.375 441.31723Z" fill-rule="nonzero"/><path fill="#757575" d="M35.953125 337.12463L36.390625 332.87463L40.765625 332.87463L40.765625 333.87463L37.3125 333.87463L37.046875 336.20276Q37.6875 335.82776 38.484375 335.82776Q39.640625 335.82776 40.328125 336.609Q41.015625 337.37463 41.015625 338.68713Q41.015625 339.99963 40.296875 340.76526Q39.59375 341.53088 38.3125 341.53088Q37.1875 341.53088 36.46875 340.90588Q35.75 340.26526 35.65625 339.15588L36.671875 339.15588Q36.78125 339.89026 37.203125 340.26526Q37.625 340.64026 38.3125 340.64026Q39.0625 340.64026 39.5 340.12463Q39.9375 339.609 39.9375 338.70276Q39.9375 337.84338 39.46875 337.32776Q39.0 336.81213 38.21875 336.81213Q37.515625 336.81213 37.109375 337.109L36.828125 337.34338L35.953125 337.12463ZM47.8125 337.76526Q47.8125 339.6715 47.15625 340.609Q46.515625 341.53088 45.125 341.53088Q43.765625 341.53088 43.109375 340.62463Q42.453125 339.71838 42.421875 337.90588L42.421875 336.46838Q42.421875 334.57776 43.0625 333.6715Q43.71875 332.74963 45.109375 332.74963Q46.484375 332.74963 47.140625 333.64026Q47.796875 334.51526 47.8125 336.359L47.8125 337.76526ZM46.71875 336.28088Q46.71875 334.90588 46.328125 334.28088Q45.953125 333.64026 45.109375 333.64026Q44.28125 333.64026 43.890625 334.28088Q43.515625 334.90588 43.515625 336.20276L43.515625 337.93713Q43.515625 339.31213 43.90625 339.984Q44.3125 340.64026 45.125 340.64026Q45.921875 340.64026 46.3125 340.01526Q46.703125 339.39026 46.71875 338.06213L46.71875 336.28088ZM49.359375 334.51526Q49.359375 333.74963 49.84375 333.24963Q50.34375 332.74963 51.109375 332.74963Q51.890625 332.74963 52.375 333.24963Q52.859375 333.74963 52.859375 334.5465L52.859375 334.96838Q52.859375 335.734 52.359375 336.234Q51.875 336.71838 51.125 336.71838Q50.359375 336.71838 49.859375 336.234Q49.359375 335.734 49.359375 334.9215L49.359375 334.51526ZM50.171875 334.96838Q50.171875 335.4215 50.421875 335.71838Q50.6875 336.01526 51.125 336.01526Q51.546875 336.01526 51.796875 335.734Q52.046875 335.43713 52.046875 334.93713L52.046875 334.51526Q52.046875 334.06213 51.796875 333.76526Q51.546875 333.45276 51.109375 333.45276Q50.671875 333.45276 50.421875 333.76526Q50.171875 334.06213 50.171875 334.53088L50.171875 334.96838ZM53.515625 339.31213Q53.515625 338.5465 54.0 338.06213Q54.5 337.56213 55.265625 337.56213Q56.03125 337.56213 56.515625 338.06213Q57.015625 338.5465 57.015625 339.359L57.015625 339.76526Q57.015625 340.53088 56.53125 341.03088Q56.046875 341.53088 55.28125 341.53088Q54.515625 341.53088 54.015625 341.0465Q53.515625 340.5465 53.515625 339.734L53.515625 339.31213ZM54.328125 339.76526Q54.328125 340.234 54.578125 340.53088Q54.84375 340.82776 55.28125 340.82776Q55.703125 340.82776 55.953125 340.5465Q56.203125 340.24963 56.203125 339.74963L56.203125 339.31213Q56.203125 338.84338 55.9375 338.56213Q55.6875 338.26526 55.265625 338.26526Q54.84375 338.26526 54.578125 338.56213Q54.328125 338.84338 54.328125 339.34338L54.328125 339.76526ZM51.375 340.76526L50.75 340.37463L54.921875 333.70276L55.53125 334.09338L51.375 340.76526Z" fill-rule="nonzero"/><path fill="#757575" d="M32.015625 240.85393L30.9375 240.85393L30.9375 233.63518L28.75 234.43205L28.75 233.44768L31.859375 232.2758L32.015625 232.2758L32.015625 240.85393ZM40.8125 237.2133Q40.8125 239.11955 40.15625 240.05705Q39.515625 240.97893 38.125 240.97893Q36.765625 240.97893 36.109375 240.07268Q35.453125 239.16643 35.421875 237.35393L35.421875 235.91643Q35.421875 234.0258 36.0625 233.11955Q36.71875 232.19768 38.109375 232.19768Q39.484375 232.19768 40.140625 233.0883Q40.796875 233.9633 40.8125 235.80705L40.8125 237.2133ZM39.71875 235.72893Q39.71875 234.35393 39.328125 233.72893Q38.953125 233.0883 38.109375 233.0883Q37.28125 233.0883 36.890625 233.72893Q36.515625 234.35393 36.515625 235.6508L36.515625 237.38518Q36.515625 238.76018 36.90625 239.43205Q37.3125 240.0883 38.125 240.0883Q38.921875 240.0883 39.3125 239.4633Q39.703125 238.8383 39.71875 237.51018L39.71875 235.72893ZM47.8125 237.2133Q47.8125 239.11955 47.15625 240.05705Q46.515625 240.97893 45.125 240.97893Q43.765625 240.97893 43.109375 240.07268Q42.453125 239.16643 42.421875 237.35393L42.421875 235.91643Q42.421875 234.0258 43.0625 233.11955Q43.71875 232.19768 45.109375 232.19768Q46.484375 232.19768 47.140625 233.0883Q47.796875 233.9633 47.8125 235.80705L47.8125 237.2133ZM46.71875 235.72893Q46.71875 234.35393 46.328125 233.72893Q45.953125 233.0883 45.109375 233.0883Q44.28125 233.0883 43.890625 233.72893Q43.515625 234.35393 43.515625 235.6508L43.515625 237.38518Q43.515625 238.76018 43.90625 239.43205Q44.3125 240.0883 45.125 240.0883Q45.921875 240.0883 46.3125 239.4633Q46.703125 238.8383 46.71875 237.51018L46.71875 235.72893ZM49.359375 233.9633Q49.359375 233.19768 49.84375 232.69768Q50.34375 232.19768 51.109375 232.19768Q51.890625 232.19768 52.375 232.69768Q52.859375 233.19768 52.859375 233.99455L52.859375 234.41643Q52.859375 235.18205 52.359375 235.68205Q51.875 236.16643 51.125 236.16643Q50.359375 236.16643 49.859375 235.68205Q49.359375 235.18205 49.359375 234.36955L49.359375 233.9633ZM50.171875 234.41643Q50.171875 234.86955 50.421875 235.16643Q50.6875 235.4633 51.125 235.4633Q51.546875 235.4633 51.796875 235.18205Q52.046875 234.88518 52.046875 234.38518L52.046875 233.9633Q52.046875 233.51018 51.796875 233.2133Q51.546875 232.9008 51.109375 232.9008Q50.671875 232.9008 50.421875 233.2133Q50.171875 233.51018 50.171875 233.97893L50.171875 234.41643ZM53.515625 238.76018Q53.515625 237.99455 54.0 237.51018Q54.5 237.01018 55.265625 237.01018Q56.03125 237.01018 56.515625 237.51018Q57.015625 237.99455 57.015625 238.80705L57.015625 239.2133Q57.015625 239.97893 56.53125 240.47893Q56.046875 240.97893 55.28125 240.97893Q54.515625 240.97893 54.015625 240.49455Q53.515625 239.99455 53.515625 239.18205L53.515625 238.76018ZM54.328125 239.2133Q54.328125 239.68205 54.578125 239.97893Q54.84375 240.2758 55.28125 240.2758Q55.703125 240.2758 55.953125 239.99455Q56.203125 239.69768 56.203125 239.19768L56.203125 238.76018Q56.203125 238.29143 55.9375 238.01018Q55.6875 237.7133 55.265625 237.7133Q54.84375 237.7133 54.578125 238.01018Q54.328125 238.29143 54.328125 238.79143L54.328125 239.2133ZM51.375 240.2133L50.75 239.82268L54.921875 233.1508L55.53125 233.54143L51.375 240.2133Z" fill-rule="nonzero"/><path fill="#757575" d="M32.015625 140.30196L30.9375 140.30196L30.9375 133.0832L28.75 133.88008L28.75 132.8957L31.859375 131.72383L32.015625 131.72383L32.015625 140.30196ZM35.953125 136.0207L36.390625 131.7707L40.765625 131.7707L40.765625 132.7707L37.3125 132.7707L37.046875 135.09883Q37.6875 134.72383 38.484375 134.72383Q39.640625 134.72383 40.328125 135.50508Q41.015625 136.2707 41.015625 137.5832Q41.015625 138.8957 40.296875 139.66133Q39.59375 140.42696 38.3125 140.42696Q37.1875 140.42696 36.46875 139.80196Q35.75 139.16133 35.65625 138.05196L36.671875 138.05196Q36.78125 138.78633 37.203125 139.16133Q37.625 139.53633 38.3125 139.53633Q39.0625 139.53633 39.5 139.0207Q39.9375 138.50508 39.9375 137.59883Q39.9375 136.73946 39.46875 136.22383Q39.0 135.7082 38.21875 135.7082Q37.515625 135.7082 37.109375 136.00508L36.828125 136.23946L35.953125 136.0207ZM47.8125 136.66133Q47.8125 138.56758 47.15625 139.50508Q46.515625 140.42696 45.125 140.42696Q43.765625 140.42696 43.109375 139.5207Q42.453125 138.61446 42.421875 136.80196L42.421875 135.36446Q42.421875 133.47383 43.0625 132.56758Q43.71875 131.6457 45.109375 131.6457Q46.484375 131.6457 47.140625 132.53633Q47.796875 133.41133 47.8125 135.25508L47.8125 136.66133ZM46.71875 135.17696Q46.71875 133.80196 46.328125 133.17696Q45.953125 132.53633 45.109375 132.53633Q44.28125 132.53633 43.890625 133.17696Q43.515625 133.80196 43.515625 135.09883L43.515625 136.8332Q43.515625 138.2082 43.90625 138.88008Q44.3125 139.53633 45.125 139.53633Q45.921875 139.53633 46.3125 138.91133Q46.703125 138.28633 46.71875 136.9582L46.71875 135.17696ZM49.359375 133.41133Q49.359375 132.6457 49.84375 132.1457Q50.34375 131.6457 51.109375 131.6457Q51.890625 131.6457 52.375 132.1457Q52.859375 132.6457 52.859375 133.44258L52.859375 133.86446Q52.859375 134.63008 52.359375 135.13008Q51.875 135.61446 51.125 135.61446Q50.359375 135.61446 49.859375 135.13008Q49.359375 134.63008 49.359375 133.81758L49.359375 133.41133ZM50.171875 133.86446Q50.171875 134.31758 50.421875 134.61446Q50.6875 134.91133 51.125 134.91133Q51.546875 134.91133 51.796875 134.63008Q52.046875 134.3332 52.046875 133.8332L52.046875 133.41133Q52.046875 132.9582 51.796875 132.66133Q51.546875 132.34883 51.109375 132.34883Q50.671875 132.34883 50.421875 132.66133Q50.171875 132.9582 50.171875 133.42696L50.171875 133.86446ZM53.515625 138.2082Q53.515625 137.44258 54.0 136.9582Q54.5 136.4582 55.265625 136.4582Q56.03125 136.4582 56.515625 136.9582Q57.015625 137.44258 57.015625 138.25508L57.015625 138.66133Q57.015625 139.42696 56.53125 139.92696Q56.046875 140.42696 55.28125 140.42696Q54.515625 140.42696 54.015625 139.94258Q53.515625 139.44258 53.515625 138.63008L53.515625 138.2082ZM54.328125 138.66133Q54.328125 139.13008 54.578125 139.42696Q54.84375 139.72383 55.28125 139.72383Q55.703125 139.72383 55.953125 139.44258Q56.203125 139.1457 56.203125 138.6457L56.203125 138.2082Q56.203125 137.73946 55.9375 137.4582Q55.6875 137.16133 55.265625 137.16133Q54.84375 137.16133 54.578125 137.4582Q54.328125 137.73946 54.328125 138.23946L54.328125 138.66133ZM51.375 139.66133L50.75 139.2707L54.921875 132.59883L55.53125 132.98946L51.375 139.66133Z" fill-rule="nonzero"/><path fill="#757575" d="M34.046875 39.75L28.453125 39.75L28.453125 38.96875L31.40625 35.6875Q32.0625 34.9375 32.3125 34.484375Q32.5625 34.015625 32.5625 33.515625Q32.5625 32.84375 32.15625 32.421875Q31.765625 31.984375 31.078125 31.984375Q30.28125 31.984375 29.828125 32.453125Q29.375 32.90625 29.375 33.734375L28.296875 33.734375Q28.296875 32.546875 29.046875 31.828125Q29.8125 31.09375 31.078125 31.09375Q32.28125 31.09375 32.96875 31.71875Q33.65625 32.34375 33.65625 33.390625Q33.65625 34.640625 32.046875 36.390625L29.765625 38.859375L34.046875 38.859375L34.046875 39.75ZM40.8125 36.109375Q40.8125 38.015625 40.15625 38.953125Q39.515625 39.875 38.125 39.875Q36.765625 39.875 36.109375 38.96875Q35.453125 38.0625 35.421875 36.25L35.421875 34.8125Q35.421875 32.921875 36.0625 32.015625Q36.71875 31.09375 38.109375 31.09375Q39.484375 31.09375 40.140625 31.984375Q40.796875 32.859375 40.8125 34.703125L40.8125 36.109375ZM39.71875 34.625Q39.71875 33.25 39.328125 32.625Q38.953125 31.984375 38.109375 31.984375Q37.28125 31.984375 36.890625 32.625Q36.515625 33.25 36.515625 34.546875L36.515625 36.28125Q36.515625 37.65625 36.90625 38.328125Q37.3125 38.984375 38.125 38.984375Q38.921875 38.984375 39.3125 38.359375Q39.703125 37.734375 39.71875 36.40625L39.71875 34.625ZM47.8125 36.109375Q47.8125 38.015625 47.15625 38.953125Q46.515625 39.875 45.125 39.875Q43.765625 39.875 43.109375 38.96875Q42.453125 38.0625 42.421875 36.25L42.421875 34.8125Q42.421875 32.921875 43.0625 32.015625Q43.71875 31.09375 45.109375 31.09375Q46.484375 31.09375 47.140625 31.984375Q47.796875 32.859375 47.8125 34.703125L47.8125 36.109375ZM46.71875 34.625Q46.71875 33.25 46.328125 32.625Q45.953125 31.984375 45.109375 31.984375Q44.28125 31.984375 43.890625 32.625Q43.515625 33.25 43.515625 34.546875L43.515625 36.28125Q43.515625 37.65625 43.90625 38.328125Q44.3125 38.984375 45.125 38.984375Q45.921875 38.984375 46.3125 38.359375Q46.703125 37.734375 46.71875 36.40625L46.71875 34.625ZM49.359375 32.859375Q49.359375 32.09375 49.84375 31.59375Q50.34375 31.09375 51.109375 31.09375Q51.890625 31.09375 52.375 31.59375Q52.859375 32.09375 52.859375 32.890625L52.859375 33.3125Q52.859375 34.078125 52.359375 34.578125Q51.875 35.0625 51.125 35.0625Q50.359375 35.0625 49.859375 34.578125Q49.359375 34.078125 49.359375 33.265625L49.359375 32.859375ZM50.171875 33.3125Q50.171875 33.765625 50.421875 34.0625Q50.6875 34.359375 51.125 34.359375Q51.546875 34.359375 51.796875 34.078125Q52.046875 33.78125 52.046875 33.28125L52.046875 32.859375Q52.046875 32.40625 51.796875 32.109375Q51.546875 31.796875 51.109375 31.796875Q50.671875 31.796875 50.421875 32.109375Q50.171875 32.40625 50.171875 32.875L50.171875 33.3125ZM53.515625 37.65625Q53.515625 36.890625 54.0 36.40625Q54.5 35.90625 55.265625 35.90625Q56.03125 35.90625 56.515625 36.40625Q57.015625 36.890625 57.015625 37.703125L57.015625 38.109375Q57.015625 38.875 56.53125 39.375Q56.046875 39.875 55.28125 39.875Q54.515625 39.875 54.015625 39.390625Q53.515625 38.890625 53.515625 38.078125L53.515625 37.65625ZM54.328125 38.109375Q54.328125 38.578125 54.578125 38.875Q54.84375 39.171875 55.28125 39.171875Q55.703125 39.171875 55.953125 38.890625Q56.203125 38.59375 56.203125 38.09375L56.203125 37.65625Q56.203125 37.1875 55.9375 36.90625Q55.6875 36.609375 55.265625 36.609375Q54.84375 36.609375 54.578125 36.90625Q54.328125 37.1875 54.328125 37.6875L54.328125 38.109375ZM51.375 39.109375L50.75 38.71875L54.921875 32.046875L55.53125 32.4375L51.375 39.109375Z" fill-rule="nonzero"/><path fill="#757575" d="M102.68078 469.212L101.255516 470.63727L103.69724 473.07898L102.90175 473.87448L96.86925 467.84198L98.86903 465.8422Q99.8855 464.8257 100.890915 464.74838Q101.90738 464.66 102.79127 465.54388Q103.354744 466.10736 103.465225 466.83655Q103.58676 467.55472 103.2553 468.306L107.22173 469.444L107.27698 469.49927L106.42624 470.35L102.68078 469.212ZM100.60365 469.98538L101.83004 468.759Q102.42667 468.16238 102.470856 467.52158Q102.51505 466.85864 101.99577 466.3394Q101.443344 465.78696 100.813576 465.8201Q100.18381 465.85324 99.54299 466.47195L98.316605 467.69833L100.60365 469.98538ZM107.254875 465.72064L108.171906 466.39462L107.61948 465.51074L104.603226 460.108L105.27719 459.43402L110.64678 462.48343L111.54171 463.0469L110.856705 462.09674L107.67472 457.0365L108.470215 456.241L113.04431 463.7319L112.31511 464.46112L106.669304 461.3123L106.116875 460.93665L106.481476 461.50012L109.59717 467.17905L108.867966 467.90826L101.37705 463.33417L102.17255 462.53867L107.254875 465.72064ZM117.12122 455.2798Q118.14874 456.30728 118.30342 457.41214Q118.4581 458.4949 117.662605 459.2904Q116.81187 460.14114 115.74016 459.9975L116.21525 460.56097L115.51919 461.25705L109.15523 454.89307L109.91757 454.13074L112.293015 456.50616Q112.182526 455.4676 113.00012 454.65002Q113.81771 453.83243 114.90047 453.9871Q115.972176 454.13074 117.05493 455.2135L117.12122 455.2798ZM116.270485 455.95374Q115.48604 455.16928 114.756836 455.0588Q114.02763 454.92624 113.46416 455.48972Q112.701805 456.25204 113.066414 457.27957L115.010956 459.22412Q116.07162 459.57767 116.81187 458.8374Q117.364296 458.28497 117.24276 457.54474Q117.12122 456.80447 116.270485 455.95374ZM124.33592 452.4403L120.38055 456.3957L119.82812 455.84326L119.5961 451.43488Q119.52981 450.44052 119.38618 449.94333Q119.2315 449.4351 118.877945 449.08154Q118.402855 448.60645 117.81728 448.5954Q117.23171 448.56226 116.745575 449.0484Q116.1821 449.61188 116.193146 450.26373Q116.193146 450.90457 116.778725 451.49014L116.01637 452.25247Q115.17668 451.41278 115.19878 450.37424Q115.22088 449.31357 116.11581 448.41864Q116.966545 447.5679 117.89462 447.5237Q118.8227 447.47952 119.56296 448.21976Q120.44684 449.10364 120.54627 451.4791L120.678856 454.83783L123.70616 451.81055L124.33592 452.4403Z" fill-rule="nonzero"/><path fill="#757575" d="M188.23802 463.30103L185.7079 465.83115L186.72438 467.97455L185.90678 468.79214L182.17238 460.46155L182.86844 459.7655L191.21008 463.48886L190.39249 464.30646L188.23802 463.30103ZM185.29912 464.93622L187.35414 462.8812L183.50925 461.0913L185.29912 464.93622ZM192.13815 462.56076L186.10565 456.52826L187.81818 454.81573Q188.60263 454.0313 189.5528 453.78824Q190.50298 453.52307 191.47525 453.83243Q192.44753 454.14178 193.2872 454.98148L193.66286 455.35712Q194.52464 456.2189 194.834 457.1912Q195.15442 458.1524 194.8782 459.11362Q194.61304 460.0638 193.81754 460.8814L192.13815 462.56076ZM187.55301 456.38464L192.28178 461.1134L193.12148 460.2737Q194.03851 459.3567 193.98326 458.28497Q193.92802 457.1912 192.86737 456.13052L192.51381 455.77698Q191.4863 454.74945 190.43669 454.67212Q189.38707 454.57266 188.4811 455.45657L187.55301 456.38464ZM200.32513 450.551Q201.16483 451.61166 201.09853 452.73862Q201.0212 453.85452 200.03787 454.83783Q198.96616 455.90955 197.56299 455.78802Q196.14879 455.65543 194.8561 454.36276L194.28157 453.78824Q193.4419 452.94855 193.09938 452.00943Q192.75688 451.07028 192.9668 450.17535Q193.17673 449.28043 193.89488 448.56226Q194.8561 447.60104 195.972 447.5679Q197.09895 447.5237 198.13751 448.3634L197.34203 449.1589Q196.51338 448.5512 195.85046 448.5733Q195.18756 448.59543 194.55779 449.2252Q193.79544 449.98752 193.92802 450.9819Q194.06061 451.97626 195.09917 453.01483L195.68474 453.6004Q196.66806 454.58374 197.66243 454.7605Q198.64575 454.92624 199.386 454.18597Q200.04892 453.52307 200.10416 452.87122Q200.14836 452.20828 199.52963 451.3465L200.32513 450.551Z" fill-rule="nonzero"/><path fill="#757575" d="M236.46223 492.9995L233.93211 495.52963L234.94858 497.67307L234.131 498.49063L230.39658 490.16006L231.09264 489.464L239.43428 493.18735L238.6167 494.00494L236.46223 492.9995ZM233.52332 494.6347L235.57834 492.57968L231.73346 490.78983L233.52332 494.6347ZM240.36237 492.25928L234.32986 486.22678L236.04239 484.51425Q236.82683 483.7298 237.77701 483.48672Q238.72719 483.22156 239.69945 483.5309Q240.67172 483.84027 241.51141 484.67996L241.88707 485.05563Q242.74886 485.91742 243.05821 486.88968Q243.37862 487.8509 243.1024 488.81213Q242.83723 489.7623 242.04175 490.5799L240.36237 492.25928ZM235.77722 486.08313L240.506 490.81192L241.34569 489.97223Q242.26271 489.0552 242.20747 487.9835Q242.15222 486.88968 241.09157 485.829L240.73802 485.47546Q239.7105 484.44797 238.66089 484.3706Q237.61128 484.27118 236.70529 485.15506L235.77722 486.08313ZM248.54933 480.2495Q249.38902 481.31018 249.32274 482.43713Q249.24539 483.553 248.26207 484.53635Q247.19037 485.60806 245.7872 485.4865Q244.37299 485.35394 243.0803 484.06125L242.50578 483.48672Q241.66609 482.64703 241.3236 481.70792Q240.98108 480.7688 241.19101 479.87387Q241.40092 478.9789 242.11908 478.26077Q243.0803 477.29956 244.19621 477.2664Q245.32317 477.2222 246.36172 478.0619L245.56622 478.8574Q244.7376 478.24973 244.07468 478.27182Q243.41176 478.2939 242.782 478.92368Q242.01965 479.68604 242.15222 480.6804Q242.2848 481.67477 243.32338 482.71332L243.90895 483.29892Q244.89227 484.28223 245.88664 484.459Q246.86996 484.62473 247.61021 483.8845Q248.27312 483.22156 248.32837 482.5697Q248.37256 481.9068 247.75385 481.045L248.54933 480.2495ZM252.6373 473.5099L254.32773 471.81946L255.05693 472.54868L253.3665 474.2391L255.26685 476.13943L254.5045 476.9018L252.60416 475.00143L250.91373 476.69186L250.18452 475.96268L251.87495 474.27225L250.11823 472.51553L250.88058 471.75317L252.6373 473.5099ZM255.86346 464.69315L262.75775 467.63208L259.8078 460.74884L260.84637 459.71027L266.87888 465.74277L266.08337 466.53827L263.73004 464.18494L261.27725 461.57748L264.17197 468.44968L263.5643 469.05734L256.7142 466.16263L259.3106 468.60434L261.66397 470.95767L260.86847 471.75317L254.83595 465.72067L255.86346 464.69315ZM265.33206 462.71545Q264.6802 462.0636 264.404 461.27914Q264.13882 460.48367 264.32666 459.7434Q264.50342 458.9921 265.08902 458.40652Q266.00604 457.4895 267.19928 457.5558Q268.40356 457.61105 269.46423 458.6717L269.51947 458.72696Q270.17133 459.3788 270.4365 460.15222Q270.70166 460.9256 270.53595 461.68796Q270.35916 462.43927 269.7515 463.04694Q268.84552 463.9529 267.6412 463.89767Q266.43692 463.8203 265.38733 462.77072L265.33206 462.71545ZM266.2049 462.0415Q266.94516 462.78177 267.74066 462.89224Q268.5472 462.99167 269.12173 462.41714Q269.7073 461.83157 269.5968 461.0361Q269.47528 460.22955 268.64664 459.4009Q267.91742 458.6717 267.1109 458.57227Q266.30435 458.45074 265.71878 459.03632Q265.1553 459.5998 265.25473 460.4063Q265.35416 461.19077 266.2049 462.0415ZM273.2097 457.33484L270.87845 452.7718L271.6629 451.98734L274.53552 458.08612L273.94995 458.6717L267.8401 455.81012L268.62454 455.0257L273.2097 457.33484ZM278.96597 453.83243Q278.04895 454.74948 276.8778 454.7274Q275.70667 454.68317 274.70123 453.67776L274.56866 453.54517Q273.89468 452.87122 273.62952 452.0978Q273.3533 451.3134 273.51904 450.57312Q273.68478 449.81076 274.2151 449.28043Q275.08795 448.4076 276.1486 448.496Q277.20926 448.58438 278.28098 449.6561L278.60138 449.9765L275.56302 453.01486Q276.24805 453.65567 277.02142 453.69986Q277.80588 453.733 278.3804 453.15848Q278.77814 452.76074 278.88864 452.3188Q279.01016 451.8658 278.95493 451.36862L279.78357 451.26917Q280.09293 452.70547 278.96597 453.83243ZM274.84488 449.91022Q274.38083 450.37424 274.40292 451.03717Q274.42502 451.67798 274.9664 452.35193L277.20926 450.10907L277.15402 450.05383Q276.5353 449.5014 275.9276 449.46826Q275.331 449.42407 274.84488 449.91022Z" fill-rule="nonzero"/><path fill="#757575" d="M286.10068 521.28375L283.57056 523.8139L284.58704 525.95734L283.76944 526.7749L280.03503 518.4443L280.73108 517.7482L289.07275 521.4716L288.25516 522.2892L286.10068 521.28375ZM283.16177 522.91895L285.2168 520.86395L281.37192 519.0741L283.16177 522.91895ZM290.00082 520.5435L283.96832 514.51105L285.68085 512.7985Q286.46527 512.01404 287.41547 511.771Q288.36563 511.50583 289.3379 511.8152Q290.31018 512.1245 291.14987 512.96423L291.5255 513.3399Q292.3873 514.20166 292.69666 515.17395Q293.01706 516.13513 292.74084 517.0964Q292.47568 518.0466 291.6802 518.86414L290.00082 520.5435ZM285.41568 514.3674L290.14444 519.0962L290.98413 518.2565Q291.90115 517.3395 291.84592 516.26776Q291.79068 515.17395 290.73 514.1133L290.37646 513.7597Q289.34894 512.7322 288.29935 512.65485Q287.24973 512.5554 286.34375 513.43933L285.41568 514.3674ZM298.18777 508.53375Q299.02747 509.59442 298.96118 510.72137Q298.88385 511.83728 297.9005 512.8206Q296.82883 513.89233 295.42566 513.77075Q294.01144 513.6382 292.71875 512.3455L292.14423 511.771Q291.30453 510.9313 290.96204 509.99216Q290.61954 509.05304 290.82947 508.1581Q291.03937 507.26318 291.75754 506.545Q292.71875 505.5838 293.83466 505.55066Q294.9616 505.50647 296.00018 506.34616L295.20468 507.14163Q294.37604 506.53397 293.71313 506.55606Q293.0502 506.57816 292.42044 507.20795Q291.6581 507.97028 291.79068 508.96466Q291.92325 509.959 292.96182 510.9976L293.5474 511.58316Q294.53073 512.56647 295.5251 512.7433Q296.50842 512.909 297.24866 512.16876Q297.91156 511.50583 297.96683 510.85394Q298.01102 510.19104 297.3923 509.32925L298.18777 508.53375ZM302.27576 501.79416L303.9662 500.10373L304.69537 500.83292L303.00494 502.52335L304.9053 504.4237L304.14294 505.18607L302.2426 503.2857L300.5522 504.97614L299.82297 504.24692L301.5134 502.5565L299.75668 500.79977L300.51904 500.03745L302.27576 501.79416ZM310.50693 500.03745L304.4744 494.0049L306.4521 492.02725Q307.43542 491.0439 308.33035 490.96658Q309.22528 490.86713 310.02078 491.66263Q310.45166 492.09354 310.54007 492.66806Q310.62845 493.2205 310.38538 493.8171Q311.01514 493.4525 311.67807 493.563Q312.34097 493.65137 312.8713 494.1817Q313.6889 494.9993 313.6226 495.99365Q313.56735 496.977 312.60614 497.9382L310.50693 500.03745ZM308.48502 496.42456L310.65054 498.59006L311.96533 497.2753Q312.5288 496.71182 312.56195 496.10416Q312.5951 495.4965 312.08685 494.98825Q311.0041 493.9055 309.81085 495.09872L308.48502 496.42456ZM307.8442 495.78375L309.0485 494.57944Q309.56778 494.06018 309.62302 493.4967Q309.67828 492.91113 309.22528 492.45813Q308.7281 491.96094 308.21988 492.02725Q307.7006 492.0825 307.10397 492.6791L305.92175 493.8613L307.8442 495.78375ZM313.711 489.23196Q313.51212 489.38663 313.31323 489.5855Q312.5509 490.34787 312.92654 491.25385L316.10852 494.43582L315.34616 495.19818L310.86047 490.71246L311.6007 489.9722L312.13104 490.48044Q311.91006 489.50818 312.60614 488.8121Q312.82712 488.59113 313.00388 488.52484L313.711 489.23196ZM320.93674 489.6076Q320.73785 489.54132 320.35117 489.243Q320.3843 490.33682 319.64407 491.07706Q318.98114 491.74 318.1746 491.79523Q317.37912 491.83942 316.79355 491.25385Q316.09747 490.55777 316.24112 489.64075Q316.38474 488.72372 317.35703 487.75146L318.09726 487.0112L317.7437 486.65765Q317.34595 486.2599 316.87088 486.27094Q316.39578 486.2599 315.9207 486.735Q315.5119 487.14377 315.44562 487.6299Q315.3683 488.105 315.6666 488.40332L314.8932 489.17673Q314.5507 488.8342 314.47333 488.29282Q314.40704 487.74042 314.63907 487.15482Q314.86005 486.5582 315.34616 486.07208Q316.1306 485.28763 316.9482 485.24344Q317.77686 485.1882 318.4729 485.84006L320.539 487.90613Q321.1577 488.52484 321.677 488.73477L321.7433 488.80106L320.93674 489.6076ZM319.0806 490.2926Q319.4452 489.928 319.57776 489.41977Q319.71036 488.91156 319.55566 488.4696L318.63864 487.55258L318.04202 488.1492Q316.6278 489.56342 317.45645 490.39206Q317.81 490.7456 318.263 490.71246Q318.70493 490.66827 319.0806 490.2926ZM319.3568 482.21613L319.94238 482.7575Q319.82083 481.5974 320.64948 480.76877Q322.07474 479.3435 323.68784 480.9345L326.64883 483.8955L325.87543 484.6689L322.90338 481.69684Q322.42828 481.22177 321.9753 481.21072Q321.53336 481.18863 321.0693 481.65265Q320.69366 482.02832 320.6053 482.51443Q320.52795 482.98953 320.69366 483.46463L323.8867 486.65765L323.12436 487.41998L318.63864 482.9343L319.3568 482.21613ZM329.32257 480.139Q329.73138 479.7302 329.79767 479.1778Q329.8529 478.61432 329.5104 478.2055L330.23962 477.47632Q330.60422 477.8851 330.70364 478.49277Q330.8031 479.07834 330.60422 479.69705Q330.41638 480.30472 329.95236 480.76877Q329.0353 481.6858 327.88626 481.6195Q326.7372 481.53113 325.67657 480.47046L325.54398 480.3379Q324.89212 479.686 324.6159 478.94577Q324.35074 478.19446 324.51648 477.47632Q324.6822 476.73605 325.3009 476.11734Q326.05222 475.36603 327.00238 475.32184Q327.95258 475.25555 328.7149 475.9516L327.98572 476.68082Q327.51062 476.272 326.9361 476.2941Q326.36157 476.31622 325.9307 476.7471Q325.3451 477.33267 325.44455 478.07294Q325.54398 478.81317 326.33948 479.60867L326.4831 479.75232Q327.2565 480.5257 327.99677 480.62515Q328.737 480.72458 329.32257 480.139ZM329.13477 473.52094Q329.02426 472.39398 329.84186 471.5764Q331.26712 470.15112 332.88022 471.74213L335.84122 474.70312L335.0678 475.47653L332.09576 472.50446Q331.62067 472.0294 331.1677 472.0183Q330.72574 471.99622 330.26172 472.46027Q329.88605 472.8359 329.79767 473.32205Q329.72034 473.79715 329.88605 474.27222L333.0791 477.46527L332.31674 478.2276L325.9528 471.86365L326.71512 471.1013L329.13477 473.52094ZM338.23877 472.30557L337.44327 473.10107L331.41077 467.06857L332.20624 466.27307L338.23877 472.30557ZM339.76346 470.78088L335.87436 466.8918L335.16727 467.5989L334.57065 467.0023L335.27774 466.29517L334.82477 465.8422Q334.09555 465.11298 334.0845 464.35065Q334.07346 463.5662 334.78055 462.85907Q335.04572 462.59393 335.3772 462.39505L335.96277 463.069Q335.7197 463.2237 335.50977 463.4336Q335.13412 463.80927 335.14517 464.24014Q335.16727 464.66 335.565 465.05774L336.0401 465.53284L337.0013 464.5716L337.59793 465.16824L336.63672 466.12946L340.52582 470.01852L339.76346 470.78088ZM342.27148 466.96915L345.72968 463.51096L346.38153 464.1628L341.98422 468.56012L341.3876 467.9635L339.91812 459.86493L336.6588 463.12424L336.00696 462.47238L340.21646 458.26288L340.80203 458.84845L342.27148 466.96915ZM349.11053 461.6106Q348.19348 462.52762 347.02234 462.50552Q345.8512 462.46133 344.8458 461.45593L344.7132 461.32333Q344.03925 460.64938 343.77408 459.87598Q343.49786 459.09152 343.6636 458.3513Q343.8293 457.58893 344.35965 457.0586Q345.23248 456.18576 346.29315 456.27414Q347.3538 456.36255 348.4255 457.43423L348.7459 457.75467L345.70758 460.793Q346.39258 461.4338 347.166 461.47803Q347.95044 461.51117 348.52496 460.93665Q348.9227 460.53888 349.03317 460.09695Q349.15472 459.64395 349.0995 459.14676L349.92813 459.04733Q350.2375 460.48364 349.11053 461.6106ZM344.9894 457.68835Q344.5254 458.1524 344.5475 458.8153Q344.56958 459.45615 345.11096 460.1301L347.3538 457.88724L347.29855 457.832Q346.67984 457.27957 346.07217 457.24643Q345.47556 457.20224 344.9894 457.68835ZM349.77344 453.16953Q349.57455 453.3242 349.3757 453.52307Q348.61334 454.2854 348.98898 455.1914L352.17096 458.37338L351.40863 459.1357L346.9229 454.65002L347.66318 453.90976L348.19348 454.418Q347.97253 453.4457 348.66858 452.74966Q348.88956 452.5287 349.0663 452.4624L349.77344 453.16953ZM351.74008 454.23016Q351.08823 453.5783 350.812 452.79385Q350.54684 451.99835 350.73465 451.25812Q350.91144 450.5068 351.497 449.92123Q352.41403 449.0042 353.60727 449.0705Q354.81158 449.12573 355.87222 450.1864L355.9275 450.24164Q356.57935 450.89352 356.8445 451.6669Q357.10968 452.4403 356.94394 453.20267Q356.76715 453.95395 356.1595 454.5616Q355.2535 455.46762 354.04922 455.41235Q352.84494 455.33502 351.79532 454.2854L351.74008 454.23016ZM352.6129 453.5562Q353.35315 454.29645 354.14865 454.40695Q354.9552 454.50638 355.52972 453.93185Q356.1153 453.34628 356.00482 452.55078Q355.88327 451.74426 355.05463 450.91562Q354.32544 450.1864 353.5189 450.08698Q352.71234 449.96542 352.12677 450.551Q351.5633 451.11447 351.66275 451.92102Q351.76218 452.70547 352.6129 453.5562Z" fill-rule="nonzero"/><path fill="#757575" d="M394.429 490.8782L391.89886 493.40833L392.9153 495.55173L392.09772 496.36932L388.3633 488.03873L389.0594 487.34265L397.40103 491.066L396.58344 491.8836L394.429 490.8782ZM391.49005 492.51337L393.54507 490.45834L389.7002 488.6685L391.49005 492.51337ZM398.3291 490.13794L392.2966 484.10544L394.00912 482.3929Q394.79358 481.60846 395.74374 481.3654Q396.69394 481.10022 397.6662 481.4096Q398.63846 481.71896 399.47815 482.55865L399.85382 482.9343Q400.7156 483.79608 401.02496 484.76834Q401.34537 485.72958 401.06915 486.6908Q400.804 487.64096 400.00848 488.45856L398.3291 490.13794ZM393.74396 483.9618L398.47275 488.69058L399.31244 487.8509Q400.22946 486.93387 400.17422 485.86215Q400.119 484.76834 399.05832 483.7077L398.70477 483.35413Q397.67725 482.32663 396.62762 482.24927Q395.57803 482.14984 394.67203 483.03372L393.74396 483.9618ZM406.51608 478.12817Q407.35577 479.18884 407.2895 480.3158Q407.21213 481.4317 406.22882 482.415Q405.1571 483.48672 403.75394 483.36517Q402.33972 483.2326 401.04706 481.9399L400.47253 481.3654Q399.63284 480.5257 399.29034 479.58658Q398.9478 478.64746 399.15775 477.75253Q399.36768 476.8576 400.08582 476.13943Q401.04706 475.17822 402.16296 475.14508Q403.28992 475.10086 404.32846 475.94055L403.53296 476.73605Q402.70435 476.1284 402.0414 476.15048Q401.3785 476.17258 400.74875 476.80234Q399.9864 477.5647 400.119 478.55908Q400.25156 479.55344 401.29013 480.592L401.8757 481.17758Q402.859 482.1609 403.8534 482.33768Q404.8367 482.5034 405.57697 481.76315Q406.23987 481.10022 406.2951 480.44836Q406.3393 479.78546 405.72058 478.92368L406.51608 478.12817ZM410.60403 471.38855L412.29446 469.69815L413.02368 470.42734L411.33325 472.11777L413.23358 474.01813L412.47125 474.78046L410.5709 472.88013L408.88046 474.57056L408.15128 473.84134L409.8417 472.1509L408.08496 470.3942L408.84732 469.63184L410.60403 471.38855ZM417.26633 466.47195L419.6307 468.83636L418.8352 469.63184L412.8027 463.59933L415.03452 461.36752Q416.01782 460.38422 417.08954 460.32898Q418.1502 460.26266 418.9899 461.10236Q419.86273 461.9752 419.78537 463.00272Q419.7191 464.0192 418.6916 465.0467L417.26633 466.47195ZM416.61444 465.8201L418.05075 464.3838Q418.6916 463.74298 418.72473 463.1132Q418.76892 462.47238 418.20544 461.9089Q417.66406 461.36752 417.00116 461.38962Q416.33823 461.38962 415.73056 461.9752L414.25006 463.45572L416.61444 465.8201ZM426.3261 462.31772Q425.4091 463.23474 424.23795 463.21265Q423.0668 463.16846 422.06137 462.16302L421.9288 462.03046Q421.25482 461.35648 420.9897 460.5831Q420.71347 459.79865 420.87918 459.05838Q421.04492 458.29605 421.57526 457.76572Q422.4481 456.89288 423.50873 456.98126Q424.5694 457.06964 425.6411 458.14136L425.96152 458.46176L422.92316 461.50012Q423.6082 462.14093 424.38156 462.18512Q425.16602 462.21826 425.74054 461.64374Q426.1383 461.246 426.24878 460.80405Q426.3703 460.35107 426.31506 459.85388L427.1437 459.75446Q427.45306 461.19077 426.3261 462.31772ZM422.20502 458.39548Q421.74097 458.85953 421.76306 459.52243Q421.78516 460.16324 422.32654 460.83722L424.5694 458.59436L424.51416 458.5391Q423.89545 457.9867 423.28778 457.95352Q422.69116 457.90933 422.20502 458.39548ZM430.56876 458.07507Q429.65173 458.9921 428.4806 458.97Q427.30945 458.9258 426.30402 457.92038L426.17145 457.7878Q425.49747 457.11383 425.2323 456.34045Q424.9561 455.556 425.12183 454.81573Q425.28757 454.0534 425.81787 453.52307Q426.69073 452.65024 427.75137 452.73862Q428.81204 452.827 429.88376 453.8987L430.20416 454.21912L427.1658 457.25748Q427.85083 457.8983 428.6242 457.94247Q429.40866 457.97562 429.9832 457.4011Q430.38092 457.00336 430.49142 456.56143Q430.61295 456.10843 430.5577 455.61124L431.38635 455.5118Q431.6957 456.94812 430.56876 458.07507ZM426.44766 454.15283Q425.9836 454.61688 426.0057 455.2798Q426.0278 455.9206 426.56918 456.59457L428.81204 454.3517L428.7568 454.29648Q428.1381 453.74405 427.5304 453.7109Q426.93378 453.6667 426.44766 454.15283ZM432.0382 452.2746L432.04926 453.2579L433.6292 454.83786L432.86685 455.6002L426.5029 449.23624L427.26526 448.47388L431.11014 452.3188L431.0328 451.42386L430.95544 448.54016L431.88354 447.6121L432.0161 451.23602L436.57916 451.88788L435.6732 452.79385L432.0382 452.2746Z" fill-rule="nonzero"/><path fill="#757575" d="M443.3603 519.86957L440.83017 522.3997L441.84665 524.5431L441.02905 525.3607L437.29465 517.0301L437.9907 516.33405L446.33237 520.0574L445.51477 520.875L443.3603 519.86957ZM440.4214 521.50476L442.4764 519.4497L438.63153 517.65985L440.4214 521.50476ZM447.26044 519.12933L441.22794 513.0968L442.94046 511.3843Q443.72488 510.59985 444.67508 510.35678Q445.62524 510.0916 446.59753 510.40097Q447.5698 510.71033 448.4095 511.55002L448.78513 511.92566Q449.6469 512.7875 449.95627 513.7597Q450.27667 514.72095 450.00046 515.6822Q449.7353 516.6323 448.93982 517.44995L447.26044 519.12933ZM442.6753 512.9532L447.40405 517.68195L448.24374 516.8423Q449.16077 515.92523 449.10553 514.8535Q449.0503 513.7597 447.98962 512.6991L447.63608 512.3455Q446.60858 511.318 445.55896 511.24066Q444.50934 511.14124 443.60336 512.0251L442.6753 512.9532ZM455.4474 507.11957Q456.28708 508.1802 456.2208 509.30716Q456.14346 510.42307 455.16013 511.4064Q454.08844 512.4781 452.68527 512.35657Q451.27106 512.224 449.97836 510.9313L449.40384 510.35678Q448.56415 509.5171 448.22165 508.57797Q447.87915 507.63882 448.08908 506.7439Q448.29898 505.84897 449.01715 505.13083Q449.97836 504.1696 451.09427 504.13644Q452.22122 504.09225 453.2598 504.93195L452.4643 505.72745Q451.63565 505.11978 450.97275 505.14188Q450.3098 505.16397 449.68005 505.79373Q448.91772 506.5561 449.0503 507.55045Q449.1829 508.54483 450.22144 509.58337L450.807 510.16895Q451.79034 511.15228 452.7847 511.32904Q453.76804 511.49478 454.50827 510.75452Q455.1712 510.0916 455.22644 509.43976Q455.27063 508.77682 454.65192 507.91504L455.4474 507.11957ZM459.53537 500.37994L461.2258 498.6895L461.955 499.41873L460.26456 501.10916L462.16492 503.0095L461.40256 503.77185L459.50223 501.8715L457.8118 503.56192L457.08258 502.83273L458.773 501.1423L457.0163 499.3856L457.77866 498.62323L459.53537 500.37994ZM469.52325 493.70663L466.99313 496.23676L468.00958 498.38016L467.19202 499.19775L463.4576 490.86716L464.15366 490.17108L472.4953 493.89444L471.6777 494.71204L469.52325 493.70663ZM466.58432 495.3418L468.63937 493.28677L464.79446 491.49692L466.58432 495.3418ZM470.84906 490.98868Q469.81052 489.95013 469.67792 488.84528Q469.5343 487.72937 470.3298 486.93387Q471.11423 486.1494 472.1086 486.2157L469.77737 483.88446L470.5397 483.12213L476.9037 489.48608L476.19656 490.19318L475.67728 489.7402Q475.78778 490.77875 474.97018 491.59634Q474.19678 492.36975 473.05878 492.22614Q471.93182 492.07144 470.90433 491.0439L470.84906 490.98868ZM471.6998 490.31473Q472.46216 491.07706 473.20242 491.1986Q473.9537 491.30908 474.50613 490.75665Q475.23535 490.02747 474.91495 489.02203L472.8599 486.967Q471.88763 486.67975 471.1695 487.39792Q470.60602 487.9614 470.7165 488.71268Q470.838 489.45294 471.6998 490.31473ZM475.79883 486.03894Q474.76025 485.00037 474.6277 483.8955Q474.48404 482.7796 475.27954 481.98413Q476.064 481.19968 477.05835 481.26596L474.7271 478.93472L475.48947 478.17236L481.85342 484.53635L481.1463 485.24344L480.62704 484.79044Q480.73752 485.829 479.91992 486.6466Q479.1465 487.42 478.0085 487.27637Q476.8816 487.1217 475.85406 486.09418L475.79883 486.03894ZM476.64957 485.365Q477.4119 486.12732 478.15216 486.24887Q478.90347 486.35934 479.4559 485.80692Q480.1851 485.0777 479.8647 484.0723L477.80966 482.01727Q476.83737 481.73 476.11923 482.44815Q475.55576 483.01163 475.66623 483.76294Q475.78778 484.50317 476.64957 485.365ZM481.754 479.90698L484.11838 482.2714L483.32288 483.06686L477.29037 477.03436L479.5222 474.80258Q480.5055 473.81924 481.5772 473.764Q482.63788 473.69772 483.47757 474.5374Q484.3504 475.41025 484.27304 476.43774Q484.20676 477.45422 483.17926 478.48172L481.754 479.90698ZM481.1021 479.25513L482.53842 477.81882Q483.17926 477.178 483.2124 476.54825Q483.2566 475.9074 482.6931 475.34393Q482.15173 474.80258 481.48883 474.82468Q480.8259 474.82468 480.21823 475.41025L478.73773 476.89075L481.1021 479.25513ZM486.37228 475.4434Q485.7204 474.7915 485.44418 474.00708Q485.17905 473.21158 485.36685 472.4713Q485.54364 471.72003 486.1292 471.13446Q487.04623 470.2174 488.23947 470.28372Q489.44376 470.33896 490.50443 471.39963L490.55966 471.45486Q491.21155 472.10672 491.4767 472.88013Q491.74188 473.65353 491.57614 474.41586Q491.39935 475.16718 490.7917 475.77484Q489.8857 476.68082 488.68143 476.62558Q487.47714 476.54825 486.42752 475.49863L486.37228 475.4434ZM487.24512 474.7694Q487.98535 475.50967 488.78085 475.62015Q489.5874 475.7196 490.16193 475.14508Q490.7475 474.5595 490.63702 473.764Q490.51547 472.95746 489.68683 472.1288Q488.95764 471.39963 488.1511 471.30017Q487.34454 471.17865 486.75897 471.76422Q486.1955 472.3277 486.29492 473.13425Q486.39438 473.91867 487.24512 474.7694ZM494.64764 471.74213L493.88528 472.50446L489.39957 468.01877L490.16193 467.2564L494.64764 471.74213ZM488.1511 466.90286Q487.96326 466.71503 487.94116 466.47195Q487.9301 466.21783 488.1511 465.9969Q488.37207 465.7759 488.61514 465.798Q488.86923 465.80905 489.05707 465.9969Q489.23386 466.17365 489.2449 466.42776Q489.25595 466.6598 489.03497 466.88077Q488.814 467.10175 488.57092 467.10175Q488.32788 467.07962 488.1511 466.90286ZM492.17276 465.24557L492.75833 465.78696Q492.6368 464.62686 493.46545 463.79822Q494.89072 462.37296 496.50378 463.96396L499.4648 466.92496L498.6914 467.69836L495.71933 464.7263Q495.24426 464.25122 494.79126 464.24017Q494.34933 464.21805 493.88528 464.6821Q493.50964 465.05774 493.42123 465.54388Q493.3439 466.01898 493.50964 466.49405L496.70267 469.6871L495.9403 470.44943L491.45462 465.96375L492.17276 465.24557ZM496.36017 458.89267L497.4429 459.97543L498.27155 459.1468L498.86816 459.7434L498.03955 460.57205L500.8127 463.3452Q501.08893 463.62143 501.332 463.64352Q501.57507 463.66565 501.84024 463.40048Q501.9728 463.26788 502.16064 462.99167L502.77936 463.61038Q502.56943 463.9971 502.28217 464.28436Q501.77396 464.79257 501.19943 464.74838Q500.61386 464.69315 500.03934 464.11862L497.26614 461.34543L496.44855 462.16302L495.85193 461.5664L496.66953 460.7488L495.58676 459.66608L496.36017 458.89267ZM505.66302 460.9035Q504.746 461.82053 503.57486 461.79843Q502.40372 461.75424 501.3983 460.7488L501.26572 460.61624Q500.59174 459.9423 500.3266 459.16888Q500.05038 458.38443 500.2161 457.64417Q500.38184 456.88184 500.91217 456.3515Q501.785 455.47867 502.84564 455.56705Q503.9063 455.65546 504.97803 456.72714L505.29843 457.04755L502.26007 460.0859Q502.9451 460.7267 503.71848 460.7709Q504.50293 460.80408 505.07745 460.22955Q505.47522 459.8318 505.5857 459.38986Q505.7072 458.93686 505.65198 458.43967L506.48062 458.34024Q506.78998 459.77655 505.66302 460.9035ZM501.54193 456.98126Q501.07788 457.4453 501.09998 458.10822Q501.12207 458.74902 501.66345 459.423L503.9063 457.18015L503.85107 457.1249Q503.23236 456.57248 502.6247 456.53934Q502.02808 456.49512 501.54193 456.98126ZM506.32596 452.4624Q506.12708 452.6171 505.9282 452.81598Q505.16586 453.5783 505.5415 454.48428L508.72348 457.6663L507.96112 458.42862L503.47543 453.94293L504.21567 453.20267L504.746 453.7109Q504.52502 452.73862 505.2211 452.04257Q505.44205 451.8216 505.61884 451.7553L506.32596 452.4624ZM512.2038 451.7995Q511.8944 451.49014 511.48563 451.56747Q511.0768 451.6227 510.36972 452.08676Q509.67365 452.53976 509.15436 452.70547Q508.6351 452.87122 508.23734 452.80493Q507.8396 452.71652 507.50815 452.38507Q506.95572 451.83264 507.0441 450.99295Q507.12143 450.1422 507.85065 449.41302Q508.613 448.65067 509.4748 448.58438Q510.33658 448.49597 510.94424 449.10367L510.1819 449.866Q509.87253 449.55664 509.37534 449.61188Q508.87814 449.64502 508.4804 450.0428Q508.06058 450.46262 508.0053 450.89352Q507.95007 451.3023 508.23734 451.58957Q508.51355 451.86578 508.87814 451.78845Q509.24277 451.71112 509.94986 451.26917Q510.64594 450.8162 511.17627 450.6394Q511.70657 450.46262 512.1264 450.55103Q512.5573 450.62836 512.9109 450.9819Q513.51855 451.58957 513.39703 452.4403Q513.2865 453.28 512.5242 454.04236Q511.9828 454.58374 511.37512 454.81577Q510.76746 455.02567 510.19293 454.9152Q509.6184 454.80472 509.22067 454.40695L509.983 453.6446Q510.3918 454.00922 510.9111 453.95398Q511.4193 453.88766 511.8944 453.4126Q512.3253 452.9817 512.4137 452.53976Q512.5021 452.0978 512.2038 451.7995Z" fill-rule="nonzero"/><path fill="#757575" d="M516.33325 524.81934L513.80316 527.3494L514.81964 529.49286L514.002 530.3104L510.2676 521.97986L510.96368 521.28375L519.30536 525.00714L518.48773 525.8247L516.33325 524.81934ZM513.39435 526.45447L515.4494 524.3995L511.6045 522.6096L513.39435 526.45447ZM520.2334 524.07904L514.2009 518.0466L515.91345 516.33405Q516.6979 515.54956 517.6481 515.3065Q518.5982 515.0413 519.5705 515.3507Q520.5428 515.66003 521.38245 516.49976L521.7581 516.8754Q522.6199 517.7372 522.92926 518.7095Q523.24963 519.6707 522.97345 520.6319Q522.70825 521.5821 521.9128 522.39966L520.2334 524.07904ZM515.64825 517.9029L520.377 522.6317L521.21674 521.792Q522.1337 520.875 522.0785 519.8033Q522.02325 518.7095 520.9626 517.6488L520.6091 517.2952Q519.58154 516.26776 518.5319 516.19037Q517.4823 516.09094 516.57635 516.97485L515.64825 517.9029ZM528.42035 512.0693Q529.2601 513.12994 529.1938 514.2569Q529.11646 515.3728 528.1331 516.35614Q527.0614 517.42786 525.65826 517.3063Q524.244 517.1737 522.95135 515.88104L522.37683 515.3065Q521.5371 514.4668 521.19464 513.5277Q520.8521 512.58856 521.0621 511.69363Q521.272 510.7987 521.9901 510.08054Q522.95135 509.11932 524.06726 509.08618Q525.1942 509.042 526.2328 509.88168L525.43726 510.6772Q524.60864 510.0695 523.94574 510.09158Q523.2828 510.1137 522.653 510.74347Q521.8907 511.5058 522.02325 512.5002Q522.1558 513.49457 523.1944 514.53314L523.77997 515.1187Q524.7633 516.102 525.7577 516.2788Q526.741 516.4445 527.48126 515.7043Q528.14417 515.0413 528.1994 514.38947Q528.2436 513.72656 527.6249 512.8648L528.42035 512.0693ZM532.50836 505.32968L534.1988 503.63925L534.928 504.36844L533.23755 506.05887L535.1379 507.95923L534.37555 508.7216L532.4752 506.82123L530.7848 508.51166L530.05554 507.78244L531.746 506.092L529.98926 504.3353L530.75165 503.57297L532.50836 505.32968ZM535.7345 496.51294L542.6288 499.45184L539.67883 492.5686L540.7174 491.53006L546.74994 497.56256L545.9544 498.35803L543.6011 496.0047L541.1483 493.39725L544.043 500.26944L543.43536 500.8771L536.58527 497.9824L539.18164 500.42413L541.535 502.77747L540.7395 503.57297L534.707 497.54047L535.7345 496.51294ZM545.2031 494.53525Q544.5513 493.8834 544.275 493.09894Q544.0099 492.30344 544.1977 491.5632Q544.37445 490.8119 544.96 490.22632Q545.8771 489.3093 547.0703 489.37558Q548.2746 489.43082 549.33527 490.4915L549.3905 490.54672Q550.04236 491.19858 550.30756 491.972Q550.5727 492.7454 550.407 493.50772Q550.2302 494.25903 549.62256 494.8667Q548.71655 495.77267 547.51227 495.71744Q546.308 495.6401 545.25836 494.59048L545.2031 494.53525ZM546.0759 493.8613Q546.8162 494.60153 547.6117 494.71204Q548.4182 494.81146 548.99274 494.23694Q549.5783 493.65137 549.46783 492.85587Q549.3463 492.04932 548.5177 491.22067Q547.78845 490.4915 546.98193 490.39206Q546.1754 490.2705 545.58984 490.85608Q545.02637 491.41956 545.1258 492.2261Q545.2252 493.01056 546.0759 493.8613ZM553.08075 489.1546L550.7495 484.59155L551.53394 483.8071L554.40656 489.9059L553.821 490.4915L547.7111 487.6299L548.4956 486.84546L553.08075 489.1546ZM558.83704 485.65222Q557.92 486.56924 556.74884 486.54715Q555.5777 486.50296 554.57227 485.49753L554.4397 485.36496Q553.76575 484.691 553.50055 483.9176Q553.22437 483.13315 553.3901 482.3929Q553.5558 481.63055 554.0861 481.10022Q554.959 480.2274 556.01965 480.31577Q557.0803 480.40417 558.152 481.47586L558.4724 481.79626L555.4341 484.83463Q556.1191 485.47543 556.89246 485.51962Q557.67694 485.5528 558.25146 484.97827Q558.6492 484.5805 558.7597 484.13858Q558.8812 483.68558 558.826 483.1884L559.6546 483.08896Q559.964 484.52527 558.83704 485.65222ZM554.7159 481.72998Q554.2519 482.19403 554.274 482.85693Q554.2961 483.49774 554.83746 484.17172L557.0803 481.92886L557.0251 481.87363Q556.4063 481.3212 555.79865 481.28806Q555.202 481.24387 554.7159 481.72998ZM559.6767 479.90698L562.0411 482.27136L561.2456 483.06686L555.2131 477.03436L557.4449 474.80255Q558.4282 473.81924 559.49994 473.76398Q560.5606 473.6977 561.40027 474.53738Q562.27313 475.41022 562.1958 476.43774Q562.12946 477.4542 561.102 478.48172L559.6767 479.90698ZM559.02484 479.25513L560.4612 477.81882Q561.102 477.17798 561.13513 476.54822Q561.1793 475.9074 560.61584 475.34393Q560.07446 474.80255 559.41156 474.82465Q558.74866 474.82465 558.1409 475.41022L556.66046 476.89072L559.02484 479.25513ZM564.295 475.44336Q563.6431 474.7915 563.36694 474.00705Q563.10175 473.21155 563.28955 472.4713Q563.4664 471.72 564.05194 471.13443Q564.96893 470.2174 566.16223 470.2837Q567.3665 470.33893 568.4271 471.3996L568.4824 471.45483Q569.1343 472.10672 569.3994 472.8801Q569.6646 473.6535 569.49884 474.41586Q569.3221 475.16714 568.7144 475.7748Q567.8084 476.68082 566.6041 476.62555Q565.39984 476.54822 564.3502 475.4986L564.295 475.44336ZM565.16785 474.7694Q565.9081 475.50964 566.70355 475.62015Q567.51013 475.71957 568.08466 475.14505Q568.6702 474.55948 568.55975 473.76398Q568.4382 472.95746 567.60956 472.1288Q566.8804 471.3996 566.0738 471.30017Q565.2673 471.17862 564.6817 471.7642Q564.1182 472.32767 564.21765 473.13422Q564.3171 473.91867 565.16785 474.7694ZM572.5704 471.7421L571.808 472.50446L567.3223 468.01874L568.08466 467.2564L572.5704 471.7421ZM566.0738 466.90283Q565.886 466.71503 565.8639 466.47195Q565.85284 466.21783 566.0738 465.99686Q566.2948 465.77588 566.53784 465.79797Q566.792 465.80902 566.9798 465.99686Q567.15656 466.17365 567.1676 466.42776Q567.17865 466.65976 566.9577 466.88074Q566.73676 467.1017 566.49365 467.1017Q566.2506 467.07962 566.0738 466.90283ZM570.09546 465.24557L570.681 465.78693Q570.5595 464.62683 571.3882 463.7982Q572.8134 462.37292 574.4265 463.96393L577.3875 466.92493L576.61414 467.69833L573.6421 464.7263Q573.167 464.2512 572.714 464.24014Q572.27203 464.21805 571.808 464.6821Q571.4324 465.05774 571.344 465.54388Q571.2666 466.01895 571.4324 466.49405L574.62537 469.68707L573.86304 470.44943L569.3773 465.9637L570.09546 465.24557ZM574.2829 458.89264L575.36566 459.9754L576.1943 459.14676L576.7909 459.74338L575.9623 460.57202L578.7355 463.3452Q579.01166 463.62143 579.2547 463.64352Q579.4978 463.66562 579.76294 463.40045Q579.89557 463.26788 580.0834 462.99167L580.7021 463.61038Q580.4922 463.99707 580.2049 464.28433Q579.69666 464.79257 579.12213 464.74838Q578.53656 464.69315 577.96204 464.11862L575.18884 461.34543L574.3713 462.16302L573.77466 461.5664L574.5922 460.7488L573.50946 459.66605L574.2829 458.89264ZM583.58575 460.90347Q582.6687 461.82053 581.49756 461.7984Q580.3264 461.7542 579.32104 460.7488L579.1884 460.6162Q578.51447 459.94226 578.2493 459.16885Q577.9731 458.38443 578.1388 457.64417Q578.30457 456.8818 578.8349 456.35147Q579.7077 455.47864 580.7684 455.56705Q581.82904 455.65543 582.90076 456.72714L583.2211 457.04755L580.1828 460.08588Q580.8678 460.7267 581.64124 460.7709Q582.42566 460.80405 583.0002 460.22952Q583.39795 459.8318 583.5084 459.38983Q583.62994 458.93683 583.5747 458.43967L584.4033 458.3402Q584.7127 459.77652 583.58575 460.90347ZM579.46466 456.98126Q579.0006 457.44528 579.0227 458.10822Q579.0448 458.74902 579.5862 459.42297L581.82904 457.1801L581.7738 457.12488Q581.1551 456.57245 580.5474 456.5393Q579.9508 456.49512 579.46466 456.98126ZM584.24866 452.4624Q584.0498 452.61707 583.8509 452.81595Q583.08856 453.5783 583.46423 454.48428L586.6462 457.66626L585.88385 458.42862L581.39813 453.9429L582.13837 453.20264L582.6687 453.71088Q582.44775 452.73862 583.1438 452.04254Q583.3648 451.8216 583.54156 451.75528L584.24866 452.4624ZM590.12646 451.79947Q589.81714 451.4901 589.4083 451.56747Q588.9995 451.6227 588.2924 452.08673Q587.5964 452.53973 587.0771 452.70547Q586.5578 452.8712 586.1601 452.8049Q585.7623 452.71652 585.43085 452.38507Q584.8784 451.83264 584.9668 450.99295Q585.0442 450.1422 585.7734 449.413Q586.5357 448.65063 587.3975 448.58435Q588.2593 448.49597 588.86694 449.10364L588.1046 449.866Q587.7952 449.55664 587.2981 449.61188Q586.8009 449.64502 586.40314 450.04276Q585.9833 450.46262 585.92804 450.8935Q585.8728 451.3023 586.1601 451.58957Q586.4363 451.86578 586.8009 451.78842Q587.16547 451.7111 587.8726 451.26917Q588.56866 450.81616 589.099 450.63937Q589.62933 450.46262 590.04913 450.551Q590.48004 450.62833 590.8336 450.9819Q591.4413 451.58957 591.31976 452.4403Q591.2092 453.28 590.4469 454.04233Q589.9055 454.5837 589.29785 454.81573Q588.6902 455.02567 588.11566 454.91516Q587.54114 454.8047 587.1434 454.40695L587.90576 453.6446Q588.3145 454.0092 588.8338 453.95395Q589.34204 453.88766 589.81714 453.41257Q590.24805 452.9817 590.3364 452.53973Q590.4248 452.09778 590.12646 451.79947Z" fill-rule="nonzero"/><path fill="#757575" d="M631.0255 488.04977L628.49536 490.5799L629.51184 492.72333L628.6943 493.5409L624.95984 485.2103L625.6559 484.51425L633.99756 488.2376L633.18 489.0552L631.0255 488.04977ZM628.0866 489.68497L630.1416 487.62994L626.29675 485.84006L628.0866 489.68497ZM634.92566 487.30954L628.8931 481.277L630.60565 479.56448Q631.3901 478.78006 632.3403 478.537Q633.29047 478.27182 634.2627 478.58118Q635.235 478.89053 636.0747 479.73022L636.4503 480.10587Q637.31213 480.96765 637.62146 481.93994Q637.9419 482.90115 637.66565 483.8624Q637.4005 484.81256 636.60504 485.63016L634.92566 487.30954ZM630.3405 481.1334L635.0693 485.86218L635.90894 485.0225Q636.826 484.10544 636.77075 483.03375Q636.7155 481.93994 635.65485 480.87927L635.3013 480.52573Q634.2738 479.4982 633.2242 479.42087Q632.17456 479.32144 631.26855 480.20532L630.3405 481.1334ZM643.1126 475.29977Q643.9523 476.3604 643.886 477.48737Q643.80865 478.60327 642.8253 479.5866Q641.75366 480.6583 640.35046 480.53677Q638.9363 480.40417 637.64355 479.1115L637.06903 478.537Q636.2294 477.6973 635.88684 476.75818Q635.5444 475.81903 635.7543 474.9241Q635.9642 474.02917 636.6824 473.31104Q637.64355 472.3498 638.75946 472.31665Q639.8864 472.27246 640.925 473.11215L640.1295 473.90765Q639.30084 473.3 638.63794 473.32208Q637.97504 473.34418 637.3453 473.97394Q636.58295 474.7363 636.7155 475.73065Q636.8481 476.72504 637.88666 477.76358L638.4722 478.34915Q639.45557 479.3325 640.4499 479.50925Q641.4332 479.675 642.17346 478.93472Q642.8364 478.27182 642.89166 477.61996Q642.93585 476.95703 642.31714 476.09525L643.1126 475.29977ZM647.20056 468.56015L648.891 466.86972L649.6202 467.59894L647.92975 469.28937L649.83014 471.1897L649.06775 471.95206L647.1674 470.0517L645.477 471.74213L644.7478 471.01294L646.43823 469.3225L644.6815 467.56577L645.44385 466.80344L647.20056 468.56015ZM657.1885 461.88684L654.6583 464.41693L655.6748 466.56036L654.85724 467.37796L651.1228 459.04736L651.81885 458.3513L660.1605 462.07465L659.3429 462.89224L657.1885 461.88684ZM654.2495 463.522L656.30457 461.46698L652.45966 459.67712L654.2495 463.522ZM658.5143 459.16888Q657.4757 458.1303 657.34314 457.02548Q657.1995 455.90958 657.995 455.11407Q658.7794 454.32962 659.7738 454.3959L657.44257 452.06467L658.2049 451.30234L664.5689 457.6663L663.86176 458.37338L663.34247 457.9204Q663.453 458.95895 662.6354 459.77655Q661.862 460.54996 660.724 460.4063Q659.59705 460.25165 658.5695 459.22412L658.5143 459.16888ZM659.365 458.49493Q660.1274 459.25726 660.8676 459.3788Q661.6189 459.4893 662.1713 458.93686Q662.9006 458.20767 662.58014 457.20224L660.5251 455.14722Q659.55286 454.85995 658.8347 455.57812Q658.27124 456.1416 658.3817 456.89288Q658.50323 457.63315 659.365 458.49493ZM663.46405 454.21915Q662.4255 453.18057 662.2929 452.0757Q662.14923 450.9598 662.94476 450.16434Q663.7292 449.37988 664.7236 449.44617L662.39233 447.11493L663.15466 446.35257L669.5186 452.71655L668.8115 453.42365L668.29224 452.97064Q668.4027 454.00922 667.58514 454.8268Q666.8117 455.60022 665.6737 455.45657Q664.54675 455.3019 663.5193 454.27438L663.46405 454.21915ZM664.31476 453.54517Q665.0771 454.30753 665.8174 454.42908Q666.56866 454.53955 667.1211 453.98712Q667.8503 453.2579 667.5299 452.2525L665.47485 450.19748Q664.50256 449.91022 663.7844 450.62836Q663.22095 451.19183 663.3314 451.94315Q663.453 452.68338 664.31476 453.54517Z" fill-rule="nonzero"/><path fill="#757575" d="M705.4127 491.5853L702.88257 494.11542L703.89905 496.25882L703.0814 497.07642L699.34705 488.74582L700.0431 488.04977L708.38477 491.77313L707.56714 492.59073L705.4127 491.5853ZM702.47375 493.2205L704.5288 491.16547L700.6839 489.37558L702.47375 493.2205ZM709.3128 490.84503L703.28033 484.81253L704.99286 483.1Q705.7773 482.31558 706.7275 482.0725Q707.6776 481.80734 708.6499 482.1167Q709.6222 482.42606 710.46185 483.26575L710.8375 483.6414Q711.69934 484.50317 712.00867 485.47546Q712.3291 486.43668 712.05286 487.3979Q711.7877 488.34808 710.9922 489.16568L709.3128 490.84503ZM704.72766 484.6689L709.4565 489.39767L710.29614 488.55798Q711.2132 487.64096 711.15796 486.56924Q711.10266 485.47546 710.04205 484.4148L709.6885 484.06125Q708.66095 483.03372 707.6113 482.9564Q706.56177 482.85693 705.65576 483.74084L704.72766 484.6689ZM717.4998 478.83527Q718.3395 479.89594 718.2732 481.0229Q718.19586 482.1388 717.2125 483.1221Q716.1408 484.19382 714.7377 484.0723Q713.3234 483.9397 712.03076 482.64703L711.45624 482.0725Q710.6166 481.23282 710.27405 480.29367Q709.9315 479.35455 710.1415 478.45963Q710.3514 477.5647 711.0695 476.84653Q712.03076 475.8853 713.14667 475.85217Q714.2736 475.80798 715.3122 476.64767L714.51666 477.44318Q713.68805 476.83548 713.02515 476.85757Q712.36224 476.8797 711.7325 477.50946Q710.9701 478.2718 711.10266 479.26617Q711.2353 480.26053 712.27386 481.2991L712.85944 481.88467Q713.8427 482.86798 714.8371 483.04477Q715.82043 483.2105 716.56067 482.47025Q717.2236 481.80734 717.2788 481.1555Q717.323 480.49255 716.7043 479.63077L717.4998 478.83527ZM721.58777 472.09567L723.2782 470.40524L724.0074 471.13443L722.31696 472.82486L724.2173 474.72522L723.45496 475.48758L721.5546 473.58722L719.8642 475.27765L719.135 474.54843L720.82544 472.858L719.06866 471.1013L719.83105 470.33896L721.58777 472.09567ZM728.25 467.17908L730.61444 469.54346L729.8189 470.33896L723.78644 464.30646L726.01825 462.07465Q727.0015 461.0913 728.07324 461.03607Q729.1339 460.9698 729.97363 461.80948Q730.84644 462.6823 730.7691 463.7098Q730.7028 464.7263 729.6753 465.7538L728.25 467.17908ZM727.59814 466.5272L729.0345 465.09088Q729.6753 464.45007 729.70844 463.8203Q729.7526 463.1795 729.18915 462.61603Q728.64777 462.07465 727.98486 462.09674Q727.32196 462.09674 726.7143 462.6823L725.23376 464.1628L727.59814 466.5272ZM732.86835 462.71545Q732.21643 462.0636 731.94025 461.27914Q731.67505 460.48364 731.8629 459.7434Q732.0397 458.9921 732.62524 458.40652Q733.5423 457.4895 734.73553 457.5558Q735.9398 457.61102 737.0005 458.6717L737.0557 458.72693Q737.7076 459.37878 737.9728 460.1522Q738.2379 460.9256 738.0722 461.68793Q737.8954 462.43924 737.2877 463.0469Q736.3818 463.95288 735.1775 463.89764Q733.9732 463.8203 732.9236 462.7707L732.86835 462.71545ZM733.74115 462.0415Q734.4814 462.78174 735.2769 462.89224Q736.08344 462.99167 736.65796 462.41714Q737.2435 461.83157 737.13306 461.03607Q737.01154 460.22952 736.18286 459.40088Q735.4537 458.6717 734.64716 458.57224Q733.8406 458.4507 733.255 459.0363Q732.6915 459.59976 732.79095 460.4063Q732.89044 461.19077 733.74115 462.0415ZM739.4864 456.5172L739.49744 457.50055L741.0774 459.08047L740.31506 459.84283L733.95105 453.47888L734.71344 452.71652L738.55835 456.5614L738.48096 455.66647L738.4036 452.7828L739.3317 451.85474L739.4643 455.47867L744.02734 456.13052L743.1214 457.0365L739.4864 456.5172ZM746.5022 453.83243Q745.5852 454.74945 744.41406 454.72736Q743.2429 454.68317 742.2375 453.67773L742.1049 453.54517Q741.43097 452.8712 741.1658 452.0978Q740.8896 451.31335 741.0553 450.5731Q741.221 449.81076 741.75134 449.28043Q742.6242 448.4076 743.6849 448.49597Q744.7455 448.58435 745.8172 449.65607L746.13763 449.97647L743.09924 453.01483Q743.7843 453.65564 744.5577 453.69983Q745.3421 453.733 745.9166 453.15848Q746.3144 452.7607 746.42487 452.3188Q746.54645 451.86578 746.49115 451.3686L747.3198 451.26917Q747.62915 452.70547 746.5022 453.83243ZM742.3811 449.9102Q741.91705 450.37424 741.93915 451.03714Q741.96124 451.67795 742.5026 452.35193L744.7455 450.10907L744.69025 450.05383Q744.07153 449.5014 743.46387 449.46826Q742.86725 449.42404 742.3811 449.9102Z" fill-rule="nonzero"/><path fill="#757575" d="M751.5156 523.4051L748.9855 525.9352L750.00195 528.0786L749.1844 528.89624L745.44995 520.5656L746.146 519.86957L754.4877 523.5929L753.67004 524.4105L751.5156 523.4051ZM748.5767 525.0403L750.6317 522.9852L746.7868 521.1954L748.5767 525.0403ZM755.4158 522.66486L749.38324 516.6323L751.09576 514.9198Q751.8802 514.1354 752.8304 513.8923Q753.7806 513.62714 754.7528 513.93646Q755.7251 514.24585 756.5648 515.0855L756.9404 515.4612Q757.80225 516.323 758.1116 517.2952Q758.432 518.2565 758.15576 519.2177Q757.8906 520.16785 757.0951 520.9855L755.4158 522.66486ZM750.8306 516.4887L755.5594 521.21747L756.39905 520.3778Q757.3161 519.46075 757.26086 518.38904Q757.2056 517.2952 756.14496 516.23456L755.7914 515.88104Q754.76385 514.8535 753.7143 514.7762Q752.6647 514.67676 751.75867 515.5606L750.8306 516.4887ZM763.6027 510.65506Q764.4424 511.71573 764.3761 512.84265Q764.29877 513.95856 763.3154 514.9419Q762.2438 516.0136 760.8406 515.8921Q759.4264 515.7595 758.13367 514.4668L757.55914 513.8923Q756.7195 513.0526 756.37695 512.11346Q756.0345 511.17435 756.2444 510.27942Q756.4543 509.3845 757.1725 508.66632Q758.13367 507.7051 759.2496 507.67197Q760.3765 507.62778 761.4151 508.46747L760.6196 509.26294Q759.79095 508.65527 759.12805 508.67737Q758.46515 508.69946 757.8354 509.32925Q757.073 510.09158 757.2056 511.08597Q757.3382 512.0803 758.3768 513.1189L758.96234 513.70447Q759.9456 514.6878 760.94 514.86456Q761.92334 515.0303 762.6636 514.29004Q763.3265 513.62714 763.3817 512.9753Q763.42596 512.3123 762.8072 511.45056L763.6027 510.65506ZM767.6907 503.91547L769.3811 502.22504L770.1103 502.95422L768.41986 504.64465L770.32025 506.545L769.55786 507.30734L767.65753 505.407L765.9671 507.09744L765.2379 506.36823L766.92834 504.6778L765.17163 502.92108L765.93396 502.15872L767.6907 503.91547ZM776.7836 501.29694L775.98816 502.09244L769.9556 496.05994L770.7511 495.26443L776.7836 501.29694ZM774.1651 494.94403L774.7507 495.4854Q774.62915 494.32532 775.4578 493.49667Q776.88306 492.0714 778.49615 493.6624L781.45715 496.6234L780.6838 497.39682L777.71173 494.42474Q777.23663 493.94968 776.7836 493.93863Q776.3417 493.91653 775.8776 494.38055Q775.502 494.75623 775.41364 495.24234Q775.33624 495.71744 775.502 496.19254L778.695 499.38556L777.9327 500.1479L773.44696 495.6622L774.1651 494.94403ZM780.4186 493.11Q779.38 492.0714 779.24744 490.96655Q779.1038 489.85065 779.8993 489.05518Q780.6838 488.27072 781.67816 488.337L779.34686 486.00577L780.10925 485.2434L786.4732 491.6074L785.7661 492.31448L785.2468 491.86148Q785.3573 492.90005 784.53973 493.71765Q783.7663 494.49106 782.6283 494.3474Q781.50134 494.19275 780.4738 493.16522L780.4186 493.11ZM781.26935 492.436Q782.0317 493.19836 782.7719 493.31992Q783.52325 493.4304 784.0757 492.87796Q784.8049 492.14874 784.48444 491.14334L782.42944 489.08832Q781.45715 488.80106 780.739 489.5192Q780.17554 490.08267 780.286 490.83398Q780.40753 491.57422 781.26935 492.436ZM788.6608 489.41977L787.89844 490.18213L783.4128 485.6964L784.1751 484.93405L788.6608 489.41977ZM782.16425 484.5805Q781.97644 484.39267 781.95435 484.1496Q781.9433 483.8955 782.16425 483.67453Q782.38525 483.45355 782.6283 483.47565Q782.88245 483.4867 783.07025 483.67453Q783.247 483.8513 783.25806 484.1054Q783.2691 484.33743 783.04816 484.5584Q782.8272 484.7794 782.5841 484.7794Q782.34106 484.7573 782.16425 484.5805ZM788.3183 482.16086Q788.11945 482.31555 787.92053 482.51443Q787.1582 483.27676 787.5339 484.18277L790.7158 487.36475L789.9535 488.12708L785.4678 483.6414L786.208 482.90112L786.73834 483.40936Q786.5174 482.43707 787.21344 481.74103Q787.43445 481.52005 787.6112 481.45377L788.3183 482.16086ZM794.72644 483.53088Q793.80945 484.4479 792.6383 484.4258Q791.46716 484.38162 790.46173 483.37622L790.32916 483.24362Q789.65515 482.56967 789.39 481.79626Q789.11383 481.0118 789.27954 480.27158Q789.44525 479.50922 789.9756 478.97888Q790.84845 478.10605 791.90906 478.19446Q792.9697 478.28284 794.04144 479.35455L794.3619 479.67496L791.3235 482.7133Q792.00854 483.35413 792.7819 483.39832Q793.56635 483.43146 794.14087 482.85693Q794.53864 482.4592 794.6491 482.01724Q794.7706 481.56424 794.7154 481.06708L795.54407 480.96762Q795.8534 482.40393 794.72644 483.53088ZM790.60535 479.60867Q790.1413 480.0727 790.1634 480.7356Q790.1855 481.37643 790.72687 482.05038L792.9697 479.80753L792.9145 479.7523Q792.2958 479.19986 791.6881 479.16672Q791.0915 479.12253 790.60535 479.60867ZM798.2731 478.72476Q798.6818 478.31598 798.7481 477.76355Q798.80334 477.20007 798.4609 476.7913L799.19006 476.06207Q799.5547 476.4709 799.6541 477.07855Q799.75354 477.66412 799.5547 478.28284Q799.3668 478.8905 798.90283 479.35455Q797.9858 480.27158 796.83673 480.2053Q795.6877 480.11688 794.627 479.05624L794.49445 478.92365Q793.8426 478.2718 793.56635 477.53152Q793.3012 476.78024 793.4669 476.06207Q793.6326 475.32184 794.2514 474.7031Q795.0027 473.9518 795.9528 473.90762Q796.903 473.8413 797.66534 474.53738L796.93616 475.26657Q796.46106 474.8578 795.88654 474.87988Q795.312 474.90198 794.88116 475.3329Q794.2956 475.91846 794.395 476.6587Q794.49445 477.39896 795.2899 478.19446L795.4336 478.33807Q796.207 479.11148 796.9472 479.2109Q797.6875 479.31033 798.2731 478.72476ZM796.7373 470.20636L797.82007 471.2891L798.6487 470.46048L799.2453 471.0571L798.4167 471.8857L801.1899 474.6589Q801.46606 474.93512 801.70917 474.9572Q801.9522 474.9793 802.21735 474.71414Q802.35 474.58157 802.5378 474.30536L803.1565 474.92407Q802.9466 475.31076 802.6593 475.59802Q802.15106 476.10626 801.57654 476.06207Q800.99097 476.00684 800.41644 475.4323L797.64325 472.65912L796.8257 473.4767L796.22906 472.8801L797.04663 472.0625L795.9639 470.97974L796.7373 470.20636ZM800.70374 465.31183L801.51025 464.5053L805.7861 468.7811Q806.6478 469.64288 806.6147 470.67038Q806.58154 471.6758 805.7198 472.5376Q804.8248 473.43253 803.85254 473.4767Q802.89136 473.50986 802.0627 472.6812L802.8582 471.8857Q803.37744 472.405 803.95197 472.4271Q804.52655 472.4271 805.0679 471.8857Q805.56506 471.38855 805.554 470.78088Q805.54297 470.1511 804.99054 469.59866L800.70374 465.31183ZM811.36554 465.83112Q811.454 466.8034 810.5811 467.67624Q809.863 468.39438 809.06744 468.3502Q808.272 468.306 807.4544 467.4884L804.5376 464.5716L805.2999 463.80923L808.19464 466.70395Q809.22217 467.73148 810.0508 466.90283Q810.9347 466.01895 810.559 465.0688L807.2997 461.80945L808.0731 461.03607L812.55884 465.52176L811.8296 466.25098L811.36554 465.83112ZM810.22754 458.8816L810.7468 459.3567Q810.65845 458.29602 811.49817 457.45633Q812.43726 456.5172 813.4979 456.89285Q813.3985 456.35147 813.55316 455.79904Q813.71893 455.23557 814.205 454.74945Q815.68555 453.26892 817.2655 454.8047L820.2707 457.80988L819.50836 458.57224L816.54736 455.61124Q816.07227 455.13614 815.61926 455.1251Q815.1552 455.103 814.6359 455.62228Q814.205 456.05316 814.1719 456.59454Q814.1498 457.12488 814.5365 457.59995L817.50854 460.57202L816.7462 461.33438L813.8073 458.39545Q812.835 457.4232 811.8738 458.3844Q811.1225 459.1357 811.4871 460.05273L814.75745 463.32312L813.9841 464.0965L809.49835 459.6108L810.22754 458.8816ZM823.36426 450.34106Q824.38074 451.35754 824.5465 452.45132Q824.7122 453.54514 823.90564 454.35168Q823.0881 455.16928 822.10474 455.11404L824.2592 457.2685L823.4969 458.03085L817.2876 451.82156L817.98364 451.12552L818.514 451.58954Q818.41455 450.53995 819.24316 449.7113Q820.04974 448.90475 821.12146 449.0484Q822.20416 449.18097 823.2869 450.26373L823.36426 450.34106ZM822.51355 451.015Q821.7512 450.2527 820.98883 450.15323Q820.2265 450.0317 819.663 450.59518Q818.967 451.29123 819.2321 452.24142L821.37555 454.38483Q822.3368 454.66104 823.0439 453.95395Q823.5963 453.40152 823.48584 452.6502Q823.3753 451.8768 822.51355 451.015Z" fill-rule="nonzero"/></svg>