<svg version="1.1" viewBox="0.0 0.0 867.0 536.0" fill="none" stroke="none" stroke-linecap="square" stroke-miterlimit="10" width="867" height="536" xmlns:xlink="http://www.w3.org/1999/xlink" xmlns="http://www.w3.org/2000/svg"><path fill="#ffffff" d="M0 0L867.0 0L867.0 536.0L0 536.0L0 0Z" fill-rule="nonzero"/><path fill="#ffffff" d="M0 0L867.0 0L867.0 536.0L0 536.0L0 0Z" fill-rule="nonzero"/><path stroke="#333333" stroke-width="1.0" stroke-linecap="butt" d="M62.5 431.5L840.5 431.5" fill-rule="nonzero"/><path stroke="#cccccc" stroke-width="1.0" stroke-linecap="butt" d="M62.5 352.5L840.5 352.5" fill-rule="nonzero"/><path stroke="#cccccc" stroke-width="1.0" stroke-linecap="butt" d="M62.5 272.5L840.5 272.5" fill-rule="nonzero"/><path stroke="#cccccc" stroke-width="1.0" stroke-linecap="butt" d="M62.5 193.5L840.5 193.5" fill-rule="nonzero"/><path stroke="#cccccc" stroke-width="1.0" stroke-linecap="butt" d="M62.5 113.5L840.5 113.5" fill-rule="nonzero"/><path stroke="#cccccc" stroke-width="1.0" stroke-linecap="butt" d="M62.5 34.5L840.5 34.5" fill-rule="nonzero"/><clipPath id="id_0"><path d="M62.8 34.3L840.2 34.3L840.2 431.42865L62.8 431.42865L62.8 34.3Z" clip-rule="nonzero"/></clipPath><path stroke="#000000" stroke-width="0.0" stroke-linecap="butt" stroke-opacity="0.0" clip-path="url(#id_0)" d="M139.0 431.0L90.0 431.0L90.0 326.0C90.0 324.89542 90.89543 324.0 92.0 324.0L137.0 324.0C138.10457 324.0 139.0 324.89542 139.0 326.0Z" fill-rule="nonzero"/><path fill="#4285f4" clip-path="url(#id_0)" d="M139.0 431.0L90.0 431.0L90.0 326.0C90.0 324.89542 90.89543 324.0 92.0 324.0L137.0 324.0C138.10457 324.0 139.0 324.89542 139.0 326.0Z" fill-rule="nonzero"/><path stroke="#000000" stroke-width="0.0" stroke-linecap="butt" stroke-opacity="0.0" clip-path="url(#id_0)" d="M214.0 431.0L165.0 431.0L165.0 223.0C165.0 221.89543 165.89543 221.0 167.0 221.0L212.0 221.0C213.10457 221.0 214.0 221.89543 214.0 223.0Z" fill-rule="nonzero"/><path fill="#4285f4" clip-path="url(#id_0)" d="M214.0 431.0L165.0 431.0L165.0 223.0C165.0 221.89543 165.89543 221.0 167.0 221.0L212.0 221.0C213.10457 221.0 214.0 221.89543 214.0 223.0Z" fill-rule="nonzero"/><path stroke="#000000" stroke-width="0.0" stroke-linecap="butt" stroke-opacity="0.0" clip-path="url(#id_0)" d="M289.0 431.0L240.0 431.0L240.0 116.0C240.0 114.89543 240.89543 114.0 242.0 114.0L287.0 114.0C288.10458 114.0 289.0 114.89543 289.0 116.0Z" fill-rule="nonzero"/><path fill="#4285f4" clip-path="url(#id_0)" d="M289.0 431.0L240.0 431.0L240.0 116.0C240.0 114.89543 240.89543 114.0 242.0 114.0L287.0 114.0C288.10458 114.0 289.0 114.89543 289.0 116.0Z" fill-rule="nonzero"/><path stroke="#000000" stroke-width="0.0" stroke-linecap="butt" stroke-opacity="0.0" clip-path="url(#id_0)" d="M364.0 431.0L315.0 431.0L315.0 96.0C315.0 94.89543 315.89542 94.0 317.0 94.0L362.0 94.0C363.10458 94.0 364.0 94.89543 364.0 96.0Z" fill-rule="nonzero"/><path fill="#4285f4" clip-path="url(#id_0)" d="M364.0 431.0L315.0 431.0L315.0 96.0C315.0 94.89543 315.89542 94.0 317.0 94.0L362.0 94.0C363.10458 94.0 364.0 94.89543 364.0 96.0Z" fill-rule="nonzero"/><path stroke="#000000" stroke-width="0.0" stroke-linecap="butt" stroke-opacity="0.0" clip-path="url(#id_0)" d="M439.0 431.0L390.0 431.0L390.0 97.0C390.0 95.89543 390.89542 95.0 392.0 95.0L437.0 95.0C438.10458 95.0 439.0 95.89543 439.0 97.0Z" fill-rule="nonzero"/><path fill="#4285f4" clip-path="url(#id_0)" d="M439.0 431.0L390.0 431.0L390.0 97.0C390.0 95.89543 390.89542 95.0 392.0 95.0L437.0 95.0C438.10458 95.0 439.0 95.89543 439.0 97.0Z" fill-rule="nonzero"/><path stroke="#000000" stroke-width="0.0" stroke-linecap="butt" stroke-opacity="0.0" clip-path="url(#id_0)" d="M514.0 431.0L465.0 431.0L465.0 68.0C465.0 66.89543 465.89542 66.0 467.0 66.0L512.0 66.0C513.10455 66.0 514.0 66.89543 514.0 68.0Z" fill-rule="nonzero"/><path fill="#4285f4" clip-path="url(#id_0)" d="M514.0 431.0L465.0 431.0L465.0 68.0C465.0 66.89543 465.89542 66.0 467.0 66.0L512.0 66.0C513.10455 66.0 514.0 66.89543 514.0 68.0Z" fill-rule="nonzero"/><path stroke="#000000" stroke-width="0.0" stroke-linecap="butt" stroke-opacity="0.0" clip-path="url(#id_0)" d="M589.0 431.0L540.0 431.0L540.0 99.0C540.0 97.89543 540.89545 97.0 542.0 97.0L587.0 97.0C588.10455 97.0 589.0 97.89543 589.0 99.0Z" fill-rule="nonzero"/><path fill="#4285f4" clip-path="url(#id_0)" d="M589.0 431.0L540.0 431.0L540.0 99.0C540.0 97.89543 540.89545 97.0 542.0 97.0L587.0 97.0C588.10455 97.0 589.0 97.89543 589.0 99.0Z" fill-rule="nonzero"/><path stroke="#000000" stroke-width="0.0" stroke-linecap="butt" stroke-opacity="0.0" clip-path="url(#id_0)" d="M664.0 431.0L615.0 431.0L615.0 115.0C615.0 113.89543 615.89545 113.0 617.0 113.0L662.0 113.0C663.10455 113.0 664.0 113.89543 664.0 115.0Z" fill-rule="nonzero"/><path fill="#4285f4" clip-path="url(#id_0)" d="M664.0 431.0L615.0 431.0L615.0 115.0C615.0 113.89543 615.89545 113.0 617.0 113.0L662.0 113.0C663.10455 113.0 664.0 113.89543 664.0 115.0Z" fill-rule="nonzero"/><path stroke="#000000" stroke-width="0.0" stroke-linecap="butt" stroke-opacity="0.0" clip-path="url(#id_0)" d="M739.0 431.0L690.0 431.0L690.0 114.0C690.0 112.89543 690.89545 112.0 692.0 112.0L737.0 112.0C738.10455 112.0 739.0 112.89543 739.0 114.0Z" fill-rule="nonzero"/><path fill="#4285f4" clip-path="url(#id_0)" d="M739.0 431.0L690.0 431.0L690.0 114.0C690.0 112.89543 690.89545 112.0 692.0 112.0L737.0 112.0C738.10455 112.0 739.0 112.89543 739.0 114.0Z" fill-rule="nonzero"/><path stroke="#000000" stroke-width="0.0" stroke-linecap="butt" stroke-opacity="0.0" clip-path="url(#id_0)" d="M815.0 431.0L766.0 431.0L766.0 116.0C766.0 114.89543 766.89545 114.0 768.0 114.0L813.0 114.0C814.10455 114.0 815.0 114.89543 815.0 116.0Z" fill-rule="nonzero"/><path fill="#4285f4" clip-path="url(#id_0)" d="M815.0 431.0L766.0 431.0L766.0 116.0C766.0 114.89543 766.89545 114.0 768.0 114.0L813.0 114.0C814.10455 114.0 815.0 114.89543 815.0 116.0Z" fill-rule="nonzero"/><path fill="#757575" d="M46.8625 432.28802Q46.8625 434.19427 46.20625 435.13177Q45.565624 436.05365 44.175 436.05365Q42.815624 436.05365 42.159374 435.1474Q41.503124 434.24115 41.471874 432.42865L41.471874 430.99115Q41.471874 429.10052 42.1125 428.19427Q42.76875 427.2724 44.159374 427.2724Q45.534374 427.2724 46.190624 428.16302Q46.846874 429.03802 46.8625 430.88177L46.8625 432.28802ZM45.76875 430.80365Q45.76875 429.42865 45.378124 428.80365Q45.003124 428.16302 44.159374 428.16302Q43.33125 428.16302 42.940624 428.80365Q42.565624 429.42865 42.565624 430.72552L42.565624 432.4599Q42.565624 433.8349 42.95625 434.50677Q43.3625 435.16302 44.175 435.16302Q44.971874 435.16302 45.3625 434.53802Q45.753124 433.91302 45.76875 432.5849L45.76875 430.80365ZM48.409374 429.03802Q48.409374 428.2724 48.89375 427.7724Q49.39375 427.2724 50.159374 427.2724Q50.940624 427.2724 51.425 427.7724Q51.909374 428.2724 51.909374 429.06927L51.909374 429.49115Q51.909374 430.25677 51.409374 430.75677Q50.925 431.24115 50.175 431.24115Q49.409374 431.24115 48.909374 430.75677Q48.409374 430.25677 48.409374 429.44427L48.409374 429.03802ZM49.221874 429.49115Q49.221874 429.94427 49.471874 430.24115Q49.7375 430.53802 50.175 430.53802Q50.596874 430.53802 50.846874 430.25677Q51.096874 429.9599 51.096874 429.4599L51.096874 429.03802Q51.096874 428.5849 50.846874 428.28802Q50.596874 427.97552 50.159374 427.97552Q49.721874 427.97552 49.471874 428.28802Q49.221874 428.5849 49.221874 429.05365L49.221874 429.49115ZM52.565624 433.8349Q52.565624 433.06927 53.05 432.5849Q53.55 432.0849 54.315624 432.0849Q55.08125 432.0849 55.565624 432.5849Q56.065624 433.06927 56.065624 433.88177L56.065624 434.28802Q56.065624 435.05365 55.58125 435.55365Q55.096874 436.05365 54.33125 436.05365Q53.565624 436.05365 53.065624 435.56927Q52.565624 435.06927 52.565624 434.25677L52.565624 433.8349ZM53.378124 434.28802Q53.378124 434.75677 53.628124 435.05365Q53.89375 435.35052 54.33125 435.35052Q54.753124 435.35052 55.003124 435.06927Q55.253124 434.7724 55.253124 434.2724L55.253124 433.8349Q55.253124 433.36615 54.9875 433.0849Q54.7375 432.78802 54.315624 432.78802Q53.89375 432.78802 53.628124 433.0849Q53.378124 433.36615 53.378124 433.86615L53.378124 434.28802ZM50.425 435.28802L49.8 434.8974L53.971874 428.22552L54.58125 428.61615L50.425 435.28802Z" fill-rule="nonzero"/><path fill="#757575" d="M40.096874 356.50293L34.503124 356.50293L34.503124 355.72168L37.45625 352.44043Q38.1125 351.69043 38.3625 351.2373Q38.6125 350.76855 38.6125 350.26855Q38.6125 349.59668 38.20625 349.1748Q37.815624 348.7373 37.128124 348.7373Q36.33125 348.7373 35.878124 349.20605Q35.425 349.65918 35.425 350.4873L34.346874 350.4873Q34.346874 349.2998 35.096874 348.58105Q35.8625 347.84668 37.128124 347.84668Q38.33125 347.84668 39.01875 348.47168Q39.70625 349.09668 39.70625 350.14355Q39.70625 351.39355 38.096874 353.14355L35.815624 355.6123L40.096874 355.6123L40.096874 356.50293ZM42.003124 352.22168L42.440624 347.97168L46.815624 347.97168L46.815624 348.97168L43.3625 348.97168L43.096874 351.2998Q43.7375 350.9248 44.534374 350.9248Q45.690624 350.9248 46.378124 351.70605Q47.065624 352.47168 47.065624 353.78418Q47.065624 355.09668 46.346874 355.8623Q45.64375 356.62793 44.3625 356.62793Q43.2375 356.62793 42.51875 356.00293Q41.8 355.3623 41.70625 354.25293L42.721874 354.25293Q42.83125 354.9873 43.253124 355.3623Q43.675 355.7373 44.3625 355.7373Q45.1125 355.7373 45.55 355.22168Q45.9875 354.70605 45.9875 353.7998Q45.9875 352.94043 45.51875 352.4248Q45.05 351.90918 44.26875 351.90918Q43.565624 351.90918 43.159374 352.20605L42.878124 352.44043L42.003124 352.22168ZM48.409374 349.6123Q48.409374 348.84668 48.89375 348.34668Q49.39375 347.84668 50.159374 347.84668Q50.940624 347.84668 51.425 348.34668Q51.909374 348.84668 51.909374 349.64355L51.909374 350.06543Q51.909374 350.83105 51.409374 351.33105Q50.925 351.81543 50.175 351.81543Q49.409374 351.81543 48.909374 351.33105Q48.409374 350.83105 48.409374 350.01855L48.409374 349.6123ZM49.221874 350.06543Q49.221874 350.51855 49.471874 350.81543Q49.7375 351.1123 50.175 351.1123Q50.596874 351.1123 50.846874 350.83105Q51.096874 350.53418 51.096874 350.03418L51.096874 349.6123Q51.096874 349.15918 50.846874 348.8623Q50.596874 348.5498 50.159374 348.5498Q49.721874 348.5498 49.471874 348.8623Q49.221874 349.15918 49.221874 349.62793L49.221874 350.06543ZM52.565624 354.40918Q52.565624 353.64355 53.05 353.15918Q53.55 352.65918 54.315624 352.65918Q55.08125 352.65918 55.565624 353.15918Q56.065624 353.64355 56.065624 354.45605L56.065624 354.8623Q56.065624 355.62793 55.58125 356.12793Q55.096874 356.62793 54.33125 356.62793Q53.565624 356.62793 53.065624 356.14355Q52.565624 355.64355 52.565624 354.83105L52.565624 354.40918ZM53.378124 354.8623Q53.378124 355.33105 53.628124 355.62793Q53.89375 355.9248 54.33125 355.9248Q54.753124 355.9248 55.003124 355.64355Q55.253124 355.34668 55.253124 354.84668L55.253124 354.40918Q55.253124 353.94043 54.9875 353.65918Q54.7375 353.3623 54.315624 353.3623Q53.89375 353.3623 53.628124 353.65918Q53.378124 353.94043 53.378124 354.44043L53.378124 354.8623ZM50.425 355.8623L49.8 355.47168L53.971874 348.7998L54.58125 349.19043L50.425 355.8623Z" fill-rule="nonzero"/><path fill="#757575" d="M35.003124 272.79596L35.440624 268.54596L39.815624 268.54596L39.815624 269.54596L36.3625 269.54596L36.096874 271.87408Q36.7375 271.49908 37.534374 271.49908Q38.690624 271.49908 39.378124 272.28033Q40.065624 273.04596 40.065624 274.35846Q40.065624 275.67096 39.346874 276.43658Q38.64375 277.2022 37.3625 277.2022Q36.2375 277.2022 35.51875 276.5772Q34.8 275.93658 34.70625 274.8272L35.721874 274.8272Q35.83125 275.56158 36.253124 275.93658Q36.675 276.31158 37.3625 276.31158Q38.1125 276.31158 38.55 275.79596Q38.9875 275.28033 38.9875 274.37408Q38.9875 273.5147 38.51875 272.99908Q38.05 272.48346 37.26875 272.48346Q36.565624 272.48346 36.159374 272.78033L35.878124 273.0147L35.003124 272.79596ZM46.8625 273.43658Q46.8625 275.34283 46.20625 276.28033Q45.565624 277.2022 44.175 277.2022Q42.815624 277.2022 42.159374 276.29596Q41.503124 275.3897 41.471874 273.5772L41.471874 272.1397Q41.471874 270.24908 42.1125 269.34283Q42.76875 268.42096 44.159374 268.42096Q45.534374 268.42096 46.190624 269.31158Q46.846874 270.18658 46.8625 272.03033L46.8625 273.43658ZM45.76875 271.9522Q45.76875 270.5772 45.378124 269.9522Q45.003124 269.31158 44.159374 269.31158Q43.33125 269.31158 42.940624 269.9522Q42.565624 270.5772 42.565624 271.87408L42.565624 273.60846Q42.565624 274.98346 42.95625 275.65533Q43.3625 276.31158 44.175 276.31158Q44.971874 276.31158 45.3625 275.68658Q45.753124 275.06158 45.76875 273.73346L45.76875 271.9522ZM48.409374 270.18658Q48.409374 269.42096 48.89375 268.92096Q49.39375 268.42096 50.159374 268.42096Q50.940624 268.42096 51.425 268.92096Q51.909374 269.42096 51.909374 270.21783L51.909374 270.6397Q51.909374 271.40533 51.409374 271.90533Q50.925 272.3897 50.175 272.3897Q49.409374 272.3897 48.909374 271.90533Q48.409374 271.40533 48.409374 270.59283L48.409374 270.18658ZM49.221874 270.6397Q49.221874 271.09283 49.471874 271.3897Q49.7375 271.68658 50.175 271.68658Q50.596874 271.68658 50.846874 271.40533Q51.096874 271.10846 51.096874 270.60846L51.096874 270.18658Q51.096874 269.73346 50.846874 269.43658Q50.596874 269.12408 50.159374 269.12408Q49.721874 269.12408 49.471874 269.43658Q49.221874 269.73346 49.221874 270.2022L49.221874 270.6397ZM52.565624 274.98346Q52.565624 274.21783 53.05 273.73346Q53.55 273.23346 54.315624 273.23346Q55.08125 273.23346 55.565624 273.73346Q56.065624 274.21783 56.065624 275.03033L56.065624 275.43658Q56.065624 276.2022 55.58125 276.7022Q55.096874 277.2022 54.33125 277.2022Q53.565624 277.2022 53.065624 276.71783Q52.565624 276.21783 52.565624 275.40533L52.565624 274.98346ZM53.378124 275.43658Q53.378124 275.90533 53.628124 276.2022Q53.89375 276.49908 54.33125 276.49908Q54.753124 276.49908 55.003124 276.21783Q55.253124 275.92096 55.253124 275.42096L55.253124 274.98346Q55.253124 274.5147 54.9875 274.23346Q54.7375 273.93658 54.315624 273.93658Q53.89375 273.93658 53.628124 274.23346Q53.378124 274.5147 53.378124 275.0147L53.378124 275.43658ZM50.425 276.43658L49.8 276.04596L53.971874 269.37408L54.58125 269.7647L50.425 276.43658Z" fill-rule="nonzero"/><path fill="#757575" d="M40.01875 189.72958L36.4875 197.65146L35.346874 197.65146L38.8625 190.01083L34.253124 190.01083L34.253124 189.12021L40.01875 189.12021L40.01875 189.72958ZM42.003124 193.37021L42.440624 189.12021L46.815624 189.12021L46.815624 190.12021L43.3625 190.12021L43.096874 192.44833Q43.7375 192.07333 44.534374 192.07333Q45.690624 192.07333 46.378124 192.85458Q47.065624 193.62021 47.065624 194.93271Q47.065624 196.24521 46.346874 197.01083Q45.64375 197.77646 44.3625 197.77646Q43.2375 197.77646 42.51875 197.15146Q41.8 196.51083 41.70625 195.40146L42.721874 195.40146Q42.83125 196.13583 43.253124 196.51083Q43.675 196.88583 44.3625 196.88583Q45.1125 196.88583 45.55 196.37021Q45.9875 195.85458 45.9875 194.94833Q45.9875 194.08896 45.51875 193.57333Q45.05 193.05771 44.26875 193.05771Q43.565624 193.05771 43.159374 193.35458L42.878124 193.58896L42.003124 193.37021ZM48.409374 190.76083Q48.409374 189.99521 48.89375 189.49521Q49.39375 188.99521 50.159374 188.99521Q50.940624 188.99521 51.425 189.49521Q51.909374 189.99521 51.909374 190.79208L51.909374 191.21396Q51.909374 191.97958 51.409374 192.47958Q50.925 192.96396 50.175 192.96396Q49.409374 192.96396 48.909374 192.47958Q48.409374 191.97958 48.409374 191.16708L48.409374 190.76083ZM49.221874 191.21396Q49.221874 191.66708 49.471874 191.96396Q49.7375 192.26083 50.175 192.26083Q50.596874 192.26083 50.846874 191.97958Q51.096874 191.68271 51.096874 191.18271L51.096874 190.76083Q51.096874 190.30771 50.846874 190.01083Q50.596874 189.69833 50.159374 189.69833Q49.721874 189.69833 49.471874 190.01083Q49.221874 190.30771 49.221874 190.77646L49.221874 191.21396ZM52.565624 195.55771Q52.565624 194.79208 53.05 194.30771Q53.55 193.80771 54.315624 193.80771Q55.08125 193.80771 55.565624 194.30771Q56.065624 194.79208 56.065624 195.60458L56.065624 196.01083Q56.065624 196.77646 55.58125 197.27646Q55.096874 197.77646 54.33125 197.77646Q53.565624 197.77646 53.065624 197.29208Q52.565624 196.79208 52.565624 195.97958L52.565624 195.55771ZM53.378124 196.01083Q53.378124 196.47958 53.628124 196.77646Q53.89375 197.07333 54.33125 197.07333Q54.753124 197.07333 55.003124 196.79208Q55.253124 196.49521 55.253124 195.99521L55.253124 195.55771Q55.253124 195.08896 54.9875 194.80771Q54.7375 194.51083 54.315624 194.51083Q53.89375 194.51083 53.628124 194.80771Q53.378124 195.08896 53.378124 195.58896L53.378124 196.01083ZM50.425 197.01083L49.8 196.62021L53.971874 189.94833L54.58125 190.33896L50.425 197.01083Z" fill-rule="nonzero"/><path fill="#757575" d="M31.065624 118.22573L29.9875 118.22573L29.9875 111.00698L27.8 111.803856L27.8 110.81948L30.909374 109.647606L31.065624 109.647606L31.065624 118.22573ZM39.8625 114.585106Q39.8625 116.491356 39.20625 117.428856Q38.565624 118.35073 37.175 118.35073Q35.815624 118.35073 35.159374 117.44448Q34.503124 116.53823 34.471874 114.72573L34.471874 113.28823Q34.471874 111.397606 35.1125 110.491356Q35.76875 109.56948 37.159374 109.56948Q38.534374 109.56948 39.190624 110.460106Q39.846874 111.335106 39.8625 113.178856L39.8625 114.585106ZM38.76875 113.10073Q38.76875 111.72573 38.378124 111.10073Q38.003124 110.460106 37.159374 110.460106Q36.33125 110.460106 35.940624 111.10073Q35.565624 111.72573 35.565624 113.022606L35.565624 114.75698Q35.565624 116.13198 35.95625 116.803856Q36.3625 117.460106 37.175 117.460106Q37.971874 117.460106 38.3625 116.835106Q38.753124 116.210106 38.76875 114.88198L38.76875 113.10073ZM46.8625 114.585106Q46.8625 116.491356 46.20625 117.428856Q45.565624 118.35073 44.175 118.35073Q42.815624 118.35073 42.159374 117.44448Q41.503124 116.53823 41.471874 114.72573L41.471874 113.28823Q41.471874 111.397606 42.1125 110.491356Q42.76875 109.56948 44.159374 109.56948Q45.534374 109.56948 46.190624 110.460106Q46.846874 111.335106 46.8625 113.178856L46.8625 114.585106ZM45.76875 113.10073Q45.76875 111.72573 45.378124 111.10073Q45.003124 110.460106 44.159374 110.460106Q43.33125 110.460106 42.940624 111.10073Q42.565624 111.72573 42.565624 113.022606L42.565624 114.75698Q42.565624 116.13198 42.95625 116.803856Q43.3625 117.460106 44.175 117.460106Q44.971874 117.460106 45.3625 116.835106Q45.753124 116.210106 45.76875 114.88198L45.76875 113.10073ZM48.409374 111.335106Q48.409374 110.56948 48.89375 110.06948Q49.39375 109.56948 50.159374 109.56948Q50.940624 109.56948 51.425 110.06948Q51.909374 110.56948 51.909374 111.366356L51.909374 111.78823Q51.909374 112.553856 51.409374 113.053856Q50.925 113.53823 50.175 113.53823Q49.409374 113.53823 48.909374 113.053856Q48.409374 112.553856 48.409374 111.741356L48.409374 111.335106ZM49.221874 111.78823Q49.221874 112.241356 49.471874 112.53823Q49.7375 112.835106 50.175 112.835106Q50.596874 112.835106 50.846874 112.553856Q51.096874 112.25698 51.096874 111.75698L51.096874 111.335106Q51.096874 110.88198 50.846874 110.585106Q50.596874 110.272606 50.159374 110.272606Q49.721874 110.272606 49.471874 110.585106Q49.221874 110.88198 49.221874 111.35073L49.221874 111.78823ZM52.565624 116.13198Q52.565624 115.366356 53.05 114.88198Q53.55 114.38198 54.315624 114.38198Q55.08125 114.38198 55.565624 114.88198Q56.065624 115.366356 56.065624 116.178856L56.065624 116.585106Q56.065624 117.35073 55.58125 117.85073Q55.096874 118.35073 54.33125 118.35073Q53.565624 118.35073 53.065624 117.866356Q52.565624 117.366356 52.565624 116.553856L52.565624 116.13198ZM53.378124 116.585106Q53.378124 117.053856 53.628124 117.35073Q53.89375 117.647606 54.33125 117.647606Q54.753124 117.647606 55.003124 117.366356Q55.253124 117.06948 55.253124 116.56948L55.253124 116.13198Q55.253124 115.66323 54.9875 115.38198Q54.7375 115.085106 54.315624 115.085106Q53.89375 115.085106 53.628124 115.38198Q53.378124 115.66323 53.378124 116.16323L53.378124 116.585106ZM50.425 117.585106L49.8 117.19448L53.971874 110.522606L54.58125 110.91323L50.425 117.585106Z" fill-rule="nonzero"/><path fill="#757575" d="M31.065624 38.8L29.9875 38.8L29.9875 31.58125L27.8 32.378124L27.8 31.39375L30.909374 30.221874L31.065624 30.221874L31.065624 38.8ZM40.096874 38.8L34.503124 38.8L34.503124 38.01875L37.45625 34.7375Q38.1125 33.9875 38.3625 33.534374Q38.6125 33.065624 38.6125 32.565624Q38.6125 31.89375 38.20625 31.471874Q37.815624 31.034374 37.128124 31.034374Q36.33125 31.034374 35.878124 31.503124Q35.425 31.95625 35.425 32.784374L34.346874 32.784374Q34.346874 31.596874 35.096874 30.878124Q35.8625 30.14375 37.128124 30.14375Q38.33125 30.14375 39.01875 30.76875Q39.70625 31.39375 39.70625 32.440624Q39.70625 33.690624 38.096874 35.440624L35.815624 37.909374L40.096874 37.909374L40.096874 38.8ZM42.003124 34.51875L42.440624 30.26875L46.815624 30.26875L46.815624 31.26875L43.3625 31.26875L43.096874 33.596874Q43.7375 33.221874 44.534374 33.221874Q45.690624 33.221874 46.378124 34.003124Q47.065624 34.76875 47.065624 36.08125Q47.065624 37.39375 46.346874 38.159374Q45.64375 38.925 44.3625 38.925Q43.2375 38.925 42.51875 38.3Q41.8 37.659374 41.70625 36.55L42.721874 36.55Q42.83125 37.284374 43.253124 37.659374Q43.675 38.034374 44.3625 38.034374Q45.1125 38.034374 45.55 37.51875Q45.9875 37.003124 45.9875 36.096874Q45.9875 35.2375 45.51875 34.721874Q45.05 34.20625 44.26875 34.20625Q43.565624 34.20625 43.159374 34.503124L42.878124 34.7375L42.003124 34.51875ZM48.409374 31.909374Q48.409374 31.14375 48.89375 30.64375Q49.39375 30.14375 50.159374 30.14375Q50.940624 30.14375 51.425 30.64375Q51.909374 31.14375 51.909374 31.940624L51.909374 32.3625Q51.909374 33.128124 51.409374 33.628124Q50.925 34.1125 50.175 34.1125Q49.409374 34.1125 48.909374 33.628124Q48.409374 33.128124 48.409374 32.315624L48.409374 31.909374ZM49.221874 32.3625Q49.221874 32.815624 49.471874 33.1125Q49.7375 33.409374 50.175 33.409374Q50.596874 33.409374 50.846874 33.128124Q51.096874 32.83125 51.096874 32.33125L51.096874 31.909374Q51.096874 31.45625 50.846874 31.159374Q50.596874 30.846874 50.159374 30.846874Q49.721874 30.846874 49.471874 31.159374Q49.221874 31.45625 49.221874 31.925L49.221874 32.3625ZM52.565624 36.70625Q52.565624 35.940624 53.05 35.45625Q53.55 34.95625 54.315624 34.95625Q55.08125 34.95625 55.565624 35.45625Q56.065624 35.940624 56.065624 36.753124L56.065624 37.159374Q56.065624 37.925 55.58125 38.425Q55.096874 38.925 54.33125 38.925Q53.565624 38.925 53.065624 38.440624Q52.565624 37.940624 52.565624 37.128124L52.565624 36.70625ZM53.378124 37.159374Q53.378124 37.628124 53.628124 37.925Q53.89375 38.221874 54.33125 38.221874Q54.753124 38.221874 55.003124 37.940624Q55.253124 37.64375 55.253124 37.14375L55.253124 36.70625Q55.253124 36.2375 54.9875 35.95625Q54.7375 35.659374 54.315624 35.659374Q53.89375 35.659374 53.628124 35.95625Q53.378124 36.2375 53.378124 36.7375L53.378124 37.159374ZM50.425 38.159374L49.8 37.76875L53.971874 31.096874L54.58125 31.4875L50.425 38.159374Z" fill-rule="nonzero"/><path fill="#757575" d="M99.83294 463.1828L98.40768 464.60806L100.84941 467.0498L100.05391 467.84528L94.02141 461.81277L96.021194 459.813Q97.03766 458.79654 98.043076 458.71918Q99.05955 458.6308 99.94343 459.51468Q100.506905 460.07816 100.617386 460.80737Q100.73892 461.5255 100.40746 462.27682L104.37389 463.41483L104.42914 463.47006L103.5784 464.3208L99.83294 463.1828ZM97.75581 463.9562L98.9822 462.7298Q99.57883 462.13318 99.62302 461.49237Q99.66721 460.82947 99.147934 460.31018Q98.595505 459.75775 97.96574 459.7909Q97.33597 459.82404 96.69515 460.44275L95.468765 461.66916L97.75581 463.9562ZM104.407036 459.69147L105.324066 460.36542L104.771645 459.48154L101.75539 454.0788L102.42935 453.40485L107.79894 456.45422L108.69387 457.0177L108.008865 456.06754L104.82688 451.0073L105.622375 450.21182L110.19647 457.70273L109.46727 458.43192L103.821465 455.28308L103.269035 454.90744L103.633644 455.47092L106.74933 461.14987L106.02013 461.87906L98.52921 457.30496L99.32471 456.5095L104.407036 459.69147ZM114.27339 449.25058Q115.3009 450.2781 115.45558 451.38297Q115.61026 452.4657 114.814766 453.2612Q113.96403 454.11194 112.89232 453.96832L113.36741 454.5318L112.67135 455.22784L106.30739 448.8639L107.06974 448.10153L109.445175 450.47696Q109.33469 449.43842 110.15228 448.62082Q110.96987 447.80322 112.05263 447.95792Q113.12434 448.10153 114.2071 449.1843L114.27339 449.25058ZM113.42265 449.92456Q112.63821 449.1401 111.909 449.0296Q111.179794 448.89703 110.61632 449.4605Q109.85397 450.22287 110.218575 451.25037L112.16312 453.19492Q113.22378 453.54846 113.96403 452.80823Q114.51646 452.2558 114.39492 451.51553Q114.27339 450.7753 113.42265 449.92456ZM121.48809 446.4111L117.53271 450.3665L116.98028 449.81406L116.74826 445.4057Q116.68197 444.41132 116.53834 443.91415Q116.38366 443.4059 116.030106 443.05237Q115.555016 442.57727 114.969444 442.56622Q114.38387 442.53308 113.897736 443.0192Q113.33426 443.58267 113.345314 444.23456Q113.345314 444.87537 113.930885 445.46094L113.16853 446.2233Q112.32884 445.3836 112.350945 444.34503Q112.37304 443.28436 113.26797 442.38943Q114.118706 441.5387 115.04678 441.4945Q115.97486 441.45032 116.71512 442.19055Q117.599 443.07446 117.69843 445.4499L117.83102 448.80865L120.85832 445.78134L121.48809 446.4111Z" fill-rule="nonzero"/><path fill="#757575" d="M182.57858 457.27185L180.04848 459.80194L181.06494 461.94537L180.24734 462.76297L176.51294 454.43237L177.209 453.7363L185.55064 457.45966L184.73305 458.27725L182.57858 457.27185ZM179.63968 458.907L181.6947 456.852L177.84981 455.06213L179.63968 458.907ZM186.47873 456.5316L180.44621 450.49908L182.15874 448.78656Q182.94319 448.0021 183.89337 447.75903Q184.84354 447.49387 185.81581 447.80322Q186.78809 448.11258 187.62778 448.95227L188.00342 449.32794Q188.8652 450.18973 189.17458 451.162Q189.49498 452.12323 189.21877 453.08444Q188.9536 454.0346 188.1581 454.8522L186.47873 456.5316ZM181.89359 450.35544L186.62236 455.08423L187.46205 454.24454Q188.37907 453.3275 188.32384 452.2558Q188.26859 451.162 187.20793 450.10132L186.85437 449.74777Q185.82686 448.72028 184.77725 448.6429Q183.72763 448.5435 182.82166 449.42737L181.89359 450.35544ZM194.6657 444.52182Q195.50539 445.5825 195.43909 446.70944Q195.36176 447.82532 194.37843 448.80865Q193.30672 449.88037 191.90356 449.75882Q190.48935 449.62625 189.19667 448.33356L188.62215 447.75903Q187.78246 446.91934 187.43994 445.98022Q187.09744 445.0411 187.30736 444.14618Q187.51729 443.25122 188.23544 442.53308Q189.19667 441.57187 190.31256 441.5387Q191.43951 441.4945 192.47809 442.3342L191.68259 443.1297Q190.85394 442.52203 190.19104 442.54413Q189.52812 442.56622 188.89836 443.19598Q188.136 443.95834 188.26859 444.9527Q188.40117 445.94708 189.43973 446.98566L190.0253 447.57123Q191.00862 448.55453 192.00299 448.73132Q192.98631 448.89703 193.72656 448.1568Q194.38948 447.49387 194.44472 446.842Q194.48892 446.1791 193.8702 445.31732L194.6657 444.52182Z" fill-rule="nonzero"/><path fill="#757575" d="M237.89072 477.07083L235.3606 479.60095L236.37706 481.74435L235.55946 482.56195L231.82506 474.23135L232.52112 473.53528L240.86276 477.25864L240.04518 478.07623L237.89072 477.07083ZM234.9518 478.70602L237.00682 476.65097L233.16194 474.8611L234.9518 478.70602ZM241.79085 476.33057L235.75835 470.29807L237.47087 468.58554Q238.25531 467.8011 239.20549 467.558Q240.15567 467.29288 241.12793 467.60223Q242.1002 467.9116 242.9399 468.75128L243.31555 469.12692Q244.17734 469.9887 244.4867 470.96097Q244.8071 471.9222 244.53088 472.88342Q244.26572 473.8336 243.47023 474.65118L241.79085 476.33057ZM237.2057 470.15445L241.93448 474.8832L242.77417 474.04352Q243.6912 473.1265 243.63596 472.05478Q243.58072 470.96097 242.52005 469.90033L242.1665 469.54675Q241.13898 468.51926 240.08937 468.44193Q239.03976 468.34247 238.13377 469.22635L237.2057 470.15445ZM249.97781 464.3208Q250.8175 465.38147 250.75122 466.50842Q250.67387 467.62433 249.69055 468.60764Q248.61885 469.67935 247.21568 469.5578Q245.80147 469.42523 244.50879 468.13254L243.93427 467.558Q243.09457 466.71835 242.75208 465.7792Q242.40956 464.8401 242.61949 463.94516Q242.8294 463.05023 243.54756 462.33206Q244.50879 461.37085 245.6247 461.3377Q246.75165 461.29352 247.7902 462.13318L246.9947 462.92868Q246.16608 462.321 245.50316 462.3431Q244.84024 462.3652 244.21048 462.995Q243.44814 463.75732 243.58072 464.7517Q243.71329 465.74606 244.75186 466.78464L245.33743 467.3702Q246.32076 468.35352 247.31512 468.5303Q248.29845 468.696 249.0387 467.95578Q249.7016 467.29288 249.75685 466.641Q249.80104 465.9781 249.18233 465.1163L249.97781 464.3208ZM254.16522 466.36478L253.43602 466.49738Q253.28133 465.5693 252.71785 464.9616L252.03285 464.2766L252.78415 463.5253L253.38077 464.12192Q253.80061 464.54178 254.01054 465.17154Q254.22046 465.8013 254.16522 466.36478ZM249.51378 456.54263L256.40808 459.48154L253.45811 452.5983L254.49667 451.55972L260.52917 457.59225L259.73367 458.38773L257.38034 456.0344L254.92757 453.42694L257.8223 460.29913L257.2146 460.9068L250.36452 458.0121L252.96092 460.45383L255.31427 462.80716L254.51877 463.60266L248.48627 457.57016L249.51378 456.54263ZM263.41284 449.07382Q264.29672 449.9577 264.66135 450.9189Q265.0149 451.8691 264.816 452.7751Q264.62817 453.67 263.899 454.3992Q263.19186 455.10632 262.2859 455.3052Q261.3799 455.50406 260.42975 455.1726Q259.47955 454.81906 258.60672 453.96832L258.17584 453.5374Q257.303 452.66458 256.93842 451.70337Q256.58484 450.7311 256.78372 449.8251Q256.97156 448.90808 257.6897 448.18994Q258.40787 447.47177 259.31384 447.2729Q260.21982 447.07404 261.18103 447.43863Q262.14227 447.80322 263.02615 448.6871L263.41284 449.07382ZM262.23065 449.4605Q261.15894 448.3888 260.15353 448.24518Q259.1481 448.10153 258.37473 448.87494Q257.61237 449.6373 257.75598 450.6427Q257.89963 451.64813 258.90503 452.67563L259.35803 453.12863Q260.3966 454.1672 261.4241 454.33292Q262.45163 454.47656 263.21396 453.7142Q263.98737 452.9408 263.8548 451.96854Q263.7222 450.97415 262.68365 449.9135L262.23065 449.4605ZM268.18582 447.81427L264.93756 441.11887L265.8104 440.24603L269.60004 448.5214L268.90396 449.21744L260.63965 445.41675L261.50143 444.55496L268.18582 447.81427Z" fill-rule="nonzero"/><path fill="#757575" d="M283.17075 509.26627Q282.9719 509.0674 282.9498 508.82434Q282.93875 508.57022 283.17075 508.3382Q283.41382 508.09512 283.66794 508.10617Q283.92206 508.11722 284.12094 508.3161Q284.30875 508.50394 284.3198 508.75806Q284.3198 509.0011 284.07675 509.24417Q283.84473 509.4762 283.60165 509.4762Q283.35858 509.4541 283.17075 509.26627ZM285.29208 507.14496Q285.0932 506.94608 285.0711 506.703Q285.06006 506.4489 285.29208 506.2169Q285.53516 505.97382 285.78928 505.98486Q286.04337 505.9959 286.24225 506.1948Q286.43008 506.3826 286.44113 506.63672Q286.44113 506.8798 286.19806 507.12286Q285.96603 507.3549 285.72296 507.3549Q285.4799 507.3328 285.29208 507.14496ZM287.4134 505.02365Q287.21454 504.82477 287.1924 504.5817Q287.18137 504.32758 287.4134 504.09555Q287.65646 503.85248 287.91058 503.86353Q288.1647 503.8746 288.3636 504.07346Q288.5514 504.2613 288.56244 504.5154Q288.56244 504.75848 288.31937 505.00153Q288.08737 505.23355 287.8443 505.23355Q287.60123 505.21146 287.4134 505.02365ZM290.99313 495.76495L292.68356 494.07452L293.41275 494.80374L291.72232 496.49417L293.62268 498.3945L292.86032 499.15686L290.96 497.2565L289.26956 498.94693L288.54034 498.21774L290.23077 496.5273L288.47406 494.7706L289.23642 494.00824L290.99313 495.76495ZM299.2243 494.00824L293.19177 487.97574L295.16946 485.99805Q296.1528 485.01474 297.04773 484.93738Q297.94266 484.83795 298.73816 485.63345Q299.16904 486.06433 299.25745 486.63885Q299.34583 487.19128 299.10275 487.7879Q299.7325 487.4233 300.39545 487.53378Q301.05835 487.6222 301.58868 488.1525Q302.40628 488.9701 302.33997 489.96448Q302.28473 490.94778 301.32352 491.90903L299.2243 494.00824ZM297.20242 490.39536L299.36792 492.56088L300.6827 491.2461Q301.2462 490.68262 301.27933 490.07495Q301.31247 489.4673 300.80423 488.95905Q299.72147 487.8763 298.52823 489.06955L297.20242 490.39536ZM296.56158 489.75455L297.76587 488.55026Q298.28516 488.03098 298.3404 487.4675Q298.39566 486.88193 297.94266 486.42892Q297.44547 485.93176 296.93726 485.99805Q296.41797 486.05328 295.82135 486.6499L294.63916 487.8321L296.56158 489.75455ZM302.42838 483.20276Q302.2295 483.35745 302.0306 483.5563Q301.26828 484.31866 301.64392 485.22464L304.8259 488.40662L304.06357 489.16898L299.57785 484.68326L300.31808 483.94302L300.84842 484.45126Q300.62744 483.47897 301.32352 482.78293Q301.5445 482.56195 301.72125 482.49567L302.42838 483.20276ZM309.6541 483.5784Q309.45523 483.51212 309.06854 483.2138Q309.10168 484.30762 308.36145 485.04788Q307.69852 485.7108 306.89197 485.76602Q306.0965 485.8102 305.51093 485.22464Q304.81485 484.5286 304.9585 483.61157Q305.1021 482.69452 306.0744 481.72226L306.81464 480.982L306.4611 480.62845Q306.06335 480.2307 305.58826 480.24176Q305.11316 480.2307 304.6381 480.70578Q304.22928 481.1146 304.163 481.60074Q304.08566 482.0758 304.38397 482.3741L303.61057 483.14752Q303.26807 482.80502 303.1907 482.26364Q303.12442 481.7112 303.35645 481.12564Q303.57742 480.52902 304.06357 480.04288Q304.848 479.25842 305.6656 479.21423Q306.49423 479.159 307.19028 479.81085L309.25638 481.87695Q309.8751 482.49567 310.39438 482.70557L310.46066 482.77188L309.6541 483.5784ZM307.79797 484.26343Q308.16257 483.89883 308.29514 483.3906Q308.42773 482.88235 308.27304 482.4404L307.35602 481.52338L306.7594 482.12Q305.34518 483.5342 306.17383 484.36285Q306.52737 484.7164 306.98038 484.68326Q307.4223 484.63907 307.79797 484.26343ZM308.0742 476.18695L308.65976 476.72833Q308.5382 475.5682 309.36685 474.7396Q310.7921 473.31433 312.4052 474.9053L315.3662 477.8663L314.5928 478.6397L311.62076 475.66766Q311.14566 475.19257 310.6927 475.18152Q310.25073 475.15942 309.7867 475.62347Q309.41104 475.9991 309.32266 476.48526Q309.24533 476.96033 309.41104 477.43542L312.60406 480.62845L311.84174 481.3908L307.35602 476.9051L308.0742 476.18695ZM318.03995 474.1098Q318.44876 473.70102 318.51505 473.1486Q318.57028 472.5851 318.22778 472.17633L318.957 471.4471Q319.3216 471.8559 319.42102 472.4636Q319.52048 473.04916 319.3216 473.66788Q319.13376 474.27554 318.66974 474.7396Q317.7527 475.65662 316.60364 475.59033Q315.4546 475.50192 314.39395 474.44125L314.26135 474.3087Q313.6095 473.65683 313.33328 472.91656Q313.0681 472.16528 313.23386 471.4471Q313.39957 470.70685 314.01828 470.08813Q314.7696 469.33685 315.71976 469.29263Q316.66995 469.22635 317.43228 469.92242L316.7031 470.6516Q316.228 470.24283 315.65347 470.26492Q315.07895 470.28702 314.64807 470.7179Q314.0625 471.3035 314.16193 472.04373Q314.26135 472.784 315.05685 473.57947L315.2005 473.7231Q315.97388 474.49652 316.71414 474.59595Q317.45438 474.69537 318.03995 474.1098ZM317.85214 467.49173Q317.74164 466.36478 318.55923 465.54718Q319.9845 464.12192 321.5976 465.71292L324.5586 468.67392L323.78522 469.44733L320.81314 466.47528Q320.33804 466.00018 319.88507 465.98914Q319.4431 465.96704 318.9791 466.43106Q318.60342 466.80673 318.51505 467.29285Q318.4377 467.76794 318.60342 468.24304L321.79648 471.43607L321.03412 472.19843L314.67017 465.83444L315.4325 465.0721L317.85214 467.49173ZM326.95615 466.2764L326.16064 467.0719L320.12814 461.0394L320.92365 460.2439L326.95615 466.2764ZM328.48083 464.7517L324.59174 460.8626L323.88464 461.5697L323.28802 460.97308L323.99512 460.266L323.54214 459.813Q322.81293 459.0838 322.80188 458.32144Q322.79083 457.537 323.49796 456.8299Q323.7631 456.56473 324.09457 456.36584L324.68015 457.03983Q324.43707 457.1945 324.22714 457.40442Q323.8515 457.78006 323.86255 458.21097Q323.88464 458.6308 324.28238 459.02856L324.75748 459.50363L325.7187 458.54242L326.3153 459.13904L325.3541 460.10025L329.2432 463.98935L328.48083 464.7517ZM330.98886 460.93994L334.44705 457.48175L335.0989 458.1336L330.7016 462.53094L330.10498 461.93433L328.63553 453.83572L325.3762 457.09506L324.72433 456.4432L328.93384 452.2337L329.5194 452.81927L330.98886 460.93994ZM337.8279 455.5814Q336.91086 456.49844 335.73972 456.47635Q334.56857 456.43213 333.56317 455.42673L333.43057 455.29413Q332.75662 454.62018 332.49146 453.84677Q332.21524 453.06235 332.38098 452.32208Q332.5467 451.55972 333.07703 451.02942Q333.94986 450.15656 335.01053 450.24496Q336.0712 450.33334 337.14288 451.40506L337.4633 451.72546L334.42496 454.76382Q335.10995 455.40463 335.88336 455.44882Q336.66782 455.48196 337.24234 454.90744Q337.64008 454.5097 337.75055 454.06775Q337.8721 453.61478 337.81686 453.11758L338.6455 453.01816Q338.95486 454.45447 337.8279 455.5814ZM333.7068 451.65918Q333.24277 452.1232 333.26486 452.78613Q333.28696 453.42694 333.82834 454.1009L336.0712 451.85803L336.01593 451.8028Q335.39722 451.25037 334.78955 451.21722Q334.19293 451.17303 333.7068 451.65918ZM338.4908 447.14032Q338.29193 447.29498 338.09308 447.49387Q337.33072 448.25623 337.70636 449.1622L340.88834 452.34418L340.126 453.10654L335.6403 448.62082L336.38055 447.88058L336.91086 448.3888Q336.6899 447.41653 337.38596 446.72046Q337.60693 446.4995 337.78372 446.4332L338.4908 447.14032ZM340.45746 448.201Q339.8056 447.5491 339.5294 446.76468Q339.26422 445.96918 339.45203 445.2289Q339.6288 444.47763 340.2144 443.89206Q341.1314 442.975 342.32465 443.04132Q343.52896 443.09656 344.5896 444.1572L344.64487 444.21246Q345.29672 444.86432 345.5619 445.63773Q345.82706 446.4111 345.66132 447.17346Q345.48456 447.92477 344.87686 448.53244Q343.9709 449.43842 342.7666 449.38318Q341.56232 449.30585 340.5127 448.25623L340.45746 448.201ZM341.3303 447.527Q342.07056 448.26727 342.86603 448.37775Q343.67258 448.4772 344.2471 447.90268Q344.83267 447.3171 344.7222 446.5216Q344.60065 445.71506 343.77203 444.8864Q343.04282 444.1572 342.23627 444.05777Q341.42972 443.93625 340.84415 444.52182Q340.28067 445.0853 340.38013 445.89185Q340.47955 446.67627 341.3303 447.527Z" fill-rule="nonzero"/><path fill="#757575" d="M388.68747 478.8607Q388.4886 478.6618 388.4665 478.41873Q388.45544 478.1646 388.68747 477.93262Q388.93054 477.68954 389.18466 477.7006Q389.43875 477.71164 389.63763 477.91052Q389.82547 478.09833 389.83652 478.35245Q389.83652 478.59552 389.59344 478.8386Q389.36142 479.07062 389.11835 479.07062Q388.87527 479.04852 388.68747 478.8607ZM390.80878 476.73935Q390.60992 476.5405 390.5878 476.29742Q390.57675 476.0433 390.80878 475.81128Q391.05185 475.5682 391.30597 475.57925Q391.5601 475.5903 391.75897 475.78918Q391.94678 475.97702 391.95782 476.23114Q391.95782 476.4742 391.71475 476.71725Q391.48276 476.94928 391.2397 476.94928Q390.9966 476.9272 390.80878 476.73935ZM392.9301 474.61804Q392.73123 474.41916 392.70914 474.1761Q392.6981 473.922 392.9301 473.68997Q393.17316 473.4469 393.42728 473.45795Q393.6814 473.469 393.88028 473.66788Q394.0681 473.85568 394.07916 474.1098Q394.07916 474.35287 393.8361 474.59595Q393.60406 474.82797 393.361 474.82797Q393.11792 474.80588 392.9301 474.61804ZM396.50983 465.35938L398.20026 463.66895L398.92947 464.39813L397.23904 466.08856L399.13937 467.98892L398.37704 468.75128L396.47668 466.85092L394.78625 468.54135L394.05707 467.81213L395.74747 466.1217L393.99075 464.365L394.7531 463.60263L396.50983 465.35938ZM403.1721 460.44275L405.5365 462.80716L404.741 463.60263L398.7085 457.57013L400.9403 455.33835Q401.9236 454.355 402.99533 454.29977Q404.056 454.2335 404.8957 455.07318Q405.76852 455.946 405.69116 456.9735Q405.62488 457.99 404.59735 459.0175L403.1721 460.44275ZM402.52023 459.7909L403.95654 458.35458Q404.59735 457.71378 404.63052 457.084Q404.6747 456.44318 404.11124 455.8797Q403.56985 455.33835 402.90695 455.36044Q402.24402 455.36044 401.63635 455.946L400.15585 457.4265L402.52023 459.7909ZM412.2319 456.2885Q411.31488 457.20554 410.14374 457.18344Q408.9726 457.13925 407.96716 456.13382L407.8346 456.00125Q407.1606 455.3273 406.89548 454.5539Q406.61926 453.76944 406.78497 453.02917Q406.9507 452.26685 407.48105 451.7365Q408.35388 450.86368 409.41452 450.95206Q410.4752 451.04047 411.5469 452.11215L411.8673 452.43256L408.82895 455.47092Q409.51398 456.11172 410.28735 456.1559Q411.0718 456.1891 411.64633 455.61456Q412.0441 455.2168 412.15457 454.77487Q412.2761 454.32187 412.22086 453.82468L413.0495 453.72525Q413.35886 455.16156 412.2319 456.2885ZM408.1108 452.36627Q407.64676 452.83032 407.66885 453.49323Q407.69095 454.13403 408.23233 454.808L410.4752 452.56516L410.41995 452.50992Q409.80124 451.9575 409.19357 451.92435Q408.59692 451.88013 408.1108 452.36627ZM416.47455 452.04587Q415.55753 452.9629 414.38638 452.9408Q413.21524 452.8966 412.2098 451.89117L412.07724 451.7586Q411.40326 451.08466 411.1381 450.31125Q410.86188 449.5268 411.02762 448.78656Q411.19336 448.0242 411.72366 447.49387Q412.5965 446.62103 413.65717 446.7094Q414.71783 446.79782 415.78955 447.8695L416.10995 448.18994L413.0716 451.22827Q413.75662 451.86908 414.53 451.9133Q415.31445 451.94644 415.88898 451.37192Q416.2867 450.97415 416.39722 450.53223Q416.51874 450.07922 416.4635 449.58203L417.29214 449.4826Q417.6015 450.9189 416.47455 452.04587ZM412.35345 448.12363Q411.8894 448.58768 411.9115 449.25058Q411.9336 449.8914 412.47498 450.56537L414.71783 448.3225L414.6626 448.26727Q414.04388 447.71484 413.4362 447.6817Q412.83957 447.6375 412.35345 448.12363ZM417.944 446.2454L417.95505 447.2287L419.535 448.80865L418.77264 449.57098L412.4087 443.20703L413.17102 442.44467L417.01593 446.28958L416.9386 445.39465L416.86124 442.511L417.78934 441.5829L417.9219 445.20682L422.48495 445.85867L421.57898 446.76468L417.944 446.2454Z" fill-rule="nonzero"/><path fill="#757575" d="M434.8072 507.85205Q434.60834 507.6532 434.58624 507.41013Q434.57516 507.156 434.8072 506.92398Q435.05026 506.6809 435.30438 506.69196Q435.5585 506.703 435.7574 506.9019Q435.9452 507.08972 435.95624 507.34384Q435.95624 507.58688 435.71317 507.82996Q435.48117 508.06198 435.2381 508.06198Q434.99503 508.0399 434.8072 507.85205ZM436.92853 505.73074Q436.72964 505.53186 436.70755 505.2888Q436.6965 505.03467 436.92853 504.80267Q437.1716 504.5596 437.4257 504.57065Q437.6798 504.5817 437.8787 504.78058Q438.06653 504.96838 438.07758 505.2225Q438.07758 505.46558 437.8345 505.70865Q437.60248 505.94067 437.3594 505.94067Q437.11633 505.91858 436.92853 505.73074ZM439.04984 503.6094Q438.85095 503.41055 438.82886 503.16748Q438.8178 502.91336 439.04984 502.68134Q439.2929 502.43826 439.54703 502.4493Q439.80115 502.46036 440.0 502.65924Q440.18784 502.84708 440.19888 503.1012Q440.19888 503.34427 439.9558 503.5873Q439.7238 503.81934 439.48074 503.81934Q439.23767 503.79724 439.04984 503.6094ZM442.62958 494.35074L444.32 492.6603L445.0492 493.38953L443.35876 495.07996L445.25912 496.9803L444.49677 497.74265L442.59644 495.8423L440.906 497.5327L440.1768 496.80353L441.86722 495.1131L440.1105 493.35638L440.87286 492.59402L442.62958 494.35074ZM452.61746 487.67743L450.08734 490.20755L451.1038 492.35095L450.2862 493.16855L446.5518 484.83795L447.24786 484.14188L455.5895 487.86523L454.7719 488.68283L452.61746 487.67743ZM449.67853 489.3126L451.73358 487.25757L447.88867 485.4677L449.67853 489.3126ZM453.94327 484.95947Q452.90472 483.92093 452.77213 482.81607Q452.6285 481.70016 453.42398 480.90466Q454.20844 480.1202 455.20282 480.1865L452.87158 477.85526L453.6339 477.09293L459.99786 483.45688L459.29077 484.16397L458.77148 483.711Q458.882 484.74954 458.0644 485.56714Q457.291 486.34055 456.15298 486.1969Q455.02603 486.04224 453.9985 485.0147L453.94327 484.95947ZM454.794 484.28552Q455.55637 485.04785 456.2966 485.1694Q457.0479 485.27988 457.60034 484.72745Q458.32956 483.99826 458.00912 482.99283L455.9541 480.9378Q454.98184 480.65054 454.26367 481.3687Q453.7002 481.9322 453.8107 482.68347Q453.93222 483.42374 454.794 484.28552ZM458.89304 480.00974Q457.85446 478.97116 457.72186 477.8663Q457.57825 476.7504 458.37375 475.95493Q459.1582 475.17047 460.15256 475.23676L457.82132 472.90552L458.58368 472.14316L464.94763 478.50714L464.2405 479.21423L463.72122 478.76123Q463.83173 479.7998 463.01413 480.6174Q462.24072 481.3908 461.10272 481.24716Q459.97577 481.0925 458.94827 480.06497L458.89304 480.00974ZM459.74377 479.33575Q460.5061 480.0981 461.24637 480.21967Q461.99765 480.33014 462.55008 479.7777Q463.2793 479.0485 462.9589 478.0431L460.90387 475.98807Q459.93158 475.7008 459.21344 476.41895Q458.64996 476.98242 458.76044 477.73373Q458.882 478.47397 459.74377 479.33575ZM464.84818 473.87778L467.2126 476.2422L466.41708 477.03766L460.38458 471.00516L462.6164 468.77338Q463.5997 467.79004 464.67142 467.7348Q465.7321 467.66852 466.57175 468.5082Q467.4446 469.38104 467.36725 470.40854Q467.30096 471.42502 466.27344 472.4525L464.84818 473.87778ZM464.19632 473.22592L465.63263 471.7896Q466.27344 471.1488 466.3066 470.51904Q466.3508 469.8782 465.78732 469.31473Q465.24594 468.77338 464.58304 468.79547Q463.9201 468.79547 463.31244 469.38104L461.83194 470.86154L464.19632 473.22592ZM469.4665 469.41418Q468.8146 468.7623 468.5384 467.97787Q468.27322 467.18237 468.46106 466.4421Q468.63785 465.69083 469.22342 465.10526Q470.14044 464.1882 471.33368 464.25452Q472.53796 464.30975 473.59863 465.37042L473.65387 465.42566Q474.30576 466.0775 474.5709 466.85092Q474.83606 467.6243 474.67035 468.38666Q474.49356 469.13797 473.8859 469.74564Q472.97992 470.6516 471.77563 470.59637Q470.57132 470.51904 469.52173 469.46942L469.4665 469.41418ZM470.33932 468.7402Q471.07956 469.48047 471.87506 469.59094Q472.6816 469.6904 473.25613 469.11588Q473.8417 468.5303 473.73123 467.7348Q473.60968 466.92825 472.78104 466.0996Q472.05185 465.37042 471.2453 465.27097Q470.43875 465.14944 469.85318 465.73502Q469.2897 466.2985 469.38913 467.10504Q469.4886 467.88947 470.33932 468.7402ZM477.74185 465.71292L476.9795 466.47525L472.49377 461.98956L473.25613 461.2272L477.74185 465.71292ZM471.2453 460.87366Q471.05746 460.68582 471.03537 460.44275Q471.02432 460.18863 471.2453 459.96768Q471.46628 459.7467 471.70932 459.7688Q471.96344 459.77985 472.15128 459.96768Q472.32806 460.14444 472.3391 460.39856Q472.35016 460.63058 472.12918 460.85156Q471.9082 461.07254 471.66513 461.07254Q471.42206 461.0504 471.2453 460.87366ZM475.26697 459.21637L475.85254 459.75775Q475.731 458.5977 476.55963 457.76904Q477.9849 456.34378 479.59796 457.93475L482.559 460.89578L481.78558 461.66916L478.81354 458.6971Q478.33844 458.22202 477.88544 458.21097Q477.4435 458.18887 476.97946 458.65292Q476.60382 459.02856 476.51544 459.5147Q476.4381 459.98978 476.60385 460.46484L479.79688 463.6579L479.03452 464.42023L474.5488 459.93454L475.26697 459.21637ZM479.45435 452.8635L480.5371 453.94623L481.36575 453.11758L481.96237 453.7142L481.13373 454.54285L483.9069 457.31604Q484.1831 457.59225 484.42618 457.61435Q484.66925 457.63644 484.93442 457.37128Q485.067 457.2387 485.25482 456.9625L485.87354 457.5812Q485.66364 457.9679 485.37637 458.25516Q484.86813 458.7634 484.2936 458.7192Q483.70804 458.66397 483.1335 458.08945L480.36032 455.31625L479.54272 456.13385L478.9461 455.53723L479.7637 454.71964L478.68094 453.63687L479.45435 452.8635ZM488.7572 454.87433Q487.84018 455.79135 486.66904 455.76926Q485.4979 455.72507 484.49246 454.71964L484.3599 454.58707Q483.68594 453.9131 483.42078 453.13968Q483.14456 452.35526 483.31027 451.615Q483.476 450.85263 484.00635 450.32233Q484.87918 449.4495 485.93985 449.53787Q487.0005 449.62625 488.0722 450.69797L488.3926 451.01837L485.35425 454.05673Q486.03928 454.69754 486.81268 454.74173Q487.5971 454.77487 488.17163 454.20035Q488.5694 453.8026 488.67987 453.36066Q488.80142 452.90768 488.74615 452.4105L489.5748 452.31107Q489.88416 453.74738 488.7572 454.87433ZM484.6361 450.9521Q484.17206 451.4161 484.19415 452.07904Q484.21628 452.71985 484.75763 453.3938L487.0005 451.15097L486.94525 451.0957Q486.32654 450.54327 485.71887 450.51013Q485.12225 450.46594 484.6361 450.9521ZM489.42014 446.43323Q489.22125 446.58792 489.02237 446.78677Q488.26004 447.54913 488.63568 448.4551L491.81766 451.6371L491.0553 452.39944L486.5696 447.91373L487.30984 447.1735L487.84018 447.6817Q487.6192 446.70944 488.31528 446.0134Q488.53625 445.79242 488.713 445.72614L489.42014 446.43323ZM495.29794 445.77032Q494.9886 445.46097 494.5798 445.5383Q494.171 445.59354 493.4639 446.0576Q492.76782 446.51056 492.24857 446.6763Q491.72928 446.842 491.3315 446.77573Q490.93378 446.68735 490.60233 446.3559Q490.0499 445.80347 490.13828 444.96378Q490.21564 444.11304 490.94482 443.38382Q491.70718 442.6215 492.56897 442.55518Q493.43076 442.4668 494.03842 443.07446L493.27606 443.83682Q492.9667 443.52747 492.4695 443.5827Q491.97235 443.61584 491.5746 444.0136Q491.15475 444.43344 491.09952 444.86435Q491.04425 445.27313 491.3315 445.5604Q491.60773 445.8366 491.97235 445.75928Q492.33694 445.68192 493.04404 445.24Q493.7401 444.787 494.27045 444.61023Q494.80078 444.43344 495.2206 444.52182Q495.65152 444.59918 496.00507 444.95273Q496.61273 445.5604 496.49118 446.41113Q496.3807 447.25082 495.61835 448.01318Q495.077 448.55453 494.4693 448.78656Q493.86163 448.9965 493.2871 448.88602Q492.7126 448.7755 492.31485 448.37778L493.0772 447.61542Q493.486 447.98 494.00528 447.92477Q494.51352 447.8585 494.9886 447.3834Q495.4195 446.9525 495.50787 446.51056Q495.59625 446.06863 495.29794 445.77032Z" fill-rule="nonzero"/><path fill="#757575" d="M509.2112 508.55917Q509.01233 508.3603 508.99023 508.11722Q508.9792 507.8631 509.2112 507.63107Q509.45428 507.38803 509.7084 507.39908Q509.9625 507.41013 510.16138 507.60898Q510.3492 507.7968 510.36026 508.05093Q510.36026 508.294 510.1172 508.53708Q509.88516 508.76907 509.6421 508.76907Q509.39902 508.74698 509.2112 508.55917ZM511.33252 506.43784Q511.13367 506.23898 511.11154 505.9959Q511.1005 505.7418 511.33252 505.50977Q511.5756 505.2667 511.8297 505.27774Q512.0838 505.2888 512.2827 505.48767Q512.4705 505.6755 512.48157 505.9296Q512.48157 506.17267 512.2385 506.41574Q512.0065 506.64777 511.76343 506.64777Q511.52036 506.62567 511.33252 506.43784ZM513.45386 504.31653Q513.25494 504.11765 513.23285 503.87457Q513.2218 503.62045 513.45386 503.38846Q513.6969 503.1454 513.95105 503.15643Q514.20514 503.16748 514.404 503.36636Q514.59186 503.55417 514.6029 503.8083Q514.6029 504.05136 514.3598 504.29443Q514.1278 504.52646 513.88477 504.52646Q513.64166 504.50433 513.45386 504.31653ZM517.03357 495.05783L518.724 493.36743L519.4532 494.09662L517.76276 495.78705L519.66315 497.6874L518.90076 498.44974L517.0004 496.5494L515.31 498.23984L514.5808 497.51062L516.27124 495.8202L514.5145 494.06348L515.27686 493.30112L517.03357 495.05783ZM520.25977 486.24112L527.15405 489.18002L524.2041 482.29678L525.2426 481.2582L531.27515 487.2907L530.4797 488.0862L528.1263 485.73288L525.6735 483.12543L528.56824 489.99762L527.9606 490.6053L521.1105 487.71057L523.7069 490.15228L526.06024 492.5056L525.2647 493.30112L519.23224 487.26862L520.25977 486.24112ZM529.72833 484.26343Q529.0765 483.61154 528.8003 482.82712Q528.5351 482.03162 528.72296 481.29135Q528.8997 480.54007 529.4853 479.9545Q530.4023 479.03745 531.5956 479.10376Q532.79987 479.159 533.86053 480.21964L533.9158 480.2749Q534.5676 480.92676 534.83276 481.70016Q535.09796 482.47354 534.9322 483.2359Q534.75543 483.9872 534.14777 484.59488Q533.24176 485.50085 532.0375 485.44562Q530.8332 485.3683 529.78357 484.31866L529.72833 484.26343ZM530.6012 483.58945Q531.34143 484.3297 532.13696 484.4402Q532.9435 484.53964 533.518 483.96512Q534.1036 483.37955 533.9931 482.58405Q533.8716 481.7775 533.0429 480.94885Q532.3137 480.21964 531.50714 480.1202Q530.7006 479.9987 530.11505 480.58426Q529.5516 481.14774 529.651 481.95428Q529.7504 482.7387 530.6012 483.58945ZM537.60596 478.88278L535.2747 474.31973L536.05914 473.53528L538.93176 479.63406L538.3462 480.21964L532.2364 477.35806L533.0208 476.57364L537.60596 478.88278ZM543.36224 475.3804Q542.44525 476.29742 541.27405 476.27533Q540.1029 476.23114 539.09753 475.2257L538.9649 475.09314Q538.29095 474.41916 538.0258 473.64575Q537.7496 472.86133 537.91534 472.12106Q538.08105 471.3587 538.6114 470.8284Q539.4842 469.95557 540.54486 470.04395Q541.6055 470.13232 542.67725 471.20404L542.9977 471.52444L539.9593 474.5628Q540.6443 475.2036 541.4177 475.2478Q542.20215 475.28094 542.7767 474.70642Q543.17444 474.3087 543.2849 473.86673Q543.40643 473.41376 543.3512 472.91656L544.1799 472.81714Q544.4892 474.25345 543.36224 475.3804ZM539.24115 471.45816Q538.7771 471.92218 538.7992 472.5851Q538.8213 473.22592 539.3627 473.89987L541.6055 471.65704L541.5503 471.60178Q540.9316 471.04935 540.3239 471.0162Q539.7273 470.97202 539.24115 471.45816ZM544.20197 469.63513L546.56635 471.99954L545.7708 472.795L539.73834 466.7625L541.97015 464.53073Q542.9534 463.5474 544.02515 463.49216Q545.0858 463.42587 545.92554 464.26556Q546.79834 465.1384 546.721 466.1659Q546.6547 467.18237 545.6272 468.20987L544.20197 469.63513ZM543.55005 468.98328L544.9864 467.54697Q545.6272 466.90616 545.66034 466.2764Q545.7045 465.63556 545.14105 465.07208Q544.5997 464.53073 543.93677 464.55283Q543.27386 464.55283 542.6662 465.1384L541.18567 466.6189L543.55005 468.98328ZM548.82025 465.17154Q548.1684 464.51968 547.89215 463.73523Q547.627 462.93973 547.8148 462.19946Q547.9916 461.44818 548.57715 460.8626Q549.4942 459.9456 550.68744 460.01187Q551.8917 460.0671 552.9524 461.12778L553.0076 461.183Q553.6595 461.83487 553.9247 462.60828Q554.1898 463.38168 554.0241 464.144Q553.84735 464.89532 553.2396 465.503Q552.3337 466.40897 551.1294 466.35373Q549.9251 466.2764 548.8755 465.22678L548.82025 465.17154ZM549.69305 464.49756Q550.43335 465.23782 551.2288 465.3483Q552.03534 465.44775 552.60986 464.87323Q553.19543 464.28766 553.08496 463.49216Q552.96344 462.6856 552.1348 461.85696Q551.4056 461.12778 550.59906 461.02832Q549.7925 460.9068 549.2069 461.49237Q548.64343 462.05585 548.7429 462.8624Q548.84235 463.64682 549.69305 464.49756ZM557.0956 461.47028L556.33325 462.23264L551.84753 457.74692L552.60986 456.98456L557.0956 461.47028ZM550.59906 456.631Q550.4112 456.44318 550.3891 456.2001Q550.37805 455.946 550.59906 455.72504Q550.82 455.50406 551.0631 455.52615Q551.3172 455.5372 551.505 455.72504Q551.6818 455.9018 551.6929 456.1559Q551.7039 456.38794 551.4829 456.60892Q551.26196 456.8299 551.0189 456.8299Q550.7758 456.8078 550.59906 456.631ZM554.6207 454.97372L555.2063 455.5151Q555.0848 454.355 555.9134 453.52637Q557.3387 452.1011 558.9517 453.6921L561.9128 456.6531L561.13934 457.4265L558.1673 454.45444Q557.6922 453.97937 557.2392 453.96832Q556.7973 453.94623 556.33325 454.41025Q555.9576 454.7859 555.8692 455.27203Q555.7919 455.74713 555.9576 456.2222L559.15063 459.41525L558.38824 460.17758L553.9026 455.6919L554.6207 454.97372ZM558.8081 448.62082L559.89087 449.70358L560.71954 448.87494L561.31616 449.47156L560.4875 450.3002L563.2607 453.07336Q563.53687 453.34958 563.77997 453.3717Q564.023 453.3938 564.2882 453.12863Q564.4208 452.99603 564.6086 452.71982L565.2273 453.33853Q565.0174 453.72525 564.73016 454.0125Q564.2219 454.52075 563.6474 454.47653Q563.0618 454.4213 562.4873 453.84677L559.7141 451.07358L558.8965 451.89117L558.29987 451.29456L559.1175 450.47696L558.0347 449.39423L558.8081 448.62082ZM568.11096 450.63165Q567.194 451.54868 566.0228 451.52658Q564.8517 451.4824 563.84625 450.47696L563.7137 450.3444Q563.03973 449.67044 562.77454 448.89703Q562.49835 448.11258 562.66406 447.37234Q562.8298 446.61 563.3601 446.07965Q564.233 445.20682 565.29364 445.2952Q566.35425 445.3836 567.42596 446.4553L567.7464 446.7757L564.70807 449.81406Q565.39307 450.45486 566.16644 450.49905Q566.95087 450.53223 567.5254 449.9577Q567.92316 449.55994 568.0336 449.118Q568.1552 448.665 568.0999 448.16782L568.9286 448.0684Q569.2379 449.5047 568.11096 450.63165ZM563.98987 446.7094Q563.5258 447.17346 563.5479 447.83636Q563.57007 448.47717 564.1114 449.15115L566.35425 446.9083L566.299 446.85306Q565.6803 446.30063 565.07263 446.2675Q564.476 446.22327 563.98987 446.7094ZM568.7739 442.19055Q568.575 442.34525 568.37616 442.54413Q567.61383 443.30646 567.98944 444.21243L571.17145 447.39444L570.40906 448.15677L565.9234 443.67108L566.66364 442.93082L567.194 443.43906Q566.97296 442.46677 567.66907 441.77072Q567.89 441.54974 568.0668 441.48346L568.7739 442.19055Z" fill-rule="nonzero"/><path fill="#757575" d="M616.8492 476.03226Q616.6503 475.8334 616.62823 475.59033Q616.6172 475.3362 616.8492 475.1042Q617.0923 474.8611 617.3464 474.87216Q617.6005 474.8832 617.7994 475.0821Q617.9872 475.26993 617.9982 475.52405Q617.9982 475.76712 617.7552 476.01016Q617.5232 476.2422 617.2801 476.2422Q617.03705 476.2201 616.8492 476.03226ZM618.9705 473.91095Q618.77167 473.71207 618.7496 473.469Q618.7385 473.2149 618.9705 472.98288Q619.2136 472.7398 619.4677 472.75085Q619.7218 472.7619 619.9207 472.9608Q620.1085 473.1486 620.11957 473.4027Q620.11957 473.64578 619.8765 473.88885Q619.6445 474.12088 619.4014 474.12088Q619.1583 474.0988 618.9705 473.91095ZM621.09186 471.78964Q620.893 471.59076 620.87085 471.3477Q620.8598 471.09357 621.09186 470.86154Q621.3349 470.6185 621.58905 470.62955Q621.84314 470.6406 622.04205 470.83945Q622.22986 471.02728 622.2409 471.2814Q622.2409 471.52448 621.9978 471.76755Q621.7658 471.99954 621.52277 471.99954Q621.27966 471.97745 621.09186 471.78964ZM624.6716 462.53094L626.362 460.8405L627.0912 461.56973L625.40076 463.26016L627.30115 465.1605L626.53876 465.92285L624.6384 464.0225L622.948 465.71292L622.2188 464.98373L623.90924 463.2933L622.1525 461.5366L622.91486 460.77423L624.6716 462.53094ZM634.6595 455.85764L632.12933 458.38776L633.1458 460.53116L632.32825 461.34875L628.5938 453.01816L629.28986 452.32208L637.63153 456.04547L636.8139 456.86304L634.6595 455.85764ZM631.7205 457.49283L633.7756 455.43777L629.93066 453.64792L631.7205 457.49283ZM635.9853 453.13968Q634.9467 452.10114 634.81415 450.99628Q634.67053 449.88037 635.466 449.08487Q636.2504 448.3004 637.2448 448.36673L634.9136 446.03546L635.6759 445.27313L642.0399 451.6371L641.33276 452.3442L640.8135 451.8912Q640.924 452.92978 640.1064 453.74734Q639.333 454.52075 638.195 454.37714Q637.06805 454.22244 636.0405 453.19495L635.9853 453.13968ZM636.836 452.46573Q637.5984 453.2281 638.3386 453.3496Q639.0899 453.46008 639.64233 452.90768Q640.3716 452.17847 640.05115 451.17303L637.9961 449.118Q637.02386 448.83075 636.30566 449.54892Q635.74225 450.1124 635.8527 450.86368Q635.97424 451.60394 636.836 452.46573ZM640.93506 448.18994Q639.8965 447.15137 639.7639 446.04654Q639.62024 444.93063 640.4158 444.13513Q641.2002 443.35068 642.1946 443.41696L639.86334 441.08572L640.6257 440.32336L646.9896 446.68735L646.28253 447.39444L645.76324 446.94147Q645.8737 447.98 645.05615 448.7976Q644.2827 449.571 643.1447 449.42737Q642.01776 449.2727 640.9903 448.24518L640.93506 448.18994ZM641.78577 447.516Q642.5481 448.27832 643.2884 448.39987Q644.0397 448.51035 644.5921 447.95792Q645.3213 447.22873 645.0009 446.2233L642.94586 444.16827Q641.9736 443.881 641.25543 444.59915Q640.69196 445.16263 640.8024 445.91394Q640.924 446.6542 641.78577 447.516Z" fill-rule="nonzero"/><path fill="#757575" d="M688.4248 479.56778Q688.22595 479.3689 688.20386 479.12585Q688.1928 478.87173 688.4248 478.6397Q688.6679 478.39664 688.922 478.40768Q689.1761 478.41873 689.375 478.6176Q689.5628 478.80542 689.57385 479.05954Q689.57385 479.3026 689.3308 479.5457Q689.09875 479.7777 688.8557 479.7777Q688.6126 479.7556 688.4248 479.56778ZM690.54614 477.44647Q690.3472 477.2476 690.32513 477.00452Q690.3141 476.7504 690.54614 476.51837Q690.7892 476.27533 691.04333 476.28638Q691.2974 476.29742 691.4963 476.49628Q691.68414 476.6841 691.6952 476.93823Q691.6952 477.1813 691.4521 477.42438Q691.2201 477.65637 690.97705 477.65637Q690.73395 477.63428 690.54614 477.44647ZM692.6675 475.32513Q692.46857 475.12628 692.4465 474.8832Q692.4354 474.6291 692.6675 474.39706Q692.9105 474.154 693.1646 474.16504Q693.41876 474.1761 693.6176 474.37497Q693.8055 474.5628 693.8165 474.8169Q693.8165 475.05997 693.5734 475.30304Q693.34143 475.53506 693.0983 475.53506Q692.8553 475.51297 692.6675 475.32513ZM696.2472 466.06647L697.9376 464.37604L698.6668 465.10522L696.9764 466.79565L698.8767 468.696L698.1144 469.45837L696.21405 467.558L694.5236 469.24844L693.7944 468.51923L695.4848 466.8288L693.7281 465.07208L694.4905 464.30975L696.2472 466.06647ZM702.9094 461.14987L705.27386 463.51425L704.47833 464.30975L698.44586 458.27725L700.6777 456.04544Q701.66095 455.0621 702.73267 455.00687Q703.79333 454.94058 704.633 455.78027Q705.50586 456.6531 705.4285 457.6806Q705.36224 458.69708 704.3347 459.7246L702.9094 461.14987ZM702.25757 460.498L703.6939 459.06168Q704.3347 458.42087 704.36786 457.7911Q704.41205 457.1503 703.8486 456.58682Q703.3072 456.04544 702.6443 456.06754Q701.9814 456.06754 701.3737 456.6531L699.8932 458.1336L702.25757 460.498ZM707.5278 456.68625Q706.87585 456.0344 706.5997 455.24994Q706.3345 454.45444 706.52234 453.7142Q706.6991 452.9629 707.28467 452.37732Q708.2017 451.4603 709.39496 451.52658Q710.59924 451.58182 711.6599 452.6425L711.71515 452.69772Q712.367 453.34958 712.63214 454.123Q712.89734 454.8964 712.7316 455.65872Q712.5548 456.41003 711.94714 457.0177Q711.0412 457.92368 709.8369 457.86844Q708.63257 457.7911 707.583 456.7415L707.5278 456.68625ZM708.4006 456.0123Q709.1408 456.75253 709.93634 456.86304Q710.74286 456.96246 711.3174 456.38794Q711.90295 455.80237 711.7925 455.00687Q711.67096 454.20032 710.8423 453.37167Q710.1131 452.6425 709.3066 452.54303Q708.5 452.4215 707.9144 453.00708Q707.35095 453.57056 707.4504 454.3771Q707.54987 455.16156 708.4006 456.0123ZM714.1458 450.488L714.15686 451.47134L715.7368 453.05127L714.9745 453.81363L708.6105 447.44968L709.37286 446.68732L713.2177 450.5322L713.1404 449.63727L713.06305 446.7536L713.99115 445.82553L714.1237 449.44946L718.68677 450.10132L717.78076 451.0073L714.1458 450.488ZM721.1616 447.80322Q720.2446 448.72025 719.0735 448.69815Q717.90234 448.65396 716.8969 447.64853L716.76434 447.51596Q716.0904 446.842 715.8252 446.0686Q715.549 445.28415 715.7147 444.54388Q715.88043 443.78156 716.41077 443.25122Q717.2836 442.3784 718.34424 442.46677Q719.4049 442.55515 720.4766 443.62686L720.79706 443.94727L717.75867 446.98563Q718.4437 447.62643 719.2171 447.67062Q720.0015 447.7038 720.57605 447.12927Q720.9738 446.7315 721.0843 446.28958Q721.2058 445.83658 721.1506 445.3394L721.97925 445.23996Q722.2886 446.67627 721.1616 447.80322ZM717.0405 443.88098Q716.5765 444.34503 716.5986 445.00793Q716.62067 445.64874 717.16205 446.32272L719.4049 444.07986L719.3497 444.02463Q718.73096 443.4722 718.1233 443.43906Q717.5267 443.39484 717.0405 443.88098Z" fill-rule="nonzero"/><path fill="#757575" d="M731.7161 511.3876Q731.5172 511.18872 731.4951 510.94568Q731.4841 510.69156 731.7161 510.45953Q731.95917 510.21646 732.21326 510.2275Q732.4674 510.23856 732.66626 510.43744Q732.8541 510.62524 732.8652 510.87936Q732.8652 511.12244 732.6221 511.3655Q732.3901 511.59753 732.147 511.59753Q731.90393 511.57544 731.7161 511.3876ZM733.8374 509.2663Q733.63855 509.0674 733.61646 508.82434Q733.6054 508.57022 733.8374 508.3382Q734.0805 508.09515 734.3346 508.1062Q734.58875 508.11725 734.7876 508.3161Q734.9754 508.50394 734.98645 508.75806Q734.98645 509.00113 734.7434 509.2442Q734.51135 509.4762 734.2683 509.4762Q734.02527 509.4541 733.8374 509.2663ZM735.95874 507.14496Q735.7599 506.9461 735.7378 506.70303Q735.72675 506.4489 735.95874 506.2169Q736.2018 505.97382 736.45593 505.98486Q736.71 505.9959 736.90894 506.1948Q737.09674 506.38263 737.1078 506.63672Q737.1078 506.8798 736.86475 507.12286Q736.6327 507.3549 736.38965 507.3549Q736.14655 507.3328 735.95874 507.14496ZM739.53845 497.8863L741.2289 496.19586L741.95807 496.92505L740.2677 498.61548L742.168 500.51584L741.40564 501.2782L739.5053 499.37784L737.8149 501.06827L737.0857 500.33905L738.7761 498.64862L737.0194 496.8919L737.78174 496.12958L739.53845 497.8863ZM748.6314 495.2678L747.83594 496.06326L741.8034 490.03076L742.59894 489.2353L748.6314 495.2678ZM746.01294 488.91486L746.5985 489.45624Q746.4769 488.29614 747.3056 487.4675Q748.73083 486.04224 750.34393 487.63324L753.30493 490.59424L752.53156 491.36765L749.5595 488.3956Q749.0844 487.9205 748.6314 487.90945Q748.18945 487.88736 747.72546 488.35138Q747.3498 488.72705 747.2614 489.21317Q747.1841 489.68826 747.3498 490.16336L750.5428 493.35638L749.78046 494.11874L745.29474 489.63303L746.01294 488.91486ZM752.26636 487.0808Q751.22784 486.04224 751.0952 484.93738Q750.9516 483.8215 751.74713 483.026Q752.53156 482.24155 753.52594 482.30783L751.1947 479.9766L751.95703 479.21423L758.321 485.57822L757.6139 486.2853L757.0946 485.83234Q757.2051 486.87088 756.3875 487.68848Q755.6141 488.46188 754.4761 488.31824Q753.3491 488.16357 752.32166 487.13605L752.26636 487.0808ZM753.1171 486.40686Q753.87946 487.1692 754.61975 487.29074Q755.37103 487.4012 755.92346 486.8488Q756.65265 486.1196 756.3323 485.11417L754.2772 483.05914Q753.30493 482.77188 752.5868 483.49002Q752.0233 484.0535 752.1338 484.8048Q752.2553 485.54507 753.1171 486.40686ZM760.5086 483.3906L759.7463 484.15295L755.26056 479.66724L756.0229 478.90488L760.5086 483.3906ZM754.0121 478.55133Q753.8242 478.3635 753.8021 478.12045Q753.7911 477.86633 754.0121 477.64536Q754.23303 477.42438 754.4761 477.44647Q754.7302 477.45752 754.918 477.64536Q755.0948 477.82214 755.10583 478.07623Q755.1169 478.30826 754.89594 478.52924Q754.675 478.7502 754.4319 478.7502Q754.18884 478.72812 754.0121 478.55133ZM760.1661 476.1317Q759.9672 476.28638 759.7684 476.48526Q759.006 477.24762 759.38165 478.1536L762.56366 481.33557L761.8013 482.09793L757.31555 477.6122L758.05585 476.87195L758.5862 477.3802Q758.3652 476.40793 759.0612 475.71185Q759.2822 475.49088 759.459 475.4246L760.1661 476.1317ZM766.5743 477.5017Q765.6572 478.41876 764.4861 478.39667Q763.31494 478.35245 762.3095 477.34705L762.17694 477.21445Q761.503 476.5405 761.2378 475.7671Q760.9616 474.98267 761.1273 474.2424Q761.293 473.48004 761.82336 472.94974Q762.6962 472.07687 763.7569 472.16528Q764.8175 472.25366 765.8892 473.32538L766.20966 473.64578L763.1713 476.68414Q763.8563 477.32495 764.6297 477.36914Q765.4142 477.40228 765.9887 476.82776Q766.3864 476.43002 766.4969 475.98807Q766.61847 475.5351 766.56323 475.0379L767.39185 474.93845Q767.70123 476.3748 766.5743 477.5017ZM762.4531 473.5795Q761.98914 474.04352 762.0112 474.70645Q762.0333 475.34726 762.5747 476.0212L764.8175 473.77835L764.76227 473.7231Q764.14355 473.1707 763.5359 473.13754Q762.9393 473.09335 762.4531 473.5795ZM770.12085 472.69562Q770.5296 472.2868 770.59595 471.73438Q770.6512 471.1709 770.30865 470.76212L771.03784 470.0329Q771.40247 470.4417 771.5019 471.04938Q771.6013 471.63495 771.40247 472.25366Q771.21466 472.86133 770.7506 473.32538Q769.83356 474.2424 768.6845 474.17612Q767.53546 474.0877 766.4748 473.02707L766.3422 472.89447Q765.69037 472.2426 765.4142 471.50235Q765.149 470.75107 765.3147 470.0329Q765.48047 469.29266 766.0992 468.67395Q766.85046 467.92264 767.80066 467.87845Q768.7508 467.81216 769.5132 468.5082L768.78394 469.23743Q768.3089 468.8286 767.7344 468.8507Q767.15985 468.8728 766.72894 469.3037Q766.1434 469.88928 766.2428 470.62952Q766.3422 471.36978 767.13776 472.16528L767.2814 472.3089Q768.05475 473.0823 768.795 473.18173Q769.5353 473.2812 770.12085 472.69562ZM768.5851 464.1772L769.66785 465.25995L770.49646 464.4313L771.0931 465.02792L770.26447 465.85657L773.03766 468.62973Q773.31384 468.90594 773.55695 468.92804Q773.8 468.95016 774.0652 468.685Q774.19775 468.5524 774.38556 468.27618L775.0043 468.8949Q774.7944 469.28162 774.5071 469.56888Q773.9989 470.0771 773.4244 470.0329Q772.8388 469.97766 772.2642 469.40314L769.4911 466.62994L768.67346 467.44754L768.07684 466.85092L768.8945 466.03333L767.8117 464.9506L768.5851 464.1772ZM772.5515 459.28268L773.35803 458.47614L777.63385 462.75192Q778.4956 463.6137 778.46246 464.6412Q778.4293 465.64664 777.56757 466.50842Q776.6726 467.40335 775.7004 467.44754Q774.73914 467.48068 773.91046 466.65204L774.706 465.85657Q775.2253 466.37585 775.7998 466.39795Q776.3743 466.39795 776.9157 465.85657Q777.4129 465.35938 777.4018 464.7517Q777.39075 464.12195 776.8384 463.56952L772.5515 459.28268ZM783.2134 459.80194Q783.30176 460.77423 782.4289 461.64706Q781.71075 462.3652 780.9153 462.321Q780.11975 462.27682 779.3022 461.45923L776.3854 458.54242L777.1477 457.78006L780.0424 460.6748Q781.06995 461.7023 781.89856 460.87366Q782.7825 459.98978 782.4068 459.0396L779.1475 455.78027L779.9209 455.0069L784.4066 459.49258L783.67737 460.2218L783.2134 459.80194ZM782.0754 452.85242L782.59467 453.3275Q782.5062 452.26685 783.34595 451.42715Q784.2851 450.48804 785.3457 450.86368Q785.2463 450.3223 785.40094 449.76987Q785.5667 449.2064 786.05286 448.72028Q787.5333 447.23978 789.1133 448.7755L792.11847 451.7807L791.35614 452.54306L788.39514 449.58206Q787.92004 449.10696 787.46704 449.09592Q787.003 449.07382 786.4837 449.5931Q786.05286 450.024 786.0197 450.56537Q785.9976 451.0957 786.3843 451.5708L789.3563 454.54285L788.594 455.3052L785.6551 452.36627Q784.6828 451.394 783.7216 452.35522Q782.9703 453.10654 783.3349 454.02356L786.6053 457.29395L785.83185 458.06732L781.3461 453.58163L782.0754 452.85242ZM795.2121 444.3119Q796.2285 445.32837 796.3943 446.42218Q796.56 447.51596 795.7535 448.3225Q794.93585 449.1401 793.9525 449.08487L796.107 451.23935L795.34467 452.00168L789.1354 445.7924L789.8314 445.09634L790.36176 445.5604Q790.2623 444.51077 791.09094 443.68213Q791.8975 442.87558 792.96924 443.01923Q794.052 443.1518 795.13477 444.23456L795.2121 444.3119ZM794.3613 444.98587Q793.599 444.2235 792.8367 444.12408Q792.0743 444.00253 791.5108 444.566Q790.81476 445.2621 791.0799 446.21225L793.2233 448.35565Q794.1846 448.63187 794.89166 447.92477Q795.4441 447.37234 795.3336 446.62103Q795.22314 445.84766 794.3613 444.98587Z" fill-rule="nonzero"/></svg>