<svg version="1.1" viewBox="0.0 0.0 290.0 179.0" fill="none" stroke="none" stroke-linecap="square" stroke-miterlimit="10" width="290" height="179" xmlns:xlink="http://www.w3.org/1999/xlink" xmlns="http://www.w3.org/2000/svg"><path fill="#ffffff" d="M0 0L290.0 0L290.0 179.0L0 179.0L0 0Z" fill-rule="nonzero"/><path fill="#ffffff" d="M0 0L290.0 0L290.0 179.0L0 179.0L0 0Z" fill-rule="nonzero"/><path stroke="#333333" stroke-width="1.0" stroke-linecap="butt" d="M44.5 149.5L281.5 149.5" fill-rule="nonzero"/><path stroke="#cccccc" stroke-width="1.0" stroke-linecap="butt" d="M44.5 115.5L281.5 115.5" fill-rule="nonzero"/><path stroke="#cccccc" stroke-width="1.0" stroke-linecap="butt" d="M44.5 82.5L281.5 82.5" fill-rule="nonzero"/><path stroke="#cccccc" stroke-width="1.0" stroke-linecap="butt" d="M44.5 49.5L281.5 49.5" fill-rule="nonzero"/><path stroke="#cccccc" stroke-width="1.0" stroke-linecap="butt" d="M44.5 16.5L281.5 16.5" fill-rule="nonzero"/><clipPath id="id_0"><path d="M44.95 16.45L281.05 16.45L281.05 149.05L44.95 149.05L44.95 16.45Z" clip-rule="nonzero"/></clipPath><path stroke="#000000" stroke-width="0.0" stroke-linecap="butt" stroke-opacity="0.0" clip-path="url(#id_0)" d="M116.0 149.0L70.0 149.0L70.0 118.0C70.0 116.89543 70.89543 116.0 72.0 116.0L114.0 116.0C115.10457 116.0 116.0 116.89543 116.0 118.0Z" fill-rule="nonzero"/><path fill="#4285f4" clip-path="url(#id_0)" d="M116.0 149.0L70.0 149.0L70.0 118.0C70.0 116.89543 70.89543 116.0 72.0 116.0L114.0 116.0C115.10457 116.0 116.0 116.89543 116.0 118.0Z" fill-rule="nonzero"/><path stroke="#000000" stroke-width="0.0" stroke-linecap="butt" stroke-opacity="0.0" clip-path="url(#id_0)" d="M186.0 149.0L140.0 149.0L140.0 118.0C140.0 116.89543 140.89543 116.0 142.0 116.0L184.0 116.0C185.10457 116.0 186.0 116.89543 186.0 118.0Z" fill-rule="nonzero"/><path fill="#4285f4" clip-path="url(#id_0)" d="M186.0 149.0L140.0 149.0L140.0 118.0C140.0 116.89543 140.89543 116.0 142.0 116.0L184.0 116.0C185.10457 116.0 186.0 116.89543 186.0 118.0Z" fill-rule="nonzero"/><path stroke="#000000" stroke-width="0.0" stroke-linecap="butt" stroke-opacity="0.0" clip-path="url(#id_0)" d="M256.0 149.0L210.0 149.0L210.0 31.0C210.0 29.89543 210.89543 29.0 212.0 29.0L254.0 29.0C255.10457 29.0 256.0 29.89543 256.0 31.0Z" fill-rule="nonzero"/><path fill="#4285f4" clip-path="url(#id_0)" d="M256.0 149.0L210.0 149.0L210.0 31.0C210.0 29.89543 210.89543 29.0 212.0 29.0L254.0 29.0C255.10457 29.0 256.0 29.89543 256.0 31.0Z" fill-rule="nonzero"/><path fill="#757575" d="M29.0125 149.90938Q29.0125 151.81563 28.35625 152.75313Q27.715626 153.675 26.325 153.675Q24.965626 153.675 24.309376 152.76875Q23.653126 151.8625 23.621876 150.05L23.621876 148.6125Q23.621876 146.72188 24.2625 145.81563Q24.91875 144.89375 26.309376 144.89375Q27.684376 144.89375 28.340626 145.78438Q28.996876 146.65938 29.0125 148.50313L29.0125 149.90938ZM27.91875 148.425Q27.91875 147.05 27.528126 146.425Q27.153126 145.78438 26.309376 145.78438Q25.48125 145.78438 25.090626 146.425Q24.715626 147.05 24.715626 148.34688L24.715626 150.08125Q24.715626 151.45625 25.10625 152.12813Q25.5125 152.78438 26.325 152.78438Q27.121876 152.78438 27.5125 152.15938Q27.903126 151.53438 27.91875 150.20625L27.91875 148.425ZM30.559376 146.65938Q30.559376 145.89375 31.04375 145.39375Q31.54375 144.89375 32.309376 144.89375Q33.090626 144.89375 33.575 145.39375Q34.059376 145.89375 34.059376 146.69063L34.059376 147.1125Q34.059376 147.87813 33.559376 148.37813Q33.075 148.8625 32.325 148.8625Q31.559376 148.8625 31.059376 148.37813Q30.559376 147.87813 30.559376 147.06563L30.559376 146.65938ZM31.371876 147.1125Q31.371876 147.56563 31.621876 147.8625Q31.8875 148.15938 32.325 148.15938Q32.746876 148.15938 32.996876 147.87813Q33.246876 147.58125 33.246876 147.08125L33.246876 146.65938Q33.246876 146.20625 32.996876 145.90938Q32.746876 145.59688 32.309376 145.59688Q31.871876 145.59688 31.621876 145.90938Q31.371876 146.20625 31.371876 146.675L31.371876 147.1125ZM34.715626 151.45625Q34.715626 150.69063 35.2 150.20625Q35.7 149.70625 36.465626 149.70625Q37.23125 149.70625 37.715626 150.20625Q38.215626 150.69063 38.215626 151.50313L38.215626 151.90938Q38.215626 152.675 37.73125 153.175Q37.246876 153.675 36.48125 153.675Q35.715626 153.675 35.215626 153.19063Q34.715626 152.69063 34.715626 151.87813L34.715626 151.45625ZM35.528126 151.90938Q35.528126 152.37813 35.778126 152.675Q36.04375 152.97188 36.48125 152.97188Q36.903126 152.97188 37.153126 152.69063Q37.403126 152.39375 37.403126 151.89375L37.403126 151.45625Q37.403126 150.9875 37.1375 150.70625Q36.8875 150.40938 36.465626 150.40938Q36.04375 150.40938 35.778126 150.70625Q35.528126 150.9875 35.528126 151.4875L35.528126 151.90938ZM32.575 152.90938L31.95 152.51875L36.121876 145.84688L36.73125 146.2375L32.575 152.90938Z" fill-rule="nonzero"/><path fill="#757575" d="M13.215625 120.4L12.1375 120.4L12.1375 113.18125L9.95 113.97813L9.95 112.99375L13.059375 111.82188L13.215625 111.82188L13.215625 120.4ZM22.0125 116.75938Q22.0125 118.66563 21.35625 119.60313Q20.715626 120.525 19.325 120.525Q17.965626 120.525 17.309376 119.61875Q16.653126 118.7125 16.621876 116.9L16.621876 115.4625Q16.621876 113.57188 17.2625 112.66563Q17.91875 111.74375 19.309376 111.74375Q20.684376 111.74375 21.340626 112.63438Q21.996876 113.50938 22.0125 115.35313L22.0125 116.75938ZM20.91875 115.275Q20.91875 113.9 20.528126 113.275Q20.153126 112.63438 19.309376 112.63438Q18.48125 112.63438 18.090626 113.275Q17.715626 113.9 17.715626 115.19688L17.715626 116.93125Q17.715626 118.30625 18.10625 118.97813Q18.5125 119.63438 19.325 119.63438Q20.121876 119.63438 20.5125 119.00938Q20.903126 118.38438 20.91875 117.05625L20.91875 115.275ZM29.0125 116.75938Q29.0125 118.66563 28.35625 119.60313Q27.715626 120.525 26.325 120.525Q24.965626 120.525 24.309376 119.61875Q23.653126 118.7125 23.621876 116.9L23.621876 115.4625Q23.621876 113.57188 24.2625 112.66563Q24.91875 111.74375 26.309376 111.74375Q27.684376 111.74375 28.340626 112.63438Q28.996876 113.50938 29.0125 115.35313L29.0125 116.75938ZM27.91875 115.275Q27.91875 113.9 27.528126 113.275Q27.153126 112.63438 26.309376 112.63438Q25.48125 112.63438 25.090626 113.275Q24.715626 113.9 24.715626 115.19688L24.715626 116.93125Q24.715626 118.30625 25.10625 118.97813Q25.5125 119.63438 26.325 119.63438Q27.121876 119.63438 27.5125 119.00938Q27.903126 118.38438 27.91875 117.05625L27.91875 115.275ZM30.559376 113.50938Q30.559376 112.74375 31.04375 112.24375Q31.54375 111.74375 32.309376 111.74375Q33.090626 111.74375 33.575 112.24375Q34.059376 112.74375 34.059376 113.54063L34.059376 113.9625Q34.059376 114.72813 33.559376 115.22813Q33.075 115.7125 32.325 115.7125Q31.559376 115.7125 31.059376 115.22813Q30.559376 114.72813 30.559376 113.91563L30.559376 113.50938ZM31.371876 113.9625Q31.371876 114.41563 31.621876 114.7125Q31.8875 115.00938 32.325 115.00938Q32.746876 115.00938 32.996876 114.72813Q33.246876 114.43125 33.246876 113.93125L33.246876 113.50938Q33.246876 113.05625 32.996876 112.75938Q32.746876 112.44688 32.309376 112.44688Q31.871876 112.44688 31.621876 112.75938Q31.371876 113.05625 31.371876 113.525L31.371876 113.9625ZM34.715626 118.30625Q34.715626 117.54063 35.2 117.05625Q35.7 116.55625 36.465626 116.55625Q37.23125 116.55625 37.715626 117.05625Q38.215626 117.54063 38.215626 118.35313L38.215626 118.75938Q38.215626 119.525 37.73125 120.025Q37.246876 120.525 36.48125 120.525Q35.715626 120.525 35.215626 120.04063Q34.715626 119.54063 34.715626 118.72813L34.715626 118.30625ZM35.528126 118.75938Q35.528126 119.22813 35.778126 119.525Q36.04375 119.82188 36.48125 119.82188Q36.903126 119.82188 37.153126 119.54063Q37.403126 119.24375 37.403126 118.74375L37.403126 118.30625Q37.403126 117.8375 37.1375 117.55625Q36.8875 117.25938 36.465626 117.25938Q36.04375 117.25938 35.778126 117.55625Q35.528126 117.8375 35.528126 118.3375L35.528126 118.75938ZM32.575 119.75938L31.95 119.36875L36.121876 112.69688L36.73125 113.0875L32.575 119.75938Z" fill-rule="nonzero"/><path fill="#757575" d="M15.246875 87.25L9.653125 87.25L9.653125 86.46875L12.60625 83.1875Q13.2625 82.4375 13.5125 81.984375Q13.7625 81.515625 13.7625 81.015625Q13.7625 80.34375 13.35625 79.921875Q12.965625 79.484375 12.278125 79.484375Q11.48125 79.484375 11.028125 79.953125Q10.575 80.40625 10.575 81.234375L9.496875 81.234375Q9.496875 80.046875 10.246875 79.328125Q11.0125 78.59375 12.278125 78.59375Q13.48125 78.59375 14.16875 79.21875Q14.85625 79.84375 14.85625 80.890625Q14.85625 82.140625 13.246875 83.890625L10.965625 86.359375L15.246875 86.359375L15.246875 87.25ZM22.0125 83.609375Q22.0125 85.515625 21.35625 86.453125Q20.715626 87.375 19.325 87.375Q17.965626 87.375 17.309376 86.46875Q16.653126 85.5625 16.621876 83.75L16.621876 82.3125Q16.621876 80.421875 17.2625 79.515625Q17.91875 78.59375 19.309376 78.59375Q20.684376 78.59375 21.340626 79.484375Q21.996876 80.359375 22.0125 82.203125L22.0125 83.609375ZM20.91875 82.125Q20.91875 80.75 20.528126 80.125Q20.153126 79.484375 19.309376 79.484375Q18.48125 79.484375 18.090626 80.125Q17.715626 80.75 17.715626 82.046875L17.715626 83.78125Q17.715626 85.15625 18.10625 85.828125Q18.5125 86.484375 19.325 86.484375Q20.121876 86.484375 20.5125 85.859375Q20.903126 85.234375 20.91875 83.90625L20.91875 82.125ZM29.0125 83.609375Q29.0125 85.515625 28.35625 86.453125Q27.715626 87.375 26.325 87.375Q24.965626 87.375 24.309376 86.46875Q23.653126 85.5625 23.621876 83.75L23.621876 82.3125Q23.621876 80.421875 24.2625 79.515625Q24.91875 78.59375 26.309376 78.59375Q27.684376 78.59375 28.340626 79.484375Q28.996876 80.359375 29.0125 82.203125L29.0125 83.609375ZM27.91875 82.125Q27.91875 80.75 27.528126 80.125Q27.153126 79.484375 26.309376 79.484375Q25.48125 79.484375 25.090626 80.125Q24.715626 80.75 24.715626 82.046875L24.715626 83.78125Q24.715626 85.15625 25.10625 85.828125Q25.5125 86.484375 26.325 86.484375Q27.121876 86.484375 27.5125 85.859375Q27.903126 85.234375 27.91875 83.90625L27.91875 82.125ZM30.559376 80.359375Q30.559376 79.59375 31.04375 79.09375Q31.54375 78.59375 32.309376 78.59375Q33.090626 78.59375 33.575 79.09375Q34.059376 79.59375 34.059376 80.390625L34.059376 80.8125Q34.059376 81.578125 33.559376 82.078125Q33.075 82.5625 32.325 82.5625Q31.559376 82.5625 31.059376 82.078125Q30.559376 81.578125 30.559376 80.765625L30.559376 80.359375ZM31.371876 80.8125Q31.371876 81.265625 31.621876 81.5625Q31.8875 81.859375 32.325 81.859375Q32.746876 81.859375 32.996876 81.578125Q33.246876 81.28125 33.246876 80.78125L33.246876 80.359375Q33.246876 79.90625 32.996876 79.609375Q32.746876 79.296875 32.309376 79.296875Q31.871876 79.296875 31.621876 79.609375Q31.371876 79.90625 31.371876 80.375L31.371876 80.8125ZM34.715626 85.15625Q34.715626 84.390625 35.2 83.90625Q35.7 83.40625 36.465626 83.40625Q37.23125 83.40625 37.715626 83.90625Q38.215626 84.390625 38.215626 85.203125L38.215626 85.609375Q38.215626 86.375 37.73125 86.875Q37.246876 87.375 36.48125 87.375Q35.715626 87.375 35.215626 86.890625Q34.715626 86.390625 34.715626 85.578125L34.715626 85.15625ZM35.528126 85.609375Q35.528126 86.078125 35.778126 86.375Q36.04375 86.671875 36.48125 86.671875Q36.903126 86.671875 37.153126 86.390625Q37.403126 86.09375 37.403126 85.59375L37.403126 85.15625Q37.403126 84.6875 37.1375 84.40625Q36.8875 84.109375 36.465626 84.109375Q36.04375 84.109375 35.778126 84.40625Q35.528126 84.6875 35.528126 85.1875L35.528126 85.609375ZM32.575 86.609375L31.95 86.21875L36.121876 79.546875L36.73125 79.9375L32.575 86.609375Z" fill-rule="nonzero"/><path fill="#757575" d="M11.23125 49.303123L12.04375 49.303123Q12.825 49.2875 13.2625 48.896873Q13.7 48.50625 13.7 47.834373Q13.7 46.334373 12.2 46.334373Q11.496875 46.334373 11.075 46.740623Q10.66875 47.146873 10.66875 47.803123L9.575 47.803123Q9.575 46.7875 10.309375 46.115623Q11.059375 45.44375 12.2 45.44375Q13.403125 45.44375 14.090625 46.084373Q14.778125 46.725 14.778125 47.865623Q14.778125 48.428123 14.41875 48.94375Q14.059375 49.459373 13.434375 49.725Q14.1375 49.94375 14.5125 50.459373Q14.903125 50.975 14.903125 51.725Q14.903125 52.865623 14.153125 53.553123Q13.403125 54.225 12.2 54.225Q11.0125 54.225 10.246875 53.56875Q9.496875 52.9125 9.496875 51.85L10.590625 51.85Q10.590625 52.521873 11.028125 52.928123Q11.465625 53.334373 12.215625 53.334373Q12.996875 53.334373 13.403125 52.928123Q13.825 52.50625 13.825 51.740623Q13.825 51.00625 13.371875 50.615623Q12.91875 50.209373 12.04375 50.19375L11.23125 50.19375L11.23125 49.303123ZM22.0125 50.459373Q22.0125 52.365623 21.35625 53.303123Q20.715626 54.225 19.325 54.225Q17.965626 54.225 17.309376 53.31875Q16.653126 52.4125 16.621876 50.6L16.621876 49.1625Q16.621876 47.271873 17.2625 46.365623Q17.91875 45.44375 19.309376 45.44375Q20.684376 45.44375 21.340626 46.334373Q21.996876 47.209373 22.0125 49.053123L22.0125 50.459373ZM20.91875 48.975Q20.91875 47.6 20.528126 46.975Q20.153126 46.334373 19.309376 46.334373Q18.48125 46.334373 18.090626 46.975Q17.715626 47.6 17.715626 48.896873L17.715626 50.63125Q17.715626 52.00625 18.10625 52.678123Q18.5125 53.334373 19.325 53.334373Q20.121876 53.334373 20.5125 52.709373Q20.903126 52.084373 20.91875 50.75625L20.91875 48.975ZM29.0125 50.459373Q29.0125 52.365623 28.35625 53.303123Q27.715626 54.225 26.325 54.225Q24.965626 54.225 24.309376 53.31875Q23.653126 52.4125 23.621876 50.6L23.621876 49.1625Q23.621876 47.271873 24.2625 46.365623Q24.91875 45.44375 26.309376 45.44375Q27.684376 45.44375 28.340626 46.334373Q28.996876 47.209373 29.0125 49.053123L29.0125 50.459373ZM27.91875 48.975Q27.91875 47.6 27.528126 46.975Q27.153126 46.334373 26.309376 46.334373Q25.48125 46.334373 25.090626 46.975Q24.715626 47.6 24.715626 48.896873L24.715626 50.63125Q24.715626 52.00625 25.10625 52.678123Q25.5125 53.334373 26.325 53.334373Q27.121876 53.334373 27.5125 52.709373Q27.903126 52.084373 27.91875 50.75625L27.91875 48.975ZM30.559376 47.209373Q30.559376 46.44375 31.04375 45.94375Q31.54375 45.44375 32.309376 45.44375Q33.090626 45.44375 33.575 45.94375Q34.059376 46.44375 34.059376 47.240623L34.059376 47.6625Q34.059376 48.428123 33.559376 48.928123Q33.075 49.4125 32.325 49.4125Q31.559376 49.4125 31.059376 48.928123Q30.559376 48.428123 30.559376 47.615623L30.559376 47.209373ZM31.371876 47.6625Q31.371876 48.115623 31.621876 48.4125Q31.8875 48.709373 32.325 48.709373Q32.746876 48.709373 32.996876 48.428123Q33.246876 48.13125 33.246876 47.63125L33.246876 47.209373Q33.246876 46.75625 32.996876 46.459373Q32.746876 46.146873 32.309376 46.146873Q31.871876 46.146873 31.621876 46.459373Q31.371876 46.75625 31.371876 47.225L31.371876 47.6625ZM34.715626 52.00625Q34.715626 51.240623 35.2 50.75625Q35.7 50.25625 36.465626 50.25625Q37.23125 50.25625 37.715626 50.75625Q38.215626 51.240623 38.215626 52.053123L38.215626 52.459373Q38.215626 53.225 37.73125 53.725Q37.246876 54.225 36.48125 54.225Q35.715626 54.225 35.215626 53.740623Q34.715626 53.240623 34.715626 52.428123L34.715626 52.00625ZM35.528126 52.459373Q35.528126 52.928123 35.778126 53.225Q36.04375 53.521873 36.48125 53.521873Q36.903126 53.521873 37.153126 53.240623Q37.403126 52.94375 37.403126 52.44375L37.403126 52.00625Q37.403126 51.5375 37.1375 51.25625Q36.8875 50.959373 36.465626 50.959373Q36.04375 50.959373 35.778126 51.25625Q35.528126 51.5375 35.528126 52.0375L35.528126 52.459373ZM32.575 53.459373L31.95 53.06875L36.121876 46.396873L36.73125 46.7875L32.575 53.459373Z" fill-rule="nonzero"/><path fill="#757575" d="M14.23125 18.090626L15.41875 18.090626L15.41875 18.965626L14.23125 18.965626L14.23125 20.95L13.153125 20.95L13.153125 18.965626L9.2625 18.965626L9.2625 18.325L13.075 12.418751L14.23125 12.418751L14.23125 18.090626ZM10.496875 18.090626L13.153125 18.090626L13.153125 13.903126L13.0125 14.137501L10.496875 18.090626ZM22.0125 17.309376Q22.0125 19.215626 21.35625 20.153126Q20.715626 21.075 19.325 21.075Q17.965626 21.075 17.309376 20.16875Q16.653126 19.2625 16.621876 17.45L16.621876 16.0125Q16.621876 14.121876 17.2625 13.215626Q17.91875 12.293751 19.309376 12.293751Q20.684376 12.293751 21.340626 13.184376Q21.996876 14.059376 22.0125 15.903126L22.0125 17.309376ZM20.91875 15.825001Q20.91875 14.450001 20.528126 13.825001Q20.153126 13.184376 19.309376 13.184376Q18.48125 13.184376 18.090626 13.825001Q17.715626 14.450001 17.715626 15.746876L17.715626 17.48125Q17.715626 18.85625 18.10625 19.528126Q18.5125 20.184376 19.325 20.184376Q20.121876 20.184376 20.5125 19.559376Q20.903126 18.934376 20.91875 17.60625L20.91875 15.825001ZM29.0125 17.309376Q29.0125 19.215626 28.35625 20.153126Q27.715626 21.075 26.325 21.075Q24.965626 21.075 24.309376 20.16875Q23.653126 19.2625 23.621876 17.45L23.621876 16.0125Q23.621876 14.121876 24.2625 13.215626Q24.91875 12.293751 26.309376 12.293751Q27.684376 12.293751 28.340626 13.184376Q28.996876 14.059376 29.0125 15.903126L29.0125 17.309376ZM27.91875 15.825001Q27.91875 14.450001 27.528126 13.825001Q27.153126 13.184376 26.309376 13.184376Q25.48125 13.184376 25.090626 13.825001Q24.715626 14.450001 24.715626 15.746876L24.715626 17.48125Q24.715626 18.85625 25.10625 19.528126Q25.5125 20.184376 26.325 20.184376Q27.121876 20.184376 27.5125 19.559376Q27.903126 18.934376 27.91875 17.60625L27.91875 15.825001ZM30.559376 14.059376Q30.559376 13.293751 31.04375 12.793751Q31.54375 12.293751 32.309376 12.293751Q33.090626 12.293751 33.575 12.793751Q34.059376 13.293751 34.059376 14.090626L34.059376 14.512501Q34.059376 15.278126 33.559376 15.778126Q33.075 16.2625 32.325 16.2625Q31.559376 16.2625 31.059376 15.778126Q30.559376 15.278126 30.559376 14.465626L30.559376 14.059376ZM31.371876 14.512501Q31.371876 14.965626 31.621876 15.262501Q31.8875 15.559376 32.325 15.559376Q32.746876 15.559376 32.996876 15.278126Q33.246876 14.981251 33.246876 14.481251L33.246876 14.059376Q33.246876 13.606251 32.996876 13.309376Q32.746876 12.996876 32.309376 12.996876Q31.871876 12.996876 31.621876 13.309376Q31.371876 13.606251 31.371876 14.075001L31.371876 14.512501ZM34.715626 18.85625Q34.715626 18.090626 35.2 17.60625Q35.7 17.10625 36.465626 17.10625Q37.23125 17.10625 37.715626 17.60625Q38.215626 18.090626 38.215626 18.903126L38.215626 19.309376Q38.215626 20.075 37.73125 20.575Q37.246876 21.075 36.48125 21.075Q35.715626 21.075 35.215626 20.590626Q34.715626 20.090626 34.715626 19.278126L34.715626 18.85625ZM35.528126 19.309376Q35.528126 19.778126 35.778126 20.075Q36.04375 20.371876 36.48125 20.371876Q36.903126 20.371876 37.153126 20.090626Q37.403126 19.79375 37.403126 19.29375L37.403126 18.85625Q37.403126 18.3875 37.1375 18.10625Q36.8875 17.809376 36.465626 17.809376Q36.04375 17.809376 35.778126 18.10625Q35.528126 18.3875 35.528126 18.8875L35.528126 19.309376ZM32.575 20.309376L31.95 19.91875L36.121876 13.246876L36.73125 13.637501L32.575 20.309376Z" fill-rule="nonzero"/><path fill="#757575" d="M80.647385 163.59688L78.63176 163.59688L78.63176 167.05L77.50676 167.05L77.50676 158.51875L80.334885 158.51875Q81.772385 158.51875 82.53801 159.175Q83.31926 159.83125 83.31926 161.08125Q83.31926 161.87813 82.88176 162.47188Q82.459885 163.06563 81.69426 163.3625L83.69426 166.97188L83.69426 167.05L82.491135 167.05L80.647385 163.59688ZM78.63176 162.675L80.366135 162.675Q81.209885 162.675 81.69426 162.25313Q82.19426 161.81563 82.19426 161.08125Q82.19426 160.3 81.72551 159.87813Q81.25676 159.45625 80.366135 159.44063L78.63176 159.44063L78.63176 162.675ZM86.35051 164.3625L86.522385 165.4875L86.75676 164.47188L88.44426 158.51875L89.397385 158.51875L91.03801 164.47188L91.272385 165.50313L91.459885 164.34688L92.78801 158.51875L93.91301 158.51875L91.85051 167.05L90.81926 167.05L89.053635 160.83125L88.928635 160.175L88.78801 160.83125L86.97551 167.05L85.94426 167.05L83.88176 158.51875L85.00676 158.51875L86.35051 164.3625ZM99.25676 167.05Q99.16301 166.8625 99.10051 166.37813Q98.35051 167.175 97.303635 167.175Q96.366135 167.175 95.75676 166.64375Q95.16301 166.1125 95.16301 165.28438Q95.16301 164.3 95.91301 163.75313Q96.66301 163.20625 98.03801 163.20625L99.084885 163.20625L99.084885 162.70625Q99.084885 162.14375 98.741135 161.81563Q98.41301 161.47188 97.741135 161.47188Q97.16301 161.47188 96.772385 161.76875Q96.38176 162.05 96.38176 162.47188L95.28801 162.47188Q95.28801 161.9875 95.616135 161.55Q95.959885 161.1125 96.53801 160.8625Q97.116135 160.59688 97.803635 160.59688Q98.91301 160.59688 99.522385 161.14375Q100.147385 161.69063 100.178635 162.64375L100.178635 165.56563Q100.178635 166.44063 100.397385 166.95625L100.397385 167.05L99.25676 167.05ZM97.459885 166.22188Q97.97551 166.22188 98.428635 165.95625Q98.88176 165.69063 99.084885 165.26875L99.084885 163.97188L98.241135 163.97188Q96.241135 163.97188 96.241135 165.14375Q96.241135 165.64375 96.584885 165.94063Q96.928635 166.22188 97.459885 166.22188ZM107.81926 167.05L102.22551 167.05L102.22551 166.26875L105.178635 162.9875Q105.834885 162.2375 106.084885 161.78438Q106.334885 161.31563 106.334885 160.81563Q106.334885 160.14375 105.928635 159.72188Q105.53801 159.28438 104.85051 159.28438Q104.053635 159.28438 103.60051 159.75313Q103.147385 160.20625 103.147385 161.03438L102.06926 161.03438Q102.06926 159.84688 102.81926 159.12813Q103.584885 158.39375 104.85051 158.39375Q106.053635 158.39375 106.741135 159.01875Q107.428635 159.64375 107.428635 160.69063Q107.428635 161.94063 105.81926 163.69063L103.53801 166.15938L107.81926 166.15938L107.81926 167.05Z" fill-rule="nonzero"/><path fill="#757575" d="M151.125 163.59688L149.10938 163.59688L149.10938 167.05L147.98438 167.05L147.98438 158.51875L150.8125 158.51875Q152.25 158.51875 153.01562 159.175Q153.79688 159.83125 153.79688 161.08125Q153.79688 161.87813 153.35938 162.47188Q152.9375 163.06563 152.17188 163.3625L154.17188 166.97188L154.17188 167.05L152.96875 167.05L151.125 163.59688ZM149.10938 162.675L150.84375 162.675Q151.6875 162.675 152.17188 162.25313Q152.67188 161.81563 152.67188 161.08125Q152.67188 160.3 152.20312 159.87813Q151.73438 159.45625 150.84375 159.44063L149.10938 159.44063L149.10938 162.675ZM156.82812 164.3625L157.0 165.4875L157.23438 164.47188L158.92188 158.51875L159.875 158.51875L161.51562 164.47188L161.75 165.50313L161.9375 164.34688L163.26562 158.51875L164.39062 158.51875L162.32812 167.05L161.29688 167.05L159.53125 160.83125L159.40625 160.175L159.26562 160.83125L157.45312 167.05L156.42188 167.05L154.35938 158.51875L155.48438 158.51875L156.82812 164.3625ZM171.1875 163.95625Q171.1875 165.40938 170.51562 166.3Q169.85938 167.175 168.73438 167.175Q167.53125 167.175 166.875 166.31563L166.8125 167.05L165.82812 167.05L165.82812 158.05L166.90625 158.05L166.90625 161.40938Q167.5625 160.59688 168.71875 160.59688Q169.875 160.59688 170.53125 161.47188Q171.1875 162.33125 171.1875 163.8625L171.1875 163.95625ZM170.10938 163.83125Q170.10938 162.72188 169.67188 162.12813Q169.25 161.51875 168.45312 161.51875Q167.375 161.51875 166.90625 162.50313L166.90625 165.25313Q167.40625 166.25313 168.45312 166.25313Q169.23438 166.25313 169.67188 165.64375Q170.10938 165.03438 170.10938 163.83125ZM178.29688 167.05L172.70312 167.05L172.70312 166.26875L175.65625 162.9875Q176.3125 162.2375 176.5625 161.78438Q176.8125 161.31563 176.8125 160.81563Q176.8125 160.14375 176.40625 159.72188Q176.01562 159.28438 175.32812 159.28438Q174.53125 159.28438 174.07812 159.75313Q173.625 160.20625 173.625 161.03438L172.54688 161.03438Q172.54688 159.84688 173.29688 159.12813Q174.0625 158.39375 175.32812 158.39375Q176.53125 158.39375 177.21875 159.01875Q177.90625 159.64375 177.90625 160.69063Q177.90625 161.94063 176.29688 163.69063L174.01562 166.15938L178.29688 166.15938L178.29688 167.05Z" fill-rule="nonzero"/><path fill="#757575" d="M222.10262 163.59688L220.08699 163.59688L220.08699 167.05L218.96199 167.05L218.96199 158.51875L221.79012 158.51875Q223.22762 158.51875 223.99324 159.175Q224.77449 159.83125 224.77449 161.08125Q224.77449 161.87813 224.33699 162.47188Q223.91512 163.06563 223.14949 163.3625L225.14949 166.97188L225.14949 167.05L223.94637 167.05L222.10262 163.59688ZM220.08699 162.675L221.82137 162.675Q222.66512 162.675 223.14949 162.25313Q223.64949 161.81563 223.64949 161.08125Q223.64949 160.3 223.18074 159.87813Q222.71199 159.45625 221.82137 159.44063L220.08699 159.44063L220.08699 162.675ZM227.80574 164.3625L227.97762 165.4875L228.21199 164.47188L229.89949 158.51875L230.85262 158.51875L232.49324 164.47188L232.72762 165.50313L232.91512 164.34688L234.24324 158.51875L235.36824 158.51875L233.30574 167.05L232.27449 167.05L230.50887 160.83125L230.38387 160.175L230.24324 160.83125L228.43074 167.05L227.39949 167.05L225.33699 158.51875L226.46199 158.51875L227.80574 164.3625ZM239.33699 166.28438Q239.91512 166.28438 240.35262 165.94063Q240.79012 165.58125 240.83699 165.05L241.86824 165.05Q241.83699 165.59688 241.47762 166.09688Q241.13387 166.58125 240.55574 166.87813Q239.99324 167.175 239.33699 167.175Q238.04012 167.175 237.27449 166.31563Q236.52449 165.44063 236.52449 163.94063L236.52449 163.75313Q236.52449 162.83125 236.85262 162.1125Q237.19637 161.39375 237.82137 161.00313Q238.46199 160.59688 239.33699 160.59688Q240.39949 160.59688 241.10262 161.2375Q241.82137 161.8625 241.86824 162.89375L240.83699 162.89375Q240.79012 162.26875 240.36824 161.87813Q239.94637 161.4875 239.33699 161.4875Q238.50887 161.4875 238.05574 162.08125Q237.60262 162.675 237.60262 163.8L237.60262 164.00313Q237.60262 165.09688 238.05574 165.69063Q238.50887 166.28438 239.33699 166.28438ZM248.27449 167.05L242.68074 167.05L242.68074 166.26875L245.63387 162.9875Q246.29012 162.2375 246.54012 161.78438Q246.79012 161.31563 246.79012 160.81563Q246.79012 160.14375 246.38387 159.72188Q245.99324 159.28438 245.30574 159.28438Q244.50887 159.28438 244.05574 159.75313Q243.60262 160.20625 243.60262 161.03438L242.52449 161.03438Q242.52449 159.84688 243.27449 159.12813Q244.04012 158.39375 245.30574 158.39375Q246.50887 158.39375 247.19637 159.01875Q247.88387 159.64375 247.88387 160.69063Q247.88387 161.94063 246.27449 163.69063L243.99324 166.15938L248.27449 166.15938L248.27449 167.05Z" fill-rule="nonzero"/></svg>