<?xml version="1.0" encoding="UTF-8"?>
<svg width="1e3" height="500" version="1.1" viewBox="0 0 1e3 500" xmlns="http://www.w3.org/2000/svg" xmlns:cc="http://creativecommons.org/ns#" xmlns:dc="http://purl.org/dc/elements/1.1/" xmlns:rdf="http://www.w3.org/1999/02/22-rdf-syntax-ns#">
 <metadata>
  <rdf:RDF>
   <cc:Work rdf:about="">
    <dc:format>image/svg+xml</dc:format>
    <dc:type rdf:resource="http://purl.org/dc/dcmitype/StillImage"/>
    <dc:title/>
   </cc:Work>
  </rdf:RDF>
 </metadata>
 <g id="boxes" transform="translate(-6.499 -2.6035)">
  <path d="m676.05 362.23c-50.24 27.839-121.33 47.104-202.5 47.104-146.23 0-264.78-57.998-264.78-152.98 0-101.02 118.54-156.66 264.78-156.66 81.463 0 152.87 15.72 203.11 43.004-54.836-45.715-153.16-86.602-265.58-86.621-172.18-0.032-311.78 89.612-311.78 200.22 0 100.37 139.55 192.81 311.73 192.84 111.97 0.019 210.04-40.295 265.02-86.904z" fill="#004ba9"/>
  <g id="TM_2_" enable-background="new    ">
   <path d="m883.37 326.99h-7.349v19.111h-6.418v-19.111h-7.347v-5.521h21.112l2e-3 5.521z"/>
   <path d="m886.23 321.46h9.452l4.242 16.422h0.069l4.243-16.422h9.453v24.633h-6.038v-18.698h-0.068l-5.175 18.697h-4.897l-5.177-18.697h-0.069v18.697h-6.035v-24.632z"/>
  </g>
  <g fill="#004ba9">
   <path d="m313.87 282.74c0 6.396 1.155 11.813 3.464 16.255s5.374 8.039 9.193 10.792c3.819 2.754 8.305 4.797 13.458 6.13 5.152 1.332 10.481 1.998 15.988 1.998 3.731 0 7.728-0.311 11.992-0.933s8.261-1.821 11.992-3.598 6.84-4.219 9.327-7.328c2.487-3.108 3.731-7.062 3.731-11.858 0-5.151-1.643-9.326-4.93-12.524-3.286-3.197-7.594-5.862-12.924-7.994-5.329-2.132-11.37-3.997-18.12-5.596-6.751-1.6-13.591-3.376-20.519-5.33-7.106-1.776-14.035-3.953-20.786-6.528-6.75-2.576-12.791-5.907-18.121-9.993s-9.638-9.194-12.924-15.323-4.93-13.546-4.93-22.251c0-9.771 2.087-18.254 6.262-25.449s9.638-13.191 16.389-17.987c6.75-4.797 14.39-8.35 22.917-10.659 8.527-2.31 17.055-3.464 25.582-3.464 9.949 0 19.498 1.11 28.646 3.331 9.149 2.221 17.277 5.818 24.383 10.792s12.747 11.325 16.921 19.053c4.175 7.728 6.262 17.099 6.262 28.113h-40.505c-0.355-5.685-1.555-10.392-3.598-14.124-2.043-3.73-4.752-6.662-8.127-8.793s-7.239-3.642-11.592-4.53c-4.353-0.886-9.105-1.33-14.257-1.333-3.375-2e-3 -6.751 0.353-10.126 1.066-3.375 0.708-6.439 1.952-9.193 3.731-2.753 1.776-5.019 3.997-6.795 6.662-1.777 2.665-2.665 6.04-2.665 10.126 0 3.73 0.71 6.751 2.132 9.061 1.421 2.309 4.219 4.441 8.394 6.396 4.175 1.954 9.949 3.908 17.321 5.862 7.373 1.954 17.01 4.441 28.913 7.461 3.553 0.71 8.483 1.999 14.79 3.864 6.306 1.865 12.568 4.841 18.787 8.927 6.217 4.086 11.591 9.549 16.122 16.388 4.53 6.84 6.795 15.589 6.795 26.249 0 8.704-1.687 16.788-5.063 24.249-3.375 7.462-8.394 13.901-15.056 19.32-6.662 5.418-14.923 9.638-24.783 12.657-9.86 3.021-21.274 4.53-34.243 4.53-10.481 0-20.652-1.288-30.512-3.864-9.86-2.575-18.565-6.617-26.115-12.125-7.55-5.507-13.546-12.524-17.987-21.052s-6.573-18.653-6.396-30.378h40.506z"/>
   <path d="m447.11 155.62h85.806c11.903 0 22.029 1.732 30.379 5.197 8.35 3.464 15.145 8.039 20.386 13.724 5.24 5.685 9.061 12.169 11.458 19.453 2.398 7.284 3.598 14.834 3.598 22.651 0 7.639-1.199 15.145-3.598 22.518-2.397 7.373-6.217 13.902-11.458 19.586s-12.036 10.259-20.386 13.724c-8.35 3.464-18.476 5.196-30.379 5.196h-43.969v68.219h-41.837v-190.27zm41.837 89.537h32.511c4.796 1e-3 9.415-0.354 13.856-1.065 4.441-0.71 8.35-2.087 11.726-4.131 3.375-2.043 6.084-4.93 8.127-8.66 2.043-3.731 3.064-8.616 3.064-14.657 0-6.04-1.021-10.925-3.064-14.656s-4.752-6.618-8.127-8.661c-3.376-2.043-7.284-3.42-11.726-4.13s-9.061-1.066-13.856-1.066h-32.511v57.026z"/>
   <path d="m613.66 155.62h41.838v190.27h-41.838v-190.27z"/>
   <path d="m681.08 155.62h102.6c8.527 0 16.211 1.377 23.051 4.131 6.84 2.753 12.702 6.528 17.588 11.325 4.885 4.796 8.616 10.348 11.191 16.655 2.576 6.307 3.864 13.102 3.864 20.386 1e-3 11.192-2.353 20.875-7.062 29.046-4.708 8.172-12.392 14.39-23.051 18.653v0.533c5.152 1.421 9.416 3.598 12.791 6.528 3.376 2.932 6.129 6.396 8.261 10.394 2.132 3.997 3.687 8.394 4.664 13.19 0.977 4.797 1.643 9.593 1.998 14.39 0.178 3.021 0.355 6.573 0.533 10.659s0.488 8.261 0.933 12.524 1.155 8.306 2.132 12.125c0.978 3.819 2.442 7.062 4.397 9.727h-41.838c-2.309-6.04-3.73-13.235-4.264-21.585s-1.332-16.344-2.398-23.983c-1.421-9.948-4.441-17.232-9.061-21.851-4.618-4.619-12.169-6.929-22.65-6.929h-41.837v74.348h-41.837v-190.27zm41.838 86.073h45.834c9.594 0 16.788-2.132 21.585-6.396s7.195-11.192 7.195-20.786c0-9.238-2.398-15.944-7.195-20.119s-11.991-6.262-21.585-6.262h-45.834v53.563z"/>
  </g>
 </g>
</svg>
