<?xml version="1.0" encoding="utf-8"?>
<!-- Generator: Adobe Illustrator 22.1.0, SVG Export Plug-In . SVG Version: 6.00 Build 0)  -->
<svg version="1.1" id="Layer_1" xmlns="http://www.w3.org/2000/svg" xmlns:xlink="http://www.w3.org/1999/xlink" x="0px" y="0px"
	 viewBox="0 0 448.3 273.3" style="enable-background:new 0 0 448.3 273.3;" xml:space="preserve">
<style type="text/css">
	.st0{fill:#F0824F;}
</style>
<title>Vizrt Logo Orange</title>
<path class="st0" d="M113.9,99.5L93,158.9L72.2,99.5H50.7l32.6,86.6h18.5L135,99.5H113.9z"/>
<path class="st0" d="M155.2,99.6v86.6h19.4V99.6H155.2z"/>
<path class="st0" d="M199.5,99.6v17.7h36.4l-37.3,55.5v13.4h61.6v-17.5h-37.5l36.7-55.1V99.6H199.5z"/>
<path class="st0" d="M304.1,99.6c-5.6,0-10,0.9-14.4,5.3c-4.1,4-6.4,9.6-6.4,15.4v65.9h19.3v-62.9c0-1.6,0.6-3.1,1.8-4.2
	c1.5-1.2,3.3-1.8,5.2-1.8h16.1V99.6H304.1z"/>
<path class="st0" d="M344.7,73.3v91.6c-0.1,5.7,2.2,11.1,6.2,15.1c4.3,4.4,8.5,6.2,14.1,6.2h21.3v-17.5h-15.9
	c-3.2,0-5.8-2.6-5.8-5.8v-45.6h21.6V99.7h-21.6V73.3H344.7z"/>
<path class="st0" d="M0,136.6c-0.1,49.5,16.3,97.6,46.6,136.8l6.9-20.5C32.4,222,20.1,185.9,18,148.5L0,136.6z"/>
<path class="st0" d="M448.3,136.7C448.4,87.2,432,39.1,401.8,0l-6.9,20.4c21.1,30.9,33.4,67,35.5,104.4L448.3,136.7z"/>
</svg>
